<svg xmlns="http://www.w3.org/2000/svg" version="1.1" width="800px" height="800px" style="shape-rendering:geometricPrecision; text-rendering:geometricPrecision; image-rendering:optimizeQuality; fill-rule:evenodd; clip-rule:evenodd" viewBox="548.5714285714284 308.57142857142856 2742.857142857143 1542.857142857143">
<g><path style="opacity:0.986" fill="#003f8d" d="M 1839.5,31.5 C 1854.17,31.3334 1868.84,31.5001 1883.5,32C 1904,59.1667 1924.5,86.3333 1945,113.5C 1945.5,86.1687 1945.67,58.8354 1945.5,31.5C 1956.5,31.5 1967.5,31.5 1978.5,31.5C 1978.17,77.4054 1978.5,123.239 1979.5,169C 1968.17,169.667 1956.83,169.667 1945.5,169C 1925,142.5 1904.5,116 1884,89.5C 1883.5,116.165 1883.33,142.831 1883.5,169.5C 1872.17,169.5 1860.83,169.5 1849.5,169.5C 1849.67,128.499 1849.5,87.4986 1849,46.5C 1846.08,44.6229 1843.25,42.6229 1840.5,40.5C 1839.52,37.5719 1839.18,34.5719 1839.5,31.5 Z" /></g>
<g><path style="opacity:0.973" fill="#003f8d" d="M 1781.5,37.5 C 1783.83,37.5 1786.17,37.5 1788.5,37.5C 1787.5,47.5053 1786.5,57.5053 1785.5,67.5C 1767.14,70.4487 1748.81,73.6154 1730.5,77C 1732.53,84.6842 1733.86,92.5175 1734.5,100.5C 1751.19,97.9628 1767.85,95.2962 1784.5,92.5C 1786.06,102.187 1787.73,111.854 1789.5,121.5C 1773.18,124.275 1756.85,126.942 1740.5,129.5C 1741.83,138.168 1743.17,146.835 1744.5,155.5C 1764.79,151.908 1785.13,148.575 1805.5,145.5C 1807.16,155.122 1808.49,164.789 1809.5,174.5C 1777.85,179.942 1746.18,185.275 1714.5,190.5C 1707.92,149.987 1700.58,109.654 1692.5,69.5C 1689.25,67.9608 1686.09,66.2941 1683,64.5C 1681.85,61.6074 1681.35,58.6074 1681.5,55.5C 1715.03,49.9127 1748.37,43.9127 1781.5,37.5 Z" /></g>
<g><path style="opacity:0.973" fill="#003f8d" d="M 2167.5,62.5 C 2185.69,62.7286 2202.36,68.2286 2217.5,79C 2220.73,80.7231 2223.06,83.2231 2224.5,86.5C 2221.82,97.0388 2218.65,107.372 2215,117.5C 2205.22,104.113 2192.22,95.7795 2176,92.5C 2169.39,92.6157 2165.89,95.949 2165.5,102.5C 2165.85,105.528 2167.01,108.194 2169,110.5C 2177.03,118.864 2185.36,126.864 2194,134.5C 2211.2,153.675 2211.86,173.342 2196,193.5C 2184.1,203.888 2170.26,207.721 2154.5,205C 2135.73,202.284 2119.73,194.284 2106.5,181C 2109.8,169.429 2113.3,157.929 2117,146.5C 2124.37,157.873 2134.2,166.373 2146.5,172C 2153.83,175.433 2161,175.266 2168,171.5C 2169.5,167.961 2169.84,164.295 2169,160.5C 2159.33,149.5 2149,139.167 2138,129.5C 2125.5,112.273 2125.5,94.9401 2138,77.5C 2146.22,69.1414 2156.05,64.1414 2167.5,62.5 Z" /></g>
<g><path style="opacity:0.976" fill="#003f8d" d="M 1583.5,87.5 C 1622.09,85.9362 1646.92,103.603 1658,140.5C 1664.35,179.168 1649.52,206.335 1613.5,222C 1595.24,228.642 1577.07,235.475 1559,242.5C 1544.46,204.747 1530.46,166.747 1517,128.5C 1512.74,126.357 1508.24,124.69 1503.5,123.5C 1501.51,120.85 1500.51,117.85 1500.5,114.5C 1521.91,107.3 1543.24,99.7997 1564.5,92C 1570.89,90.1601 1577.22,88.6601 1583.5,87.5 Z M 1580.5,118.5 C 1602.39,116.86 1616.56,126.527 1623,147.5C 1629.22,171.563 1620.72,188.063 1597.5,197C 1592.13,198.735 1586.8,200.568 1581.5,202.5C 1572.5,177.843 1563.5,153.176 1554.5,128.5C 1555.09,127.201 1556.09,126.368 1557.5,126C 1565.25,123.359 1572.92,120.859 1580.5,118.5 Z" /></g>
<g><path style="opacity:0.972" fill="#003f8d" d="M 2277.5,100.5 C 2310.92,115.375 2344.25,130.542 2377.5,146C 2381.53,147.678 2385.2,149.844 2388.5,152.5C 2384.59,161.319 2380.42,169.986 2376,178.5C 2363.91,172.538 2351.74,166.705 2339.5,161C 2338.36,160.251 2337.36,160.417 2336.5,161.5C 2321.53,194.113 2306.2,226.446 2290.5,258.5C 2280.38,254.274 2270.38,249.774 2260.5,245C 2259.94,244.275 2259.61,243.442 2259.5,242.5C 2274.22,210.052 2289.22,177.718 2304.5,145.5C 2291.57,139.033 2278.57,132.533 2265.5,126C 2269.64,117.55 2273.64,109.05 2277.5,100.5 Z" /></g>
<g><path style="opacity:0.974" fill="#003f8d" d="M 1393.5,173.5 C 1395.02,173.511 1396.18,174.177 1397,175.5C 1413.79,205.578 1430.95,235.412 1448.5,265C 1449.91,265.315 1451.24,264.982 1452.5,264C 1471.67,252.581 1491,241.414 1510.5,230.5C 1513.79,240.217 1516.79,250.051 1519.5,260C 1491.33,277.742 1462.67,294.409 1433.5,310C 1413.04,274.915 1392.71,239.748 1372.5,204.5C 1368.5,203.5 1364.5,202.5 1360.5,201.5C 1359.5,199.5 1358.5,197.5 1357.5,195.5C 1369.19,187.654 1381.19,180.32 1393.5,173.5 Z" /></g>
<g><path style="opacity:0.975" fill="#003f8d" d="M 2443.5,184.5 C 2457.95,193.778 2472.28,203.278 2486.5,213C 2487.06,213.725 2487.39,214.558 2487.5,215.5C 2477.33,256.828 2467.17,298.162 2457,339.5C 2455.1,343.739 2452.76,347.739 2450,351.5C 2449.26,352.574 2448.26,353.241 2447,353.5C 2439.04,348.377 2431.21,343.044 2423.5,337.5C 2425.67,332.5 2427.83,327.5 2430,322.5C 2430.25,317.961 2430.75,313.461 2431.5,309C 2431.24,307.739 2430.57,306.739 2429.5,306C 2415.99,297.151 2402.49,288.318 2389,279.5C 2384.11,281.697 2379.27,284.03 2374.5,286.5C 2371.17,290.5 2367.5,294.167 2363.5,297.5C 2355.23,292.559 2347.23,287.226 2339.5,281.5C 2342.25,276.992 2345.25,272.659 2348.5,268.5C 2378.69,246.473 2409.03,224.64 2439.5,203C 2440.8,202.196 2441.47,201.029 2441.5,199.5C 2440.5,196.838 2439.5,194.172 2438.5,191.5C 2439.93,188.961 2441.6,186.628 2443.5,184.5 Z M 2449.5,233.5 C 2446.52,248.415 2442.69,263.415 2438,278.5C 2429.67,272.996 2421.51,267.329 2413.5,261.5C 2425.23,251.761 2437.23,242.427 2449.5,233.5 Z" /></g>
<g><path style="opacity:0.994" fill="#02408c" d="M 1867.5,208.5 C 2093.16,201.985 2290.49,272.819 2459.5,421C 2626.75,575.524 2717.42,766.857 2731.5,995C 2740.58,1222.11 2670.41,1420.95 2521,1591.5C 2365.86,1759.55 2173.53,1850.89 1944,1865.5C 1710.94,1872.32 1508.78,1797.48 1337.5,1641C 1178.06,1487.23 1091.56,1299.06 1078,1076.5C 1070.41,848.887 1141.41,650.22 1291,480.5C 1432.09,327.533 1606.59,238.366 1814.5,213C 1832.31,211.302 1849.97,209.802 1867.5,208.5 Z" /></g>
<g><path style="opacity:0.976" fill="#003f8d" d="M 1291.5,253.5 C 1323.72,253.686 1347.22,268.019 1362,296.5C 1375.67,338.003 1363.84,370.17 1326.5,393C 1292.88,409.369 1263.04,404.202 1237,377.5C 1219.04,355.681 1214.7,331.347 1224,304.5C 1237.72,275.74 1260.22,258.74 1291.5,253.5 Z M 1284.5,287.5 C 1308.65,286.819 1324.81,297.819 1333,320.5C 1337.16,344.02 1327.99,359.854 1305.5,368C 1294.82,370.597 1284.82,368.931 1275.5,363C 1259.59,352.353 1252.43,337.52 1254,318.5C 1258.98,303.018 1269.15,292.685 1284.5,287.5 Z" /></g>
<g><path style="opacity:0.973" fill="#003f8d" d="M 2547.5,260.5 C 2548.55,260.351 2549.55,260.517 2550.5,261C 2580.01,288.345 2609.34,315.845 2638.5,343.5C 2632.54,351.132 2625.87,358.132 2618.5,364.5C 2607.85,355.017 2597.35,345.351 2587,335.5C 2562.37,362.468 2537.37,389.135 2512,415.5C 2503.35,407.683 2494.85,399.683 2486.5,391.5C 2510.98,364.517 2535.65,337.683 2560.5,311C 2549.8,301.296 2539.46,291.296 2529.5,281C 2535.7,274.307 2541.7,267.473 2547.5,260.5 Z" /></g>
<g><path style="opacity:1" fill="#fdb903" d="M 1874.5,270.5 C 2102.33,266.059 2296.16,344.059 2456,504.5C 2608.48,666.836 2679.48,860.169 2669,1084.5C 2653.21,1293.57 2568.37,1468.4 2414.5,1609C 2257.04,1745.94 2073.37,1810.28 1863.5,1802C 1654.22,1787.43 1478.72,1703.6 1337,1550.5C 1192.74,1385.74 1127.74,1193.41 1142,973.5C 1163.15,758.337 1255.99,581.504 1420.5,443C 1552.58,336.255 1703.91,278.755 1874.5,270.5 Z" /></g>
<g><path style="opacity:1" fill="#00408c" d="M 1571.5,653.5 C 1571.44,652.957 1571.11,652.624 1570.5,652.5C 1569.5,668.486 1569.17,684.486 1569.5,700.5C 1561.04,701.378 1552.38,701.378 1543.5,700.5C 1542.17,700.5 1540.83,700.5 1539.5,700.5C 1539.5,684.167 1539.5,667.833 1539.5,651.5C 1537.71,650.378 1535.71,650.211 1533.5,651C 1522.57,653.607 1511.74,656.441 1501,659.5C 1500.83,665.859 1500.33,672.193 1499.5,678.5C 1494.08,681.627 1488.58,684.627 1483,687.5C 1483,707.5 1483,727.5 1483,747.5C 1424.74,849.065 1359.41,945.731 1287,1037.5C 1266.27,1061.9 1244.44,1085.4 1221.5,1108C 1211.25,1117.59 1200.41,1126.42 1189,1134.5C 1162.2,918.292 1218.54,727.292 1358,561.5C 1504.4,398.659 1687.74,315.659 1908,312.5C 2095.52,316.187 2258.36,380.354 2396.5,505C 2547.1,648.925 2624.43,825.591 2628.5,1035C 2628.75,1138.73 2607.92,1237.9 2566,1332.5C 2368.08,1268.96 2180.58,1182.79 2003.5,1074C 1899.66,1009.85 1802.33,936.848 1711.5,855C 1674.83,821.339 1640.67,785.506 1609,747.5C 1607.61,718.87 1606.61,690.203 1606,661.5C 1594.65,658.287 1583.15,655.62 1571.5,653.5 Z" /></g>
<g><path style="opacity:0.973" fill="#003f8d" d="M 2665.5,374.5 C 2667.02,374.511 2668.18,375.177 2669,376.5C 2690.45,404.952 2712.28,433.119 2734.5,461C 2725.41,465.295 2716.24,469.462 2707,473.5C 2695.33,458.833 2683.67,444.167 2672,429.5C 2665.66,434.341 2659.5,439.341 2653.5,444.5C 2663.14,457.31 2672.98,469.976 2683,482.5C 2683.67,483.167 2683.67,483.833 2683,484.5C 2675.49,489.925 2668.15,495.591 2661,501.5C 2650.66,488.331 2640.16,475.331 2629.5,462.5C 2622.54,467.453 2615.88,472.787 2609.5,478.5C 2621.83,494.5 2634.17,510.5 2646.5,526.5C 2639.45,533.053 2631.95,539.053 2624,544.5C 2603.57,519.819 2583.74,494.652 2564.5,469C 2596.33,443.833 2628.17,418.667 2660,393.5C 2660.33,388.833 2660.67,384.167 2661,379.5C 2662.71,377.963 2664.21,376.296 2665.5,374.5 Z" /></g>
<g><path style="opacity:0.975" fill="#003f8d" d="M 1161.5,384.5 C 1169.34,384.036 1177.01,384.536 1184.5,386C 1175.97,396.229 1167.8,406.729 1160,417.5C 1149.23,421.939 1140.56,428.939 1134,438.5C 1124.88,459.872 1129.72,477.372 1148.5,491C 1170.21,504.456 1189.05,501.289 1205,481.5C 1211.94,469.819 1212.77,457.819 1207.5,445.5C 1200.14,454.356 1192.98,463.356 1186,472.5C 1178.81,466.642 1171.65,460.809 1164.5,455C 1179.54,435.094 1194.71,415.261 1210,395.5C 1239.87,416.105 1250.21,444.105 1241,479.5C 1229.76,508.079 1209.26,525.912 1179.5,533C 1148.7,536.015 1124.53,524.848 1107,499.5C 1091.68,470.82 1093.35,443.154 1112,416.5C 1124.49,399.482 1140.99,388.816 1161.5,384.5 Z" /></g>
<g><path style="opacity:1" fill="#bf933f" d="M 1571.5,653.5 C 1570.83,669.167 1570.17,684.833 1569.5,700.5C 1569.17,684.486 1569.5,668.486 1570.5,652.5C 1571.11,652.624 1571.44,652.957 1571.5,653.5 Z" /></g>
<g><path style="opacity:1" fill="#b08b48" d="M 1539.5,651.5 C 1539.5,667.833 1539.5,684.167 1539.5,700.5C 1540.83,700.5 1542.17,700.5 1543.5,700.5C 1542.08,701.451 1540.41,701.784 1538.5,701.5C 1538.17,684.658 1538.5,667.992 1539.5,651.5 Z" /></g>
<g><path style="opacity:1" fill="#0e418b" d="M 1568.5,814.5 C 1558.68,815.494 1548.68,815.827 1538.5,815.5C 1538.5,806.5 1538.5,797.5 1538.5,788.5C 1548.83,788.5 1559.17,788.5 1569.5,788.5C 1569.67,797.264 1569.33,805.931 1568.5,814.5 Z" /></g>
<g><path style="opacity:1" fill="#7e755e" d="M 1568.5,814.5 C 1569.04,814.56 1569.38,814.893 1569.5,815.5C 1559.01,816.823 1548.67,816.823 1538.5,815.5C 1548.68,815.827 1558.68,815.494 1568.5,814.5 Z" /></g>
<g><path style="opacity:1" fill="#03408c" d="M 1630.5,814.5 C 1661.08,846.911 1692.58,878.577 1725,909.5C 1774.33,1075.81 1823.49,1242.14 1872.5,1408.5C 1847.16,1409.05 1821.83,1409.72 1796.5,1410.5C 1741.48,1211.73 1686.14,1013.07 1630.5,814.5 Z" /></g>
<g><path style="opacity:1" fill="#04408c" d="M 1610.5,826.5 C 1665.92,1021.18 1720.59,1216.18 1774.5,1411.5C 1752.5,1412.19 1730.5,1412.85 1708.5,1413.5C 1678.85,1297.38 1648.68,1181.38 1618,1065.5C 1614.75,985.868 1612.25,906.201 1610.5,826.5 Z" /></g>
<g><path style="opacity:1" fill="#04408c" d="M 1460.5,826.5 C 1461.1,826.735 1461.43,827.235 1461.5,828C 1405.55,1027.31 1349.72,1226.47 1294,1425.5C 1275.29,1396.25 1258.79,1365.75 1244.5,1334C 1276,1228.17 1307.5,1122.33 1339,1016.5C 1383.75,956.021 1424.25,892.687 1460.5,826.5 Z" /></g>
<g><path style="opacity:1" fill="#4a5b75" d="M 1483.5,850.5 C 1482.83,845.833 1482.17,841.167 1481.5,836.5C 1481.89,834.821 1482.39,833.154 1483,831.5C 1483.5,837.825 1483.67,844.158 1483.5,850.5 Z" /></g>
<g><path style="opacity:1" fill="#04408c" d="M 1481.5,836.5 C 1482.17,841.167 1482.83,845.833 1483.5,850.5C 1482.78,918.824 1481.62,987.157 1480,1055.5C 1447.67,1178.49 1415.5,1301.49 1383.5,1424.5C 1361.16,1425.06 1338.83,1425.73 1316.5,1426.5C 1371.5,1229.83 1426.5,1033.17 1481.5,836.5 Z" /></g>
<g><path style="opacity:1" fill="#04408c" d="M 1538.5,857.5 C 1548.83,857.5 1559.17,857.5 1569.5,857.5C 1569.5,872.5 1569.5,887.5 1569.5,902.5C 1559.17,902.5 1548.83,902.5 1538.5,902.5C 1538.5,887.5 1538.5,872.5 1538.5,857.5 Z" /></g>
<g><path style="opacity:1" fill="#04408c" d="M 1755.5,936.5 C 1783.03,959.518 1810.86,982.184 1839,1004.5C 1880.6,1137.81 1922.1,1271.14 1963.5,1404.5C 1940.52,1405.96 1917.52,1406.96 1894.5,1407.5C 1848.55,1250.41 1802.21,1093.41 1755.5,936.5 Z" /></g>
<g><path style="opacity:1" fill="#0b418b" d="M 1543.5,943.5 C 1552.04,943.307 1560.71,943.64 1569.5,944.5C 1569.5,959.167 1569.5,973.833 1569.5,988.5C 1559.17,988.5 1548.83,988.5 1538.5,988.5C 1538.5,973.833 1538.5,959.167 1538.5,944.5C 1540.41,944.784 1542.08,944.451 1543.5,943.5 Z" /></g>
<g><path style="opacity:1" fill="#04408c" d="M 2056.5,1400.5 C 2055.17,1401.17 2053.83,1401.83 2052.5,1402.5C 2030.16,1402.97 2007.83,1403.64 1985.5,1404.5C 1947.35,1278.73 1908.35,1153.23 1868.5,1028C 1868.83,1027.83 1869.17,1027.67 1869.5,1027.5C 1896.05,1047.69 1923.22,1067.03 1951,1085.5C 1986.67,1190.35 2021.84,1295.35 2056.5,1400.5 Z" /></g>
<g><path style="opacity:1" fill="#01408c" d="M 1538.5,1030.5 C 1548.5,1030.5 1558.5,1030.5 1568.5,1030.5C 1568.82,1058.24 1568.49,1085.91 1567.5,1113.5C 1557.83,1113.5 1548.17,1113.5 1538.5,1113.5C 1538.5,1085.83 1538.5,1058.17 1538.5,1030.5 Z" /></g>
<g><path style="opacity:1" fill="#445977" d="M 1538.5,1030.5 C 1548.65,1029.51 1558.99,1029.17 1569.5,1029.5C 1570.16,1057.85 1569.49,1085.85 1567.5,1113.5C 1568.49,1085.91 1568.82,1058.24 1568.5,1030.5C 1558.5,1030.5 1548.5,1030.5 1538.5,1030.5 Z" /></g>
<g><path style="opacity:1" fill="#05408c" d="M 1301.5,1062.5 C 1278.62,1142.35 1255.12,1222.35 1231,1302.5C 1214.69,1260.08 1202.19,1216.58 1193.5,1172C 1233.41,1139.26 1269.41,1102.76 1301.5,1062.5 Z" /></g>
<g><path style="opacity:1" fill="#04408c" d="M 1981.5,1105.5 C 2009,1122.42 2036.34,1139.58 2063.5,1157C 2091.81,1237.42 2119.81,1317.92 2147.5,1398.5C 2124.85,1399.65 2102.19,1400.32 2079.5,1400.5C 2046.84,1302.18 2014.17,1203.85 1981.5,1105.5 Z" /></g>
<g><path style="opacity:1" fill="#08408c" d="M 1477.5,1148.5 C 1478.16,1149.96 1478.49,1151.63 1478.5,1153.5C 1475.63,1242.85 1472.29,1332.18 1468.5,1421.5C 1447.83,1422.19 1427.17,1422.85 1406.5,1423.5C 1430.01,1331.79 1453.68,1240.12 1477.5,1148.5 Z" /></g>
<g><path style="opacity:1" fill="#003f8d" d="M 1538.5,1155.5 C 1548.39,1156.38 1558.39,1156.38 1568.5,1155.5C 1568.17,1183.67 1568.5,1211.67 1569.5,1239.5C 1559.35,1240.49 1549.01,1240.83 1538.5,1240.5C 1538.5,1212.17 1538.5,1183.83 1538.5,1155.5 Z" /></g>
<g><path style="opacity:1" fill="#3b5779" d="M 1538.5,1155.5 C 1548.65,1154.51 1558.99,1154.17 1569.5,1154.5C 1569.5,1182.83 1569.5,1211.17 1569.5,1239.5C 1568.5,1211.67 1568.17,1183.67 1568.5,1155.5C 1558.39,1156.38 1548.39,1156.38 1538.5,1155.5 Z" /></g>
<g><path style="opacity:1" fill="#07408c" d="M 1622.5,1167.5 C 1643.99,1249.81 1665.33,1332.15 1686.5,1414.5C 1671.83,1414.83 1657.17,1415.17 1642.5,1415.5C 1638.5,1415.5 1634.5,1415.5 1630.5,1415.5C 1630.81,1411.96 1630.48,1408.62 1629.5,1405.5C 1626.68,1329.5 1624.01,1253.5 1621.5,1177.5C 1621.19,1173.96 1621.52,1170.62 1622.5,1167.5 Z" /></g>
<g><path style="opacity:1" fill="#6e6c67" d="M 1622.5,1167.5 C 1621.52,1170.62 1621.19,1173.96 1621.5,1177.5C 1620.35,1172.68 1620.18,1167.68 1621,1162.5C 1621.35,1164.25 1621.85,1165.91 1622.5,1167.5 Z" /></g>
<g><path style="opacity:1" fill="#05408c" d="M 2091.5,1173.5 C 2120.87,1189.94 2150.37,1206.27 2180,1222.5C 2202.04,1280.07 2224.2,1337.57 2246.5,1395C 2220.95,1396.84 2195.45,1397.34 2170,1396.5C 2143.92,1322.11 2117.76,1247.77 2091.5,1173.5 Z" /></g>
<g><path style="opacity:1" fill="#06408c" d="M 2209.5,1237.5 C 2238.99,1252.33 2268.49,1266.99 2298,1281.5C 2313.66,1318.33 2328.83,1355.33 2343.5,1392.5C 2322.66,1392.89 2301.83,1393.56 2281,1394.5C 2277.17,1394.17 2273.33,1393.83 2269.5,1393.5C 2248.9,1341.65 2228.9,1289.65 2209.5,1237.5 Z" /></g>
<g><path style="opacity:1" fill="#05408c" d="M 1538.5,1282.5 C 1548.83,1282.5 1559.17,1282.5 1569.5,1282.5C 1569.5,1327.5 1569.5,1372.5 1569.5,1417.5C 1559.16,1417.59 1548.82,1417.92 1538.5,1418.5C 1538.5,1373.17 1538.5,1327.83 1538.5,1282.5 Z" /></g>
<g><path style="opacity:1" fill="#07408c" d="M 2326.5,1293.5 C 2356.19,1307.36 2386.19,1320.52 2416.5,1333C 2425.12,1351.02 2433.45,1369.19 2441.5,1387.5C 2416.55,1390 2391.55,1390.67 2366.5,1389.5C 2353.14,1357.45 2339.8,1325.45 2326.5,1293.5 Z" /></g>
<g><path style="opacity:1" fill="#0e418b" d="M 2446.5,1346.5 C 2446.56,1345.96 2446.89,1345.62 2447.5,1345.5C 2478.92,1357.88 2510.25,1370.22 2541.5,1382.5C 2541.17,1383.17 2540.83,1383.83 2540.5,1384.5C 2515.2,1386.87 2489.87,1387.54 2464.5,1386.5C 2458.66,1372.95 2452.66,1359.61 2446.5,1346.5 Z" /></g>
<g><path style="opacity:1" fill="#87795b" d="M 2056.5,1400.5 C 2057.04,1400.56 2057.38,1400.89 2057.5,1401.5C 2055.95,1402.45 2054.29,1402.79 2052.5,1402.5C 2053.83,1401.83 2055.17,1401.17 2056.5,1400.5 Z" /></g>
<g><path style="opacity:1" fill="#b28c47" d="M 1629.5,1405.5 C 1630.48,1408.62 1630.81,1411.96 1630.5,1415.5C 1634.5,1415.5 1638.5,1415.5 1642.5,1415.5C 1638.37,1416.48 1634.03,1416.82 1629.5,1416.5C 1629.5,1412.83 1629.5,1409.17 1629.5,1405.5 Z" /></g>
<g><path style="opacity:1" fill="#09408c" d="M 1754.5,1460.5 C 1759.57,1461.19 1764.73,1461.85 1770,1462.5C 1784.44,1461.7 1799.61,1461.37 1815.5,1461.5C 1855.25,1461.44 1895.58,1461.44 1936.5,1461.5C 1941.9,1462.19 1947.4,1462.85 1953,1463.5C 1966.99,1462.63 1981.49,1462.3 1996.5,1462.5C 2036.58,1462.44 2077.25,1462.44 2118.5,1462.5C 2123.57,1463.19 2128.73,1463.85 2134,1464.5C 2148.66,1463.63 2163.82,1463.29 2179.5,1463.5C 2219.25,1463.44 2259.58,1463.44 2300.5,1463.5C 2305.9,1464.19 2311.4,1464.85 2317,1465.5C 2330.99,1464.63 2345.49,1464.3 2360.5,1464.5C 2363.15,1464.21 2365.81,1463.87 2368.5,1463.5C 2408.79,1464.33 2449.13,1464.83 2489.5,1465C 2484.95,1471.26 2480.29,1477.42 2475.5,1483.5C 2471.17,1483.83 2466.83,1484.17 2462.5,1484.5C 2187.77,1478.97 1913.1,1473.31 1638.5,1467.5C 1636.83,1467.5 1635.17,1467.5 1633.5,1467.5C 1633.5,1465.17 1633.5,1462.83 1633.5,1460.5C 1673.15,1460.44 1713.49,1460.44 1754.5,1460.5 Z" /></g>
<g><path style="opacity:1" fill="#556071" d="M 1754.5,1460.5 C 1775.01,1460.17 1795.34,1460.5 1815.5,1461.5C 1799.61,1461.37 1784.44,1461.7 1770,1462.5C 1764.73,1461.85 1759.57,1461.19 1754.5,1460.5 Z" /></g>
<g><path style="opacity:1" fill="#566071" d="M 1936.5,1461.5 C 1956.67,1461.17 1976.67,1461.5 1996.5,1462.5C 1981.49,1462.3 1966.99,1462.63 1953,1463.5C 1947.4,1462.85 1941.9,1462.19 1936.5,1461.5 Z" /></g>
<g><path style="opacity:1" fill="#566071" d="M 2118.5,1462.5 C 2139.01,1462.17 2159.34,1462.5 2179.5,1463.5C 2163.82,1463.29 2148.66,1463.63 2134,1464.5C 2128.73,1463.85 2123.57,1463.19 2118.5,1462.5 Z" /></g>
<g><path style="opacity:1" fill="#566071" d="M 2300.5,1463.5 C 2320.67,1463.17 2340.67,1463.5 2360.5,1464.5C 2345.49,1464.3 2330.99,1464.63 2317,1465.5C 2311.4,1464.85 2305.9,1464.19 2300.5,1463.5 Z" /></g>
<g><path style="opacity:1" fill="#9e8252" d="M 1633.5,1460.5 C 1633.5,1462.83 1633.5,1465.17 1633.5,1467.5C 1635.17,1467.5 1636.83,1467.5 1638.5,1467.5C 1636.74,1468.46 1634.74,1468.79 1632.5,1468.5C 1632.19,1465.61 1632.53,1462.95 1633.5,1460.5 Z" /></g>
<g><path style="opacity:0.985" fill="#003f8d" d="M 1155.5,1499.5 C 1158.06,1500.54 1160.22,1502.21 1162,1504.5C 1175.35,1519.02 1188.52,1533.68 1201.5,1548.5C 1179.44,1590.29 1157.1,1631.96 1134.5,1673.5C 1134.83,1673.83 1135.17,1674.17 1135.5,1674.5C 1176.94,1654.03 1218.44,1633.7 1260,1613.5C 1264.29,1616.79 1268.29,1620.45 1272,1624.5C 1276.23,1629.06 1280.06,1633.89 1283.5,1639C 1260.47,1678.23 1237.3,1717.4 1214,1756.5C 1213.02,1757.76 1212.68,1759.09 1213,1760.5C 1249.19,1744.93 1285.36,1729.27 1321.5,1713.5C 1322.15,1708.19 1322.32,1702.86 1322,1697.5C 1324.68,1694.65 1327.52,1691.98 1330.5,1689.5C 1348.19,1707.69 1365.36,1726.36 1382,1745.5C 1382.62,1746.45 1382.45,1747.28 1381.5,1748C 1313.06,1775.64 1244.56,1803.14 1176,1830.5C 1163.35,1817.68 1151.18,1804.35 1139.5,1790.5C 1153.63,1763.75 1167.63,1736.91 1181.5,1710C 1153.38,1721.27 1125.21,1732.77 1097,1744.5C 1085.4,1732.23 1073.73,1719.9 1062,1707.5C 1060.81,1705.96 1060.48,1704.29 1061,1702.5C 1090.59,1644.99 1119.92,1587.32 1149,1529.5C 1148.75,1521.83 1148.42,1514.16 1148,1506.5C 1151,1504.67 1153.5,1502.33 1155.5,1499.5 Z" /></g>
<g><path style="opacity:1" fill="#06408c" d="M 1453.5,1505.5 C 1456.29,1506.48 1459.29,1506.81 1462.5,1506.5C 1462.5,1508.5 1462.5,1510.5 1462.5,1512.5C 1460.92,1541.87 1458.75,1571.2 1456,1600.5C 1455.78,1601.94 1455.28,1603.27 1454.5,1604.5C 1416.42,1574.26 1381.76,1540.42 1350.5,1503C 1384.83,1503.52 1419.17,1504.35 1453.5,1505.5 Z" /></g>
<g><path style="opacity:1" fill="#5b626f" d="M 1453.5,1505.5 C 1456.83,1505.5 1460.17,1505.5 1463.5,1505.5C 1463.8,1508.06 1463.47,1510.39 1462.5,1512.5C 1462.5,1510.5 1462.5,1508.5 1462.5,1506.5C 1459.29,1506.81 1456.29,1506.48 1453.5,1505.5 Z" /></g>
<g><path style="opacity:1" fill="#01408c" d="M 1538.5,1508.5 C 1834.17,1518.91 2129.84,1529.58 2425.5,1540.5C 2311.59,1657.3 2173.59,1728.46 2011.5,1754C 1886.35,1771.91 1764.68,1758.58 1646.5,1714C 1645.75,1712.27 1645.25,1710.43 1645,1708.5C 1641.83,1652.16 1638.67,1595.83 1635.5,1539.5C 1613.57,1532.47 1591.74,1525.14 1570,1517.5C 1569.67,1571.5 1569.33,1625.5 1569,1679.5C 1558.92,1674.21 1549.09,1668.55 1539.5,1662.5C 1538.5,1611.17 1538.17,1559.84 1538.5,1508.5 Z" /></g>
<g><path style="opacity:0.983" fill="#003f8d" d="M 2642.5,1514.5 C 2643.87,1514.34 2645.21,1514.51 2646.5,1515C 2659.17,1524.67 2671.83,1534.33 2684.5,1544C 2662.3,1551.67 2644.14,1564.84 2630,1583.5C 2623.89,1599.16 2629.06,1607 2645.5,1607C 2662.67,1599.72 2679.67,1592.05 2696.5,1584C 2734.1,1568.2 2762.6,1578.03 2782,1613.5C 2789.8,1636.54 2787.47,1658.54 2775,1679.5C 2761.29,1702.54 2742.46,1720.04 2718.5,1732C 2716.71,1732.52 2715.04,1732.19 2713.5,1731C 2699.83,1720.67 2686.17,1710.33 2672.5,1700C 2695.76,1694.79 2715.26,1683.29 2731,1665.5C 2736.49,1658.23 2738.15,1650.23 2736,1641.5C 2731.74,1634.46 2725.58,1631.96 2717.5,1634C 2698.83,1642.33 2680.17,1650.67 2661.5,1659C 2627.02,1669.33 2601.19,1658.83 2584,1627.5C 2576.17,1604.77 2578.5,1583.11 2591,1562.5C 2603.89,1541.77 2621.05,1525.77 2642.5,1514.5 Z" /></g>
<g><path style="opacity:0.985" fill="#003f8d" d="M 2514.5,1674.5 C 2546.54,1671.6 2569.37,1684.6 2583,1713.5C 2589.35,1731.37 2588.85,1749.04 2581.5,1766.5C 2581.83,1766.83 2582.17,1767.17 2582.5,1767.5C 2616.49,1775.67 2650.49,1783.83 2684.5,1792C 2668.07,1805.96 2651.57,1819.79 2635,1833.5C 2605.25,1825.69 2575.58,1817.69 2546,1809.5C 2542.97,1812.87 2539.63,1815.87 2536,1818.5C 2535.33,1819.17 2535.33,1819.83 2536,1820.5C 2552.17,1839.33 2568.33,1858.17 2584.5,1877C 2571.02,1888.31 2557.69,1899.81 2544.5,1911.5C 2541.85,1909.35 2539.35,1907.02 2537,1904.5C 2499.43,1859.2 2461.26,1814.37 2422.5,1770C 2421.67,1769.83 2420.83,1769.67 2420,1769.5C 2414.53,1770.55 2409.03,1770.71 2403.5,1770C 2401.54,1767.04 2399.21,1764.37 2396.5,1762C 2423.54,1737.96 2450.87,1714.29 2478.5,1691C 2489.46,1683.02 2501.46,1677.52 2514.5,1674.5 Z M 2513.5,1726.5 C 2534.57,1731.4 2540.73,1743.73 2532,1763.5C 2524.05,1771.63 2515.71,1779.3 2507,1786.5C 2496.46,1774.96 2486.29,1763.13 2476.5,1751C 2484.5,1744.33 2492.5,1737.67 2500.5,1731C 2504.71,1728.76 2509.05,1727.26 2513.5,1726.5 Z" /></g>
<g><path style="opacity:0.983" fill="#003f8d" d="M 1427.5,1760.5 C 1450.28,1773.44 1472.95,1786.61 1495.5,1800C 1483.21,1865.14 1471.04,1930.3 1459,1995.5C 1455.32,2002.21 1451.15,2008.55 1446.5,2014.5C 1434.02,2007.17 1421.68,1999.67 1409.5,1992C 1413.12,1983.48 1416.12,1974.81 1418.5,1966C 1418.55,1959.31 1418.39,1952.48 1418,1945.5C 1396.21,1932.69 1374.38,1920.02 1352.5,1907.5C 1345.22,1910.81 1338.22,1914.64 1331.5,1919C 1326.27,1925.3 1320.94,1931.47 1315.5,1937.5C 1303.63,1930.47 1291.63,1923.63 1279.5,1917C 1278.98,1916.44 1278.64,1915.77 1278.5,1915C 1282.5,1906.67 1287.5,1899 1293.5,1892C 1337.98,1855.69 1382.31,1819.19 1426.5,1782.5C 1424.56,1778.95 1422.89,1775.29 1421.5,1771.5C 1423.53,1767.82 1425.53,1764.15 1427.5,1760.5 Z M 1440.5,1831.5 C 1437.02,1855.1 1432.52,1878.77 1427,1902.5C 1413.5,1894.33 1400,1886.17 1386.5,1878C 1404.76,1862.72 1422.76,1847.22 1440.5,1831.5 Z" /></g>
<g><path style="opacity:0.985" fill="#003f8d" d="M 2312.5,1805.5 C 2364.1,1803.04 2400.94,1825.04 2423,1871.5C 2443.59,1929.35 2428.42,1975.18 2377.5,2009C 2343.69,2029.31 2308.36,2032.64 2271.5,2019C 2229.66,1998.02 2207.66,1964.02 2205.5,1917C 2208.54,1869.26 2231.87,1835.59 2275.5,1816C 2287.52,1810.93 2299.85,1807.43 2312.5,1805.5 Z M 2312.5,1853.5 C 2337.74,1852.92 2356.58,1863.59 2369,1885.5C 2383.26,1909.52 2382.92,1933.18 2368,1956.5C 2345.73,1980.75 2319.9,1985.59 2290.5,1971C 2264.72,1951.35 2254.89,1925.52 2261,1893.5C 2265.85,1879.65 2274.68,1869.15 2287.5,1862C 2295.58,1858.03 2303.91,1855.2 2312.5,1853.5 Z" /></g>
<g><path style="opacity:0.985" fill="#003f8d" d="M 1567.5,1840.5 C 1603.57,1851.02 1639.57,1861.85 1675.5,1873C 1714,1890.17 1727.5,1919 1716,1959.5C 1705.44,1981.87 1687.94,1995.21 1663.5,1999.5C 1675.41,2032.39 1687.41,2065.22 1699.5,2098C 1678.42,2092.86 1657.59,2086.7 1637,2079.5C 1627.36,2050.62 1618.2,2021.62 1609.5,1992.5C 1604.79,1991.37 1600.12,1990.04 1595.5,1988.5C 1595.17,1988.83 1594.83,1989.17 1594.5,1989.5C 1587.37,2013.57 1580.03,2037.57 1572.5,2061.5C 1555.3,2056.62 1538.3,2051.29 1521.5,2045.5C 1539.4,1986.41 1557.06,1927.24 1574.5,1868C 1571.95,1863.08 1568.79,1858.58 1565,1854.5C 1565.08,1849.74 1565.91,1845.07 1567.5,1840.5 Z M 1620.5,1902.5 C 1629.8,1905.33 1639.13,1908.16 1648.5,1911C 1664.57,1918.86 1668.4,1930.7 1660,1946.5C 1653.75,1953.69 1645.92,1956.52 1636.5,1955C 1626.78,1952.65 1617.11,1950.15 1607.5,1947.5C 1611.37,1932.35 1615.7,1917.35 1620.5,1902.5 Z" /></g>
<g><path style="opacity:0.982" fill="#003f8d" d="M 2143.5,1876.5 C 2144.83,1876.5 2146.17,1876.5 2147.5,1876.5C 2150.59,1890.78 2153.09,1905.11 2155,1919.5C 2139.92,1922.92 2124.76,1926.08 2109.5,1929C 2117.54,1968.85 2125.7,2008.68 2134,2048.5C 2149.03,2044.93 2164.2,2041.93 2179.5,2039.5C 2181.52,2053.62 2184.19,2067.62 2187.5,2081.5C 2139.48,2092.34 2091.15,2102.01 2042.5,2110.5C 2039.83,2096.17 2037.17,2081.83 2034.5,2067.5C 2048.83,2064.73 2063.17,2061.9 2077.5,2059C 2078.58,2058.33 2079.25,2057.33 2079.5,2056C 2071.87,2017.52 2064.37,1979.02 2057,1940.5C 2056.28,1939.94 2055.44,1939.61 2054.5,1939.5C 2040.21,1942.59 2025.88,1945.09 2011.5,1947C 2008.44,1933.21 2005.44,1919.38 2002.5,1905.5C 2049.52,1895.5 2096.52,1885.83 2143.5,1876.5 Z" /></g>
<g><path style="opacity:0.984" fill="#003f8d" d="M 1779.5,1900.5 C 1816.81,1901.87 1854.14,1903.37 1891.5,1905C 1918.21,1908.07 1937.37,1921.57 1949,1945.5C 1958.9,1977.76 1950.4,2003.92 1923.5,2024C 1919.78,2026.53 1915.78,2028.53 1911.5,2030C 1931.11,2059.28 1951.11,2088.28 1971.5,2117C 1950.01,2117.55 1928.35,2116.88 1906.5,2115C 1890.21,2089.58 1874.04,2064.08 1858,2038.5C 1852.93,2037.53 1847.76,2037.2 1842.5,2037.5C 1841.57,2062.83 1840.9,2088.16 1840.5,2113.5C 1822.7,2113.16 1804.7,2112.5 1786.5,2111.5C 1788.85,2049.17 1790.68,1986.84 1792,1924.5C 1787.98,1920.98 1783.81,1917.64 1779.5,1914.5C 1778.66,1909.87 1778.66,1905.2 1779.5,1900.5 Z M 1845.5,1947.5 C 1853.21,1947.57 1860.71,1947.57 1868,1947.5C 1891.56,1948.32 1900.22,1959.99 1894,1982.5C 1887.27,1991.31 1878.27,1995.31 1867,1994.5C 1859.72,1994.11 1852.22,1993.78 1844.5,1993.5C 1844.78,1978.17 1845.11,1962.83 1845.5,1947.5 Z" /></g>
</svg>