<svg xmlns="http://www.w3.org/2000/svg" version="1.1" width="800px" height="800px" viewBox="0 0 800.0 1061.0">
<path d="M0 0 C31.25969198 97.9869421 31.25969198 97.9869421 30 136 C30.99 135.67 31.98 135.34 33 135 C34.56209611 134.79686932 36.12979676 134.6353549 37.69921875 134.5 C38.64901611 134.4179834 39.59881348 134.3359668 40.57739258 134.25146484 C42.11689575 134.12698975 42.11689575 134.12698975 43.6875 134 C44.75315186 133.91314941 45.81880371 133.82629883 46.91674805 133.73681641 C105.83023929 129.12615774 181.16657937 127.46851141 229.16015625 167.59765625 C243.13909402 179.70068855 253.26479493 196.31365805 255 215 C256.56201797 245.55714397 251.30640948 272.7362589 230.625 296.1875 C229.09595044 297.80369746 227.55384658 299.4076283 226 301 C224.75283203 302.32257813 224.75283203 302.32257813 223.48046875 303.671875 C204.83092292 323.00405428 181.91882127 335.54803331 157 345 C158.10903687 345.10489746 158.10903687 345.10489746 159.24047852 345.21191406 C206.41255489 349.77683534 206.41255489 349.77683534 222 367 C229.38411255 376.12442102 232.12148082 386.0338147 232.1328125 397.68359375 C232.13413177 398.34801987 232.13545105 399.01244598 232.1368103 399.69700623 C232.13875738 401.94388155 232.13227273 404.19063667 232.125 406.4375 C232.12411377 407.22070618 232.12322754 408.00391235 232.12231445 408.81085205 C232.08655314 436.54168816 231.49277463 464.27429701 231 492 C231.69611893 491.97036163 232.39223785 491.94072327 233.10945129 491.91018677 C236.32940133 491.77417455 239.54946242 491.64098137 242.76953125 491.5078125 C243.8639856 491.46116455 244.95843994 491.4145166 246.08605957 491.36645508 C316.30391168 488.48665401 427.08938677 488.02544883 483.68359375 536.69140625 C489.55021123 542.5382375 493.10919519 548.33060216 493.3125 556.6875 C493.1864564 566.20952138 489.45127493 571.01006988 482.8046875 577.53125 C481 579 481 579 479 579 C478.76796875 579.58265625 478.5359375 580.1653125 478.296875 580.765625 C465.08513061 603.52802798 417.10681623 612.99435075 393.8984375 619.21484375 C348.3015948 631.26117896 301.42084789 638.48099406 254.5625 643.4375 C253.77331177 643.52149048 252.98412354 643.60548096 252.17102051 643.6920166 C239.3409671 645.03880281 239.3409671 645.03880281 233.26573181 645.01600647 C232.46424178 645.01369554 231.66275175 645.0113846 230.83697414 645.00900364 C230.23077268 645.00603244 229.62457121 645.00306124 229 645 C228.97919876 646.16512619 228.95839752 647.33025238 228.93696594 648.53068542 C228.20891785 688.97924193 227.27153361 729.42220216 226.31610489 769.86588669 C226.18598469 775.37470588 226.05625681 780.88353427 225.92660522 786.3923645 C225.49596221 804.6879378 225.06431341 822.98348699 224.63142598 841.27900732 C224.60835814 842.25395639 224.5852903 843.22890546 224.56152344 844.23339844 C224.53842633 845.20957394 224.51532923 846.18574945 224.49153221 847.19150603 C224.11515042 863.10169536 223.74131693 879.01194348 223.36857402 894.92221844 C222.98293662 911.38150913 222.59531575 927.84075212 222.2056818 944.29994869 C221.98810431 953.49279354 221.77132856 962.68565559 221.55673218 971.87857056 C221.37470445 979.67577797 221.19083127 987.47293923 221.00462985 995.27004814 C220.91001267 999.23427932 220.81620513 1003.19852484 220.72475052 1007.16283035 C220.53650076 1015.29682955 220.32602482 1023.42952706 220.08685684 1031.56223679 C220.00537297 1034.78733971 219.96529872 1038.01017858 219.93685913 1041.2361145 C219.89972097 1043.04227363 219.86183424 1044.8484176 219.82299805 1046.65454102 C219.82879537 1047.43433539 219.83459269 1048.21412977 219.84056568 1049.01755428 C219.71436739 1053.20895142 218.91717045 1055.5538635 216.07356262 1058.52159119 C213 1061 213 1061 211 1061 C210.9699994 1059.87468431 210.9399988 1058.74936863 210.90908909 1057.58995247 C210.17614535 1030.10003646 209.44143144 1002.61016819 208.7049036 975.12034798 C208.3487523 961.826022 207.99315832 948.53168171 207.63891602 935.23730469 C207.32984955 923.63838898 207.01969701 912.03950288 206.70828623 900.44064987 C206.5437161 894.30967774 206.37965858 888.17869293 206.21690559 882.04767227 C205.89806086 870.04808034 205.5733825 858.04873026 205.2265417 846.0499109 C205.0849085 841.1220357 204.95419226 836.19422575 204.84270746 831.26557696 C204.77167028 828.23260057 204.68430896 825.20009452 204.59936523 822.16748047 C204.58220742 821.1732564 204.56504961 820.17903233 204.54737186 819.15468025 C204.38598024 814.06940206 203.89505584 810.36797711 201 806 C200.01 805.34 199.02 804.68 198 804 C197.95969193 804.92360762 197.91938387 805.84721523 197.87785435 806.79881096 C196.89604427 829.29278021 195.91100602 851.78660634 194.92260075 874.28028679 C194.44468621 885.15814621 193.96781308 896.0360494 193.4934082 906.9140625 C193.07981921 916.39751773 192.6642593 925.88088421 192.24635214 935.36415017 C192.02523076 940.38345114 191.80508321 945.40279049 191.58729744 950.4222374 C191.38206291 955.15168781 191.1741829 959.88101472 190.96431923 964.61026192 C190.88796962 966.34113025 190.8125665 968.07204064 190.73820877 969.80299568 C189.69635471 994.02142959 189.69635471 994.02142959 187.37109375 997.2890625 C186.73300781 997.72992187 186.09492188 998.17078125 185.4375 998.625 C184.79683594 999.09164062 184.15617187 999.55828125 183.49609375 1000.0390625 C182.75552734 1000.51472656 182.75552734 1000.51472656 182 1001 C180.38989721 997.77979442 180.70923864 994.24023842 180.59622192 990.69578552 C180.5491127 989.39192708 180.5491127 989.39192708 180.50105178 988.06172806 C180.39625318 985.13170169 180.29804213 982.20149013 180.19970703 979.27124023 C180.12604338 977.17718504 180.05193624 975.08314541 179.97741699 972.98912048 C179.81731523 968.47006144 179.65990247 963.9509193 179.50439835 959.43169975 C179.25794273 952.28358127 179.00265828 945.13579552 178.74557495 937.98805237 C178.01553511 917.65901346 177.29333846 897.32971484 176.58935547 876.99975586 C176.20072915 865.77897554 175.80256981 854.55857537 175.39385879 843.33850819 C175.13566791 836.2362272 174.88916514 829.13366733 174.65122628 822.03068054 C174.50009301 817.6038908 174.33775165 813.1775646 174.17224121 808.75129128 C174.09785482 806.70244951 174.02802643 804.65343625 173.96316147 802.60427094 C173.87372252 799.79993972 173.76772223 796.99669033 173.65774536 794.19309998 C173.63603842 793.38801685 173.61433148 792.58293373 173.59196675 791.75345415 C173.34559544 786.10182202 172.02823136 781.27156628 170 776 C168.32599925 777.67400075 168.73913744 779.768708 168.62072754 782.0728302 C168.56189896 783.17279831 168.50307037 784.27276642 168.44245911 785.40606689 C168.38217026 786.62404968 168.32188141 787.84203247 168.25976562 789.09692383 C168.1929509 790.37192245 168.12613617 791.64692108 168.05729675 792.96055603 C167.8732977 796.47391488 167.69516416 799.98755005 167.51803398 803.501261 C167.33101186 807.19166293 167.13866851 810.88178743 166.94689941 814.57194519 C166.58308088 821.58858804 166.22411542 828.60547062 165.86684465 835.62244958 C165.46421461 843.52560284 165.05613141 851.42847135 164.64759922 859.33132136 C164.07711669 870.36986615 163.50800157 881.40848155 162.94475555 892.44739819 C162.81091231 895.06928106 162.67541221 897.69106161 162.53907013 900.31281757 C162.24782852 905.9433854 161.96974073 911.57305935 161.74926758 917.20687866 C161.69127865 918.60128819 161.69127865 918.60128819 161.63211823 920.02386761 C161.56388517 921.69603174 161.50253434 923.36850007 161.45009613 925.04123402 C161.24911634 929.82959576 160.90341438 934.00289423 157.4921875 937.58203125 C155.99479167 938.72135417 154.49739583 939.86067708 153 941 C152.19347125 934.46150362 151.77204959 928.0015442 151.57603455 921.41860962 C151.52575028 919.87369152 151.52575028 919.87369152 151.47445017 918.29756296 C151.36359928 914.86465307 151.25784288 911.43160588 151.15209961 907.99853516 C151.07343025 905.52872289 150.99445819 903.05892025 150.91520691 900.58912659 C150.72337185 894.58356555 150.53490133 888.57790771 150.34812134 882.57218803 C150.19586272 877.6784307 150.04224151 872.78471788 149.8876667 867.89103317 C149.8545656 866.84297989 149.8545656 866.84297989 149.82079579 865.77375381 C149.77594364 864.35376729 149.73108917 862.93378084 149.6862324 861.51379447 C149.26593836 848.20343781 148.85013415 834.89294375 148.43580569 821.58240025 C148.08194935 810.21822544 147.72398862 798.85418596 147.36303711 787.49023438 C146.94258023 774.25284567 146.52497853 761.01537147 146.11159331 747.77775991 C146.06723914 746.35772334 146.02288057 744.9376869 145.97851753 743.5176506 C145.95669964 742.8192566 145.93488174 742.1208626 145.9124027 741.40130515 C145.76020395 736.53568012 145.60602126 731.67012041 145.45100212 726.8045845 C145.24095667 720.2103904 145.03551055 713.61606302 144.83291817 707.02163506 C144.75859113 704.62376208 144.68287886 702.2259315 144.60554504 699.82815361 C144.07091949 683.21404322 143.90802458 666.62252322 144 650 C143.3310134 650.07071429 142.66202681 650.14142858 141.97276789 650.21428573 C141.08577831 650.3059524 140.19878874 650.39761907 139.28492069 650.49206352 C137.9720658 650.62907246 137.9720658 650.62907246 136.63268858 650.76884925 C132.66737743 651.11700461 128.72389643 651.13956856 124.74584961 651.12939453 C123.88102463 651.13114685 123.01619965 651.13289917 122.12516785 651.13470459 C119.300872 651.13906239 116.4766401 651.13620696 113.65234375 651.1328125 C111.67037443 651.13348722 109.68840519 651.13445865 107.70643616 651.13571167 C103.56689663 651.13718037 99.42737879 651.13506056 95.2878418 651.13037109 C90.00010677 651.12467058 84.71242247 651.12796014 79.42468929 651.13394356 C75.33675255 651.13756837 71.2488277 651.13640183 67.16089058 651.13381577 C65.21177731 651.133152 63.26266293 651.13395553 61.31355095 651.13629532 C58.58392373 651.13885389 55.85437712 651.13493655 53.12475586 651.12939453 C52.33125732 651.13141876 51.53775879 651.13344299 50.72021484 651.13552856 C46.84970637 651.12107645 43.06947374 650.94025073 39.22301579 650.49206352 C38.42769288 650.40039685 37.63236998 650.30873018 36.81294638 650.21428573 C36.21467407 650.14357144 35.61640177 650.07285715 35 650 C34.97805321 651.06910645 34.95610641 652.13821291 34.93349457 653.23971653 C34.32660095 682.49455547 33.48483442 711.73761547 32.51803398 740.98259616 C32.32622821 746.79678681 32.13674707 752.61105337 31.94689941 758.42530823 C31.62905179 768.14906798 31.30947564 777.87276968 30.98876953 787.59643555 C30.62010689 798.77469865 30.25414782 809.95304783 29.88961458 821.1314463 C29.53494835 832.00565366 29.17849847 842.87980184 28.82121277 853.75392342 C28.67076777 858.33346866 28.52090526 862.91303238 28.37153625 867.49261284 C28.19567515 872.88170293 28.0182263 878.27073861 27.8396244 883.65973854 C27.77500617 885.61664475 27.71089516 887.57356779 27.64737511 889.53050995 C27.61772982 890.44286659 27.58808453 891.35522324 27.55754089 892.29522705 C27.52859489 893.18797809 27.4996489 894.08072912 27.46982574 895.00053322 C27.38086847 897.59983438 27.27760466 900.19830883 27.1738739 902.7970562 C27.03379423 906.44850395 26.9848268 910.09060995 26.97761536 913.74464607 C26.94893441 915.62831414 26.92014444 917.51198056 26.89123535 919.39564514 C26.90506681 920.25650772 26.91889827 921.11737029 26.93314886 922.00431961 C26.81867948 926.97602359 26.0418973 929.49599241 22.50679779 933.10027218 C19.26189438 936 19.26189438 936 18 936 C17.57482073 921.42188054 17.15122964 906.84371531 16.72872162 892.26551819 C16.65977201 889.88700764 16.59078723 887.50849811 16.52176666 885.12998962 C15.78635108 859.78654584 15.05255018 834.44314265 14.390625 809.09765625 C14.35657373 807.7974759 14.35657373 807.7974759 14.32183456 806.47102928 C14.13128256 799.19124162 13.94119635 791.91144383 13.75909424 784.63143921 C13.55699247 776.55428551 13.34531564 768.47765726 13.10192871 760.40161133 C13.03577399 758.19386584 12.97283915 755.98602063 12.91369629 753.77807617 C12.83474746 750.95027257 12.73741328 748.12382883 12.6328125 745.296875 C12.61362762 744.50774719 12.59444275 743.71861938 12.57467651 742.90557861 C12.38387041 738.47522365 11.64327251 735.58622529 9 732 C7.9714969 735.08550929 7.70911129 737.61133885 7.46887207 740.84965515 C7.33014427 742.68119896 7.33014427 742.68119896 7.18861389 744.54974365 C7.08986739 745.90514642 6.99119117 747.26055431 6.89257812 748.6159668 C6.78601646 750.04185969 6.67911001 751.46772685 6.57188416 752.89356995 C6.34157233 755.96597536 6.11369235 759.03854815 5.88768005 762.11127281 C5.52996587 766.97411796 5.16678861 771.83654565 4.80285645 776.69892883 C4.22743074 784.39559808 3.65559027 792.09252875 3.08531427 799.78958112 C2.06527568 813.55685961 1.04117711 827.3238349 0.01278067 841.09049159 C-0.34777698 845.91935864 -0.70612967 850.74838274 -1.06269073 855.57754648 C-1.28549601 858.59025832 -1.50993463 861.60284698 -1.73476982 864.61540794 C-1.83826584 866.00685949 -1.94107425 867.39836239 -2.04312325 868.78992081 C-3.5651605 889.53168162 -3.5651605 889.53168162 -6.9375 892.5 C-10 895 -10 895 -12 895 C-12.03450492 893.56405692 -12.03450492 893.56405692 -12.06970692 892.09910488 C-12.63010318 868.8047705 -13.20671314 845.51088049 -13.80032063 822.21736813 C-14.08700963 810.95278483 -14.36843115 799.68811596 -14.63745117 788.4230957 C-14.87194547 778.60437549 -15.11632431 768.7859596 -15.37256974 758.96778208 C-15.50790143 753.76924735 -15.63828417 748.57069481 -15.75683022 743.37174797 C-15.8685946 738.47707155 -15.99358555 733.58291033 -16.12866974 728.6888237 C-16.17588969 726.89388577 -16.21830179 725.09881381 -16.25550652 723.30364037 C-16.30710636 720.84888927 -16.37613314 718.3952107 -16.44941711 715.94102478 C-16.46549144 714.88019862 -16.46549144 714.88019862 -16.4818905 713.79794163 C-16.65663399 708.82736124 -17.74167851 705.35337821 -20 701 C-20.66 700.67 -21.32 700.34 -22 700 C-22.07354454 701.7888839 -22.07354454 701.7888839 -22.14857483 703.61390686 C-22.80179029 718.72290311 -23.86493934 733.79131066 -24.99609375 748.87109375 C-25.19168232 751.49471337 -25.38724353 754.11833503 -25.58277893 756.74195862 C-25.98970472 762.19379652 -26.39965484 767.64540202 -26.81079102 773.09692383 C-27.28478039 779.38323769 -27.75072152 785.67011554 -28.21321815 791.95728439 C-28.66197609 798.05162756 -29.11920449 804.14530811 -29.57954597 810.2387867 C-29.77304007 812.81539178 -29.96399539 815.39218885 -30.15234184 817.96917534 C-30.41519064 821.55613026 -30.68771064 825.1422256 -30.96264648 828.72827148 C-31.07573906 830.31553291 -31.07573906 830.31553291 -31.19111633 831.93486023 C-32.13408639 843.92139157 -32.13408639 843.92139157 -35.5078125 847.6796875 C-37.00520833 848.78645833 -38.50260417 849.89322917 -40 851 C-41.48196464 848.03607071 -41.25504139 844.9794173 -41.34803772 841.72322083 C-41.38607133 840.58497102 -41.38607133 840.58497102 -41.42487329 839.42372626 C-41.50914532 836.86699901 -41.58669874 834.31011142 -41.66430664 831.75317383 C-41.72317167 829.92501063 -41.78244134 828.09686043 -41.84208679 826.26872253 C-42.00334253 821.28878359 -42.15872617 816.30867672 -42.31296849 811.32851624 C-42.47539429 806.11171013 -42.6427345 800.89506151 -42.80943298 795.6783905 C-43.08911996 786.90263561 -43.3651716 778.12677224 -43.63891602 769.35083008 C-43.95454261 759.23307161 -44.27503998 749.11547706 -44.5983935 738.99796277 C-44.90987028 729.25054785 -45.21859973 719.50304801 -45.52584648 709.75549889 C-45.65627906 705.6175264 -45.78751584 701.47958061 -45.91938972 697.34165382 C-46.07513647 692.44900446 -46.22841694 687.55628347 -46.37988472 682.66349983 C-46.43551055 680.87822201 -46.49191573 679.09296826 -46.54920578 677.30774307 C-46.88364614 666.86691095 -47.07510386 656.44668109 -47 646 C-48.16568449 645.89529546 -49.33136898 645.79059092 -50.53237724 645.68271351 C-213.20909784 631.04665084 -213.20909784 631.04665084 -279 595 C-279.9384375 594.48824219 -280.876875 593.97648438 -281.84375 593.44921875 C-292.32713029 587.44715997 -303.05861061 579.93069222 -307 568 C-307.88713383 560.52125547 -307.49612564 554.16404322 -303 548 C-300.17283913 544.48301187 -297.16416651 541.21553285 -294 538 C-292.96359375 536.94425781 -292.96359375 536.94425781 -291.90625 535.8671875 C-242.29868633 488.66596087 -137.06475157 490.83851248 -73.0625 490.8125 C-71.80308594 490.81161377 -70.54367188 490.81072754 -69.24609375 490.80981445 C-61.7829396 490.85605268 -54.43187961 491.33837977 -47 492 C-47.27634324 474.7836271 -47.55719941 457.5673297 -47.84136677 440.35108423 C-47.87488385 438.31954038 -47.9083438 436.28799559 -47.94179535 434.25645065 C-48.42922544 404.67497604 -48.92818651 375.09406856 -49.578125 345.515625 C-49.60133442 344.45706488 -49.62454384 343.39850475 -49.64845657 342.30786705 C-49.86633873 332.40265791 -50.0901337 322.49760745 -50.32526779 312.59279251 C-50.97009179 285.33655036 -51.5041297 258.07083786 -50.625 230.8125 C-50.60421387 230.13248932 -50.58342773 229.45247864 -50.56201172 228.75186157 C-49.41167453 191.65721511 -49.41167453 191.65721511 -47 180 C-58.5837293 180.2546725 -70.16699931 180.52662278 -81.75 180.8125 C-83.03944645 180.84427967 -83.03944645 180.84427967 -84.35494232 180.87670135 C-109.43136915 181.49922395 -134.44870252 182.4114246 -159.48339844 184.03442383 C-160.47497955 184.09844894 -161.46656067 184.16247406 -162.4881897 184.22843933 C-164.28563291 184.34624747 -166.08285112 184.46758395 -167.87973022 184.59370422 C-173.59399217 184.9781245 -179.27353965 185.06385965 -185 185 C-179.08462194 177.16212407 -172.14938678 175.19416736 -162.9453125 172.65234375 C-162.18389954 172.43968369 -161.42248657 172.22702362 -160.63800049 172.00791931 C-158.13521288 171.31203402 -155.63049456 170.62357268 -153.125 169.9375 C-151.812966 169.57776093 -151.812966 169.57776093 -150.47442627 169.21075439 C-114.96537653 159.50724848 -79.17194537 151.78937928 -43 145 C-42.84031738 144.07405029 -42.68063477 143.14810059 -42.51611328 142.1940918 C-35.87006054 103.91369336 -27.34853264 66.17009201 -16 29 C-15.62568848 27.76459473 -15.25137695 26.52918945 -14.86572266 25.25634766 C-13.82941631 21.87138799 -12.7665794 18.49653866 -11.6875 15.125 C-11.23576416 13.67154175 -11.23576416 13.67154175 -10.77490234 12.1887207 C-6.73678506 -0 -6.73678506 -0 0 0 Z M36 186 C35.92222085 193.89711152 36.12561973 201.72464084 36.62109375 209.60546875 C36.75330531 211.83137723 36.88546492 214.0572888 37.01757812 216.28320312 C37.22443603 219.69744467 37.43283059 223.11158455 37.64282227 226.52563477 C39.51025015 257.08538421 40.1360436 287.64411948 40.53222656 318.25170898 C40.58389807 322.19582874 40.6387967 326.13990374 40.69335938 330.08398438 C40.79858925 337.72261764 40.90048028 345.36128997 41 353 C49.29496439 352.38458509 57.15188052 351.35024027 65.25 349.4375 C66.92848022 349.04268433 66.92848022 349.04268433 68.64086914 348.63989258 C98.98135986 341.27395611 135.52222385 329.37482107 152.9453125 301.36645508 C156.25227591 295.80535437 158.92686684 290.13810013 161 284 C161.31839844 283.07832031 161.63679688 282.15664063 161.96484375 281.20703125 C164.10406542 273.74440082 164.27674483 266.47546054 164.3125 258.75 C164.32083862 257.22294434 164.32083862 257.22294434 164.3293457 255.66503906 C164.20518766 242.65497446 161.07738824 232.07783213 152 222.375 C125.03687368 197.24823278 75.08731816 185.91048855 39.0625 185.875 C37.5465625 185.936875 37.5465625 185.936875 36 186 Z M40 369 C39.50358638 387.8537355 39.02611679 406.70793198 38.5625 425.5625 C38.54508869 426.26975676 38.52767737 426.97701352 38.50973845 427.7057023 C37.42996877 471.61527587 36.65051175 515.51539834 36.3125 559.4375 C36.30311024 560.6561034 36.29372047 561.8747068 36.28404617 563.13023758 C36.1728399 577.75339885 36.07738081 592.37662132 36 607 C39.06170666 608.02056889 41.24736775 608.16075858 44.45727539 608.22119141 C46.14555199 608.25595078 46.14555199 608.25595078 47.86793518 608.29141235 C49.09874313 608.3112619 50.32955109 608.33111145 51.59765625 608.3515625 C53.5393998 608.38629166 53.5393998 608.38629166 55.52037048 608.42172241 C58.29210014 608.47036554 61.06386246 608.51515296 63.83569336 608.55761719 C66.5838861 608.60013128 69.33185862 608.64834724 72.07983398 608.703125 C89.44243317 609.04388132 106.75151445 608.95917354 124.11108398 608.50537109 C126.05349888 608.45656047 127.99591984 608.4079905 129.93834686 608.35966492 C134.6256388 608.24253858 139.31283767 608.12219852 144 608 C144.26206548 586.01525692 144.52290141 564.03049955 144.78230286 542.04572487 C144.90279536 531.83614038 145.02367913 521.62656082 145.14550781 511.41699219 C145.25178319 502.51074689 145.35730018 493.60449298 145.46193409 484.69822824 C145.51728127 479.98936009 145.57298945 475.28049688 145.62960815 470.57164383 C145.68306643 466.12463485 145.73549816 461.67761487 145.78719711 457.2305851 C145.80617708 455.61268367 145.825508 453.99478631 145.84524918 452.376894 C145.89863273 447.9926623 145.94564577 443.60846199 145.98140335 439.22404909 C145.99435598 437.6749914 146.00890983 436.12594662 146.02470016 434.57691526 C146.04819265 432.13090217 146.06393648 429.68494532 146.07788086 427.23886108 C146.08609391 426.49528402 146.09430696 425.75170696 146.1027689 424.98559725 C146.13936093 414.52413145 143.19030581 407.54639714 136 400 C114.30845205 378.55263458 76.48045718 373.43097629 47.52685547 369.92114258 C46.79788559 369.83144447 46.06891571 369.74174637 45.31785583 369.64933014 C43.54541414 369.43144272 41.77273202 369.21551257 40 369 Z M-58.3269043 501.8828125 C-59.5938916 502.07752136 -60.86087891 502.27223022 -62.16625977 502.47283936 C-63.55227743 502.69002633 -64.93826285 502.90741921 -66.32421875 503.125 C-67.77243353 503.34988768 -69.22067632 503.57459504 -70.66894531 503.7991333 C-75.34288941 504.52585669 -80.01526974 505.26235089 -84.6875 506 C-85.47998264 506.12483261 -86.27246529 506.24966522 -87.08896255 506.37828064 C-156.39141326 513.31135664 -156.39141326 513.31135664 -219 539 C-221.5069837 542.76047554 -221.14939779 544.42220414 -220.5234375 548.734375 C-218.87986817 555.84833182 -212.67719606 560.87607236 -207 565 C-201.88553142 568.10357605 -196.46066352 570.57593754 -191 573 C-190.3395166 573.2976123 -189.6790332 573.59522461 -188.99853516 573.90185547 C-146.24106072 592.81726422 -94.30695373 598.85503125 -48 602 C-47.08351098 578.22978484 -46.90955086 554.47221607 -46.9375 530.6875 C-46.93878403 529.58705856 -46.93878403 529.58705856 -46.94009399 528.46438599 C-46.95156257 519.30956666 -46.97175062 510.15478399 -47 501 C-50.8760166 500.8983819 -54.49758235 501.28964313 -58.3269043 501.8828125 Z M231 502 C230.12120814 523.86731263 229.86776324 545.69478424 229.93133545 567.57794189 C229.94183187 571.59557536 229.9461875 575.61321596 229.95117188 579.63085938 C229.96168496 587.42059118 229.97859503 595.21028966 230 603 C247.29622924 601.40709737 264.5590296 599.76649502 281.75 597.25 C282.61889862 597.1243869 283.48779724 596.9987738 284.38302612 596.86935425 C321.18561473 591.51733091 361.14496641 585.41555635 394.125 567.375 C394.77025635 567.02711426 395.4155127 566.67922852 396.08032227 566.32080078 C400.91438239 563.51189953 403.88136809 560.16945707 405.75 554.875 C406.23140211 551.26448417 406.07929996 549.16520825 404.5 545.875 C375.27243349 512.26329851 299.09222787 510.8685079 257.6875 505.0625 C256.02405045 504.82901855 256.02405045 504.82901855 254.32699585 504.59082031 C251.1807972 504.15141413 248.03396623 503.71698023 244.88671875 503.28515625 C243.9438501 503.15428116 243.00098145 503.02340607 242.02954102 502.88856506 C241.15958496 502.77073166 240.28962891 502.65289825 239.39331055 502.53149414 C238.25976387 502.37663292 238.25976387 502.37663292 237.10331726 502.21864319 C234.68934819 501.93107036 234.68934819 501.93107036 231 502 Z " fill="#CB1040" transform="translate(307,0)" />
<path d="M0 0 C0.66 0.33 1.32 0.66 2 1 C1.20335937 1.74443359 1.20335937 1.74443359 0.390625 2.50390625 C-6.03774601 8.68593457 -10.15229862 12.82792378 -10.4375 22 C-10.07329799 31.15057555 -6.35600899 36.73105962 0 43 C22.55541442 63.44785084 55.60093967 72.12442898 84.41552734 79.34912109 C86.57866366 79.89388979 88.73746932 80.451338 90.89453125 81.01953125 C124.49180187 89.72444701 158.65514546 95.86432358 193.14257812 99.66894531 C196.99949398 100.1157992 200.84374828 100.64291736 204.69042969 101.16967773 C214.81203216 102.55404176 224.92188234 103.58892447 235.10961914 104.35375977 C236.05442139 104.42522217 236.99922363 104.49668457 237.97265625 104.5703125 C238.80031494 104.62977051 239.62797363 104.68922852 240.48071289 104.75048828 C243.34835749 105.03450154 246.16274132 105.50017205 249 106 C250.74196703 135.33898173 251.54640085 164.69331276 252.24315548 194.07193375 C252.32063064 197.32585312 252.40004716 200.57972409 252.47951698 203.83359528 C252.53302154 206.06713682 252.58307869 208.30073565 252.63285828 210.53436279 C252.81377854 218.23802325 253.13529734 225.9181175 253.61245823 233.60917377 C254.34832359 245.47955424 254.80809459 257.36297935 255.22711945 269.24826336 C255.37436235 273.40645873 255.53581078 277.56312516 255.72851562 281.71948242 C255.91685788 285.79076906 256.07005545 289.8619922 256.19871521 293.93558693 C256.25332168 295.47459683 256.32032316 297.01322162 256.40028381 298.55112267 C257.01049566 310.52638652 257.01049566 310.52638652 254.41967773 314.30459595 C252.67543933 315.81635167 251.06055204 316.97172865 249 318 C247.51803536 315.03607071 247.74495861 311.9794173 247.65196228 308.72322083 C247.62660654 307.96438762 247.6012508 307.20555441 247.57512671 306.42372626 C247.49085468 303.86699901 247.41330126 301.31011142 247.33569336 298.75317383 C247.27682833 296.92501063 247.21755866 295.09686043 247.15791321 293.26872253 C246.99665747 288.28878359 246.84127383 283.30867672 246.68703151 278.32851624 C246.52460571 273.11171013 246.3572655 267.89506151 246.19056702 262.6783905 C245.91088004 253.90263561 245.6348284 245.12677224 245.36108398 236.35083008 C245.04545739 226.23307161 244.72496002 216.11547706 244.4016065 205.99796277 C244.09012972 196.25054785 243.78140027 186.50304801 243.47415352 176.75549889 C243.34372094 172.6175264 243.21248416 168.47958061 243.08061028 164.34165382 C242.92486353 159.44900446 242.77158306 154.55628347 242.62011528 149.66349983 C242.56448945 147.87822201 242.50808427 146.09296826 242.45079422 144.30774307 C242.11635386 133.86691095 241.92489614 123.44668109 242 113 C240.83431551 112.89529546 239.66863102 112.79059092 238.46762276 112.68271351 C75.79090216 98.04665084 75.79090216 98.04665084 10 62 C8.59234375 61.23236328 8.59234375 61.23236328 7.15625 60.44921875 C-3.32713029 54.44715997 -14.05861061 46.93069222 -18 35 C-18.88572466 27.53313512 -18.50684265 21.14896352 -14 15 C-9.63785002 9.71821766 -4.92121805 4.76246908 0 0 Z " fill="#030001" transform="translate(18,533)" />
<path d="M0 0 C-0.05927673 0.79204834 -0.11855347 1.58409668 -0.17962646 2.40014648 C-2.25174161 31.27469779 -2.31639851 60.11090594 -2.25714111 89.04822159 C-2.24990949 93.05008534 -2.24666651 97.05193381 -2.24462891 101.05380249 C-2.21972846 142.08894181 -1.66562679 183.09924471 -0.71630859 224.12402344 C-0.62532397 228.07355304 -0.53497848 232.02309649 -0.4453125 235.97265625 C-0.42371944 236.92137981 -0.40212639 237.87010338 -0.379879 238.84757614 C0.22010753 265.57072701 0.13779085 292.26857413 0 319 C-25.74 319 -51.48 319 -78 319 C-78 318.67 -78 318.34 -78 318 C-63.3526146 317.31771346 -48.72458899 316.89399234 -34.0625 316.875 C-32.08443359 316.86823242 -32.08443359 316.86823242 -30.06640625 316.86132812 C-28.16375 316.86422852 -28.16375 316.86422852 -26.22265625 316.8671875 C-25.11672119 316.86831543 -24.01078613 316.86944336 -22.87133789 316.87060547 C-17.56292409 317.04803243 -12.28878418 317.5224843 -7 318 C-7.27634324 300.7836271 -7.55719941 283.5673297 -7.84136677 266.35108423 C-7.87488385 264.31954038 -7.9083438 262.28799559 -7.94179535 260.25645065 C-8.42922544 230.67497604 -8.92818651 201.09406856 -9.578125 171.515625 C-9.61293913 169.92778481 -9.61293913 169.92778481 -9.64845657 168.30786705 C-9.86633873 158.40265791 -10.0901337 148.49760745 -10.32526779 138.59279251 C-10.97009179 111.33655036 -11.5041297 84.07083786 -10.625 56.8125 C-10.5938208 55.79248398 -10.5938208 55.79248398 -10.56201172 54.75186157 C-9.41167453 17.65721511 -9.41167453 17.65721511 -7 6 C-18.5837293 6.2546725 -30.16699931 6.52662278 -41.75 6.8125 C-42.60963097 6.83368645 -43.46926193 6.85487289 -44.35494232 6.87670135 C-69.43136915 7.49922395 -94.44870252 8.4114246 -119.48339844 10.03442383 C-120.47497955 10.09844894 -121.46656067 10.16247406 -122.4881897 10.22843933 C-124.28563291 10.34624747 -126.08285112 10.46758395 -127.87973022 10.59370422 C-133.59399217 10.9781245 -139.27353965 11.06385965 -145 11 C-138.67664841 3.01116722 -138.67664841 3.01116722 -134 2 C-133.01 2.33 -132.02 2.66 -131 3 C-129.55745048 3.02770889 -128.113175 2.99227611 -126.67236328 2.91625977 C-125.80392792 2.8733934 -124.93549255 2.83052704 -124.04074097 2.78636169 C-123.10174957 2.7344014 -122.16275818 2.6824411 -121.1953125 2.62890625 C-120.21305695 2.5794838 -119.23080139 2.53006134 -118.21878052 2.47914124 C-115.14559324 2.32412021 -112.07281784 2.16215902 -109 2 C-72.63819911 0.14814508 -36.39866385 -0.25145586 0 0 Z " fill="#050001" transform="translate(267,174)" />
<path d="M0 0 C38.61 0 77.22 0 117 0 C117.97171312 28.55341643 118.90454033 57.10522859 119.6953125 85.6640625 C119.7252083 86.74279192 119.7551041 87.82152134 119.78590584 88.93293953 C119.94042014 94.5111637 120.09459851 100.08939713 120.24868774 105.66763306 C120.31161823 107.9450889 120.37455568 110.22254454 120.4375 112.5 C120.48444818 114.19902277 120.48444818 114.19902277 120.53234482 115.93236923 C121.54924086 152.68493102 122.71284666 189.42927546 124.0890398 226.17017555 C124.23526778 230.09413587 124.37631681 234.01814357 124.50508118 237.94271851 C124.5557094 239.47662641 124.60642456 241.01053144 124.65722656 242.54443359 C124.6947329 243.68256783 124.6947329 243.68256783 124.73299694 244.84369469 C124.90794505 249.92667189 125.1460107 255.00398051 125.41319466 260.08290768 C125.5974046 263.69007421 125.75288336 267.29817337 125.90378952 270.90686989 C125.98272087 272.63043331 126.07437109 274.35346755 126.17955399 276.07562828 C126.99046351 289.47221573 126.99046351 289.47221573 124.43585205 293.41268921 C122.49853516 295.0925293 122.49853516 295.0925293 119 297 C118.19347125 290.46150362 117.77204959 284.0015442 117.57603455 277.41860962 C117.5425117 276.38866422 117.50898886 275.35871882 117.47445017 274.29756296 C117.36359928 270.86465307 117.25784288 267.43160588 117.15209961 263.99853516 C117.07343025 261.52872289 116.99445819 259.05892025 116.91520691 256.58912659 C116.72337185 250.58356555 116.53490133 244.57790771 116.34812134 238.57218803 C116.19586272 233.6784307 116.04224151 228.78471788 115.8876667 223.89103317 C115.8655993 223.19233098 115.8435319 222.4936288 115.82079579 221.77375381 C115.77594364 220.35376729 115.73108917 218.93378084 115.6862324 217.51379447 C115.26593836 204.20343781 114.85013415 190.89294375 114.43580569 177.58240025 C114.08194935 166.21822544 113.72398862 154.85418596 113.36303711 143.49023438 C112.94258023 130.25284567 112.52497853 117.01537147 112.11159331 103.77775991 C112.06723914 102.35772334 112.02288057 100.9376869 111.97851753 99.5176506 C111.95669964 98.8192566 111.93488174 98.1208626 111.9124027 97.40130515 C111.76020395 92.53568012 111.60602126 87.67012041 111.45100212 82.8045845 C111.24095667 76.2103904 111.03551055 69.61606302 110.83291817 63.02163506 C110.75859113 60.62376208 110.68287886 58.2259315 110.60554504 55.82815361 C110.07091949 39.21404322 109.90802458 22.62252322 110 6 C109.3310134 6.07071429 108.66202681 6.14142858 107.97276789 6.21428573 C106.64228353 6.35178574 106.64228353 6.35178574 105.28492069 6.49206352 C103.9720658 6.62907246 103.9720658 6.62907246 102.63268858 6.76884925 C98.66737743 7.11700461 94.72389643 7.13956856 90.74584961 7.12939453 C89.44861214 7.13202301 89.44861214 7.13202301 88.12516785 7.13470459 C85.300872 7.13906239 82.4766401 7.13620696 79.65234375 7.1328125 C77.67037443 7.13348722 75.68840519 7.13445865 73.70643616 7.13571167 C69.56689663 7.13718037 65.42737879 7.13506056 61.2878418 7.13037109 C56.00010677 7.12467058 50.71242247 7.12796014 45.42468929 7.13394356 C41.33675255 7.13756837 37.2488277 7.13640183 33.16089058 7.13381577 C31.21177731 7.133152 29.26266293 7.13395553 27.31355095 7.13629532 C24.58392373 7.13885389 21.85437712 7.13493655 19.12475586 7.12939453 C17.93450806 7.13243088 17.93450806 7.13243088 16.72021484 7.13552856 C11.41268521 7.11571075 6.26736726 6.65935918 1 6 C1 10.29 1 14.58 1 19 C0.67 19 0.34 19 0 19 C0 12.73 0 6.46 0 0 Z " fill="#030001" transform="translate(341,644)" />
<path d="M0 0 C31.93887215 0.85741939 71.52591844 7.87739894 98 27 C98.66644531 27.47050781 99.33289063 27.94101562 100.01953125 28.42578125 C105.8283058 32.91840645 110.65366182 39.69296543 112 47 C112.09489928 49.73219145 112.13652727 52.43839233 112.12939453 55.17041016 C112.13112419 56.00062274 112.13285385 56.83083532 112.13463593 57.68620586 C112.13901568 60.47051122 112.13603004 63.25475626 112.1328125 66.0390625 C112.13382969 68.03175373 112.13517004 70.02444481 112.1368103 72.01713562 C112.13953175 77.4261188 112.13500373 82.83507366 112.12857056 88.24405289 C112.12500854 91.61691626 112.12338235 94.98977537 112.12231445 98.36264038 C112.10302485 147.57850354 111.61439475 196.78841307 111 246 C108.69 246 106.38 246 104 246 C103.97009411 236.15933603 103.95239685 226.318682 103.94070053 216.47798157 C103.93750698 213.94304304 103.93355843 211.40810637 103.92959595 208.87316895 C103.89872372 186.66761014 104.01054703 164.46696397 104.28185844 142.26295662 C104.32799959 138.46734745 104.37228088 134.67172081 104.41603088 130.87608337 C104.54696203 119.6012671 104.68385949 108.32675708 104.85495949 97.05247021 C104.92358903 92.32557155 104.97952028 87.59857958 105.03238678 82.87148094 C105.05994749 80.66049762 105.09302024 78.44957509 105.13201141 76.23876381 C105.18526827 73.18813714 105.21919142 70.1378493 105.2487793 67.08691406 C105.27898367 65.76751532 105.27898367 65.76751532 105.30979824 64.42146206 C105.36375742 53.92217293 102.39766482 45.50645401 95 38 C71.22120774 17.03711735 34.16977249 12.08917128 3.84936523 8.44067383 C1 8 1 8 0 7 C-0.04092937 4.66702567 -0.04241723 2.33294775 0 0 Z " fill="#020000" transform="translate(347,362)" />
<path d="M0 0 C3.88466585 1.61861077 4.44404764 3.26727661 6.16893148 6.95640945 C7.53436566 10.72474728 7.65104502 14.32026632 7.70880127 18.29833984 C7.75067979 19.61328792 7.75067979 19.61328792 7.79340434 20.95480061 C7.88180115 23.87331069 7.94333337 26.79174737 8.00488281 29.7109375 C8.06296449 31.81065846 8.12270989 33.91033396 8.18399048 36.00996399 C8.34526937 41.69697327 8.48330882 47.38433593 8.61715031 53.07204819 C8.76109904 59.02080931 8.92645913 64.96897446 9.08953857 70.91723633 C9.39494403 82.17534627 9.68111947 93.43385938 9.96037173 104.69264507 C10.33894041 119.91073569 10.74724552 135.12802663 11.15387726 150.34538841 C11.79354588 174.31301165 12.39350863 198.28146107 13 222.25 C13.99 186.61 14.98 150.97 16 114.25 C16.33 114.25 16.66 114.25 17 114.25 C17.13382041 141.10466891 16.81680672 167.92425901 16.13116455 194.77001953 C16.03849728 198.45430554 15.95144868 202.138716 15.86443424 205.82313919 C15.77812669 209.45771418 15.68910817 213.09221888 15.59924126 216.72670746 C15.5575693 218.41830679 15.51649679 220.10992103 15.4761219 221.80155182 C15.3820963 225.70166426 15.27602975 229.60062703 15.14358521 233.49963379 C15.02903155 236.88841964 14.98035634 240.27288195 14.95480347 243.66345215 C14.91793119 245.46152538 14.8802022 247.25958128 14.84155273 249.05761719 C14.84623849 249.88822285 14.85092424 250.71882851 14.85575199 251.57460403 C14.72493911 256.02937249 14.22118814 258.55096883 11.07240295 261.82452393 C8 264.25 8 264.25 6 264.25 C5.9699994 263.12468431 5.9399988 261.99936863 5.90908909 260.83995247 C5.17614535 233.35003646 4.44143144 205.86016819 3.7049036 178.37034798 C3.3487523 165.076022 2.99315832 151.78168171 2.63891602 138.48730469 C2.32984955 126.88838898 2.01969701 115.28950288 1.70828623 103.69064987 C1.5437161 97.55967774 1.37965858 91.42869293 1.21690559 85.29767227 C0.89806086 73.29808034 0.5733825 61.29873026 0.2265417 49.2999109 C0.0849085 44.3720357 -0.04580774 39.44422575 -0.15729254 34.51557696 C-0.22832972 31.48260057 -0.31569104 28.45009452 -0.40063477 25.41748047 C-0.41779258 24.4232564 -0.43495039 23.42903233 -0.45262814 22.40468025 C-0.61401976 17.31940206 -1.10494416 13.61797711 -4 9.25 C-4.99 8.59 -5.98 7.93 -7 7.25 C-7.33 7.91 -7.66 8.57 -8 9.25 C-7.65877813 6.17900316 -7.11774025 4.4157085 -5.3125 1.875 C-3 0.25 -3 0.25 0 0 Z " fill="#040001" transform="translate(512,796.75)" />
<path d="M0 0 C2.4375 0.0625 2.4375 0.0625 5 1 C8.85993932 6.1006341 9.13530757 10.81723694 9.34130859 17.06665039 C9.36595877 17.77736537 9.39060894 18.48808035 9.41600609 19.22033215 C9.49746083 21.59599065 9.57286976 23.97180378 9.6484375 26.34765625 C9.70564629 28.04296293 9.76329398 29.73825484 9.8213501 31.43353271 C9.94527381 35.07147165 10.06676736 38.70948018 10.18634033 42.3475647 C10.47204707 51.03077202 10.77064439 59.7135385 11.06978989 68.39629173 C11.1381158 70.37949345 11.20630371 72.36269993 11.27435684 74.34591103 C12.05638127 97.10635395 12.96475562 119.86123014 13.9061985 142.61556721 C14.0555329 146.22935263 14.20370403 149.84318517 14.3515625 153.45703125 C14.37998104 154.14841879 14.40839958 154.83980633 14.43767929 155.552145 C14.75395624 163.2801773 15.04119232 171.00818161 15.27246094 178.73925781 C15.2940521 179.45795894 15.31564327 180.17666006 15.33788872 180.91714001 C15.43911043 184.31858299 15.53587202 187.72003523 15.62661743 191.1217804 C15.89502452 200.5534001 16.45924826 209.94219397 17.28134155 219.34178162 C17.81167377 225.95953569 17.81167377 225.95953569 15.4375 229.00292969 C13.69286824 230.51277481 11.96984642 231.80339368 10 233 C8.38989721 229.77979442 8.70923864 226.24023842 8.59622192 222.69578552 C8.5491127 221.39192708 8.5491127 221.39192708 8.50105178 220.06172806 C8.39625318 217.13170169 8.29804213 214.20149013 8.19970703 211.27124023 C8.12604338 209.17718504 8.05193624 207.08314541 7.97741699 204.98912048 C7.81731523 200.47006144 7.65990247 195.9509193 7.50439835 191.43169975 C7.25794273 184.28358127 7.00265828 177.13579552 6.74557495 169.98805237 C6.01553511 149.65901346 5.29333846 129.32971484 4.58935547 108.99975586 C4.20072915 97.77897554 3.80256981 86.55857537 3.39385879 75.33850819 C3.13566791 68.2362272 2.88916514 61.13366733 2.65122628 54.03068054 C2.50009301 49.6038908 2.33775165 45.1775646 2.17224121 40.75129128 C2.09785482 38.70244951 2.02802643 36.65343625 1.96316147 34.60427094 C1.87372252 31.79993972 1.76772223 28.99669033 1.65774536 26.19309998 C1.63603842 25.38801685 1.61433148 24.58293373 1.59196675 23.75345415 C1.34559544 18.10182202 0.02823136 13.27156628 -2 8 C-3.6864274 9.6864274 -3.26753968 11.8456486 -3.38891602 14.16235352 C-3.44890274 15.26341934 -3.50888947 16.36448517 -3.57069397 17.49891663 C-3.63115402 18.6968132 -3.69161407 19.89470978 -3.75390625 21.12890625 C-3.81907944 22.34827377 -3.88425262 23.5676413 -3.95140076 24.82395935 C-4.15950481 28.73658781 -4.36106683 32.64952297 -4.5625 36.5625 C-4.70204471 39.20770497 -4.84201299 41.85288763 -4.98242188 44.49804688 C-5.3265385 50.99844658 -5.66527798 57.49911014 -6 64 C-6.33 64 -6.66 64 -7 64 C-7.24477603 51.40763305 -6.98033358 38.86111297 -6.30828857 26.28656006 C-6.22809332 24.76844246 -6.1524121 23.25007933 -6.08135986 21.73150635 C-5.97822794 19.57000101 -5.856892 17.41025387 -5.73046875 15.25 C-5.62835083 13.37054687 -5.62835083 13.37054687 -5.52416992 11.453125 C-4.81637854 6.79033908 -3.3456943 3.3456943 0 0 Z " fill="#090003" transform="translate(479,768)" />
<path d="M0 0 C0.03078161 9.7291526 0.05104073 19.45830731 0.0625 29.1875 C0.06378403 30.26993484 0.06378403 30.26993484 0.06509399 31.37423706 C0.09220671 57.26109599 -0.23748461 83.12314777 -1 109 C-3.31 109 -5.62 109 -8 109 C-8.15486281 84.86999194 -7.89382619 60.75128939 -7.5 36.625 C-7.48206327 35.52584259 -7.48206327 35.52584259 -7.46376419 34.40447998 C-7.31422799 25.26956649 -7.15951855 16.13474492 -7 7 C-91.22110267 17.69101843 -91.22110267 17.69101843 -172 42 C-173.30453581 42.55894791 -174.60922201 43.11754498 -175.9140625 43.67578125 C-176.93242187 44.11277344 -177.95078125 44.54976562 -179 45 C-176.31833415 38.21434829 -168.67498756 35.22011892 -162.39453125 32.35546875 C-148.86579918 26.71515426 -134.81083684 23.04099549 -120.5625 19.75 C-119.73673462 19.55846344 -118.91096924 19.36692688 -118.06018066 19.16958618 C-88.63021947 12.39060611 -58.72722007 7.60272359 -28.82958984 3.40576172 C-25.9311196 2.99012259 -23.03776184 2.54825327 -20.14453125 2.09765625 C-19.21979004 1.95432861 -18.29504883 1.81100098 -17.34228516 1.66333008 C-15.64744538 1.39945627 -13.9530558 1.1326632 -12.25927734 0.86206055 C-11.51758301 0.74773682 -10.77588867 0.63341309 -10.01171875 0.515625 C-9.37709717 0.41540039 -8.74247559 0.31517578 -8.08862305 0.21191406 C-5.38749733 -0.06214521 -2.71335683 -0.0125241 0 0 Z " fill="#040001" transform="translate(267,494)" />
<path d="M0 0 C40.03931271 -0.69103382 95.11512447 10.3969912 124.875 38.5 C134.06710645 48.24187358 136.55319405 58.98015114 136.375 72.125 C136.35759766 73.77423462 136.35759766 73.77423462 136.33984375 75.45678711 C135.94095405 95.44966663 130.34541261 112.76332134 117 128 C115.36473422 129.37166373 113.705023 130.7160794 112 132 C113.44258984 128.97353574 115.10524672 126.11000259 116.81787109 123.22949219 C124.83545068 109.63849122 128.36983242 96.74539363 128.25 80.9375 C128.25773438 79.91333984 128.26546875 78.88917969 128.2734375 77.83398438 C128.24094564 65.12154503 125.35184204 54.4296707 116.5 44.875 C87.50116675 18.11524804 40.27610589 12.3516731 2.73291016 8.29370117 C1 8 1 8 0 7 C-0.04092937 4.66702567 -0.04241723 2.33294775 0 0 Z " fill="#030000" transform="translate(342,178)" />
<path d="M0 0 C9.43862413 0.9904729 18.85878247 2.07468691 28.26171875 3.36328125 C29.68053093 3.55750168 29.68053093 3.55750168 31.12800598 3.75564575 C41.49766274 5.18847366 51.84492195 6.75941675 62.1875 8.375 C63.16412598 8.52751221 64.14075195 8.68002441 65.14697266 8.8371582 C127.25557494 18.56470684 127.25557494 18.56470684 154.1875 28.5625 C155.1364917 28.9140918 156.0854834 29.26568359 157.06323242 29.62792969 C166.85338048 33.4420684 177.0822422 38.1644844 182 48 C182.06009141 54.00914122 180.92359604 58.31348251 177 63 C174.25 65.375 174.25 65.375 172 67 C172.350625 65.989375 172.70125 64.97875 173.0625 63.9375 C174.3204445 59.37400791 174.3038971 55.63783792 172.15234375 51.28515625 C155.16668548 27.1993836 102.03931959 24.13670546 75.35775757 19.49707031 C56.89396254 16.32452654 38.35802771 13.68048637 19.79394531 11.16992188 C18.76582733 11.03065781 17.73770935 10.89139374 16.67843628 10.74790955 C14.75325172 10.48824256 12.82775036 10.23090959 10.90188599 9.97633362 C10.04787201 9.86176315 9.19385803 9.74719269 8.31396484 9.62915039 C7.57334808 9.53114639 6.83273132 9.4331424 6.06967163 9.33216858 C4.00647892 9.00103982 2.01839294 8.53735649 0 8 C0 5.36 0 2.72 0 0 Z " fill="#030000" transform="translate(538,494)" />
<path d="M0 0 C0.99 0.495 0.99 0.495 2 1 C-56.08965539 48.08928876 -150.6458737 55.84364239 -222.4375 63.4375 C-223.62128235 63.56348572 -223.62128235 63.56348572 -224.82897949 63.6920166 C-237.6590329 65.03880281 -237.6590329 65.03880281 -243.73426819 65.01600647 C-244.53575822 65.01369554 -245.33724825 65.0113846 -246.16302586 65.00900364 C-246.76922732 65.00603244 -247.37542879 65.00306124 -248 65 C-248.01949203 66.11570374 -248.03898407 67.23140747 -248.05906677 68.38092041 C-248.81063553 110.9297487 -249.83501425 153.47186994 -250.85355508 196.01496172 C-251.08911987 205.85624005 -251.32327731 215.69755175 -251.55735409 225.53886557 C-252.03674294 245.69261278 -252.51778099 265.84632032 -253 286 C-253.33 286 -253.66 286 -254 286 C-254.25900822 250.27401757 -253.56970551 214.58411907 -252.72039545 178.8714515 C-252.56110176 172.16148793 -252.40798968 165.45139022 -252.25558567 158.7412672 C-252.10616679 152.16274401 -251.95447975 145.58427335 -251.80220294 139.00581574 C-251.77046416 137.63376076 -251.73878835 136.26170432 -251.70718122 134.88964629 C-251.36687933 120.12179346 -251.00202421 105.35453579 -250.57669246 90.58886778 C-250.53669448 89.1887199 -250.49764204 87.7885446 -250.45966828 86.38834035 C-250.20969578 77.23197297 -249.72702999 68.1302936 -249 59 C-247.69780518 58.86948242 -246.39561035 58.73896484 -245.05395508 58.60449219 C-220.63758284 56.14873998 -196.27193159 53.64433284 -172 50 C-170.50510627 49.78213518 -169.01014699 49.5647199 -167.51513672 49.34765625 C-155.17550454 47.54411582 -142.89367201 45.48434561 -130.625 43.25 C-129.67288635 43.07670166 -128.72077271 42.90340332 -127.73980713 42.72485352 C-102.02851697 38.02150988 -76.82827253 32.27474798 -52 24 C-50.57034912 23.52675293 -50.57034912 23.52675293 -49.11181641 23.04394531 C-38.29612662 19.41804966 -27.87151684 15.20038883 -17.5625 10.3125 C-16.60899658 9.86092529 -15.65549316 9.40935059 -14.6730957 8.9440918 C-9.38672052 6.36870247 -4.67526996 3.56915382 0 0 Z " fill="#0D0104" transform="translate(784,580)" />
<path d="M0 0 C2.5625 0.625 2.5625 0.625 4.8125 2.875 C10.2189664 12.28628752 7.85928557 28.22051412 8.0625 38.8671875 C8.10313484 40.84083836 8.1441585 42.81448125 8.18554688 44.78811646 C8.29352838 49.97469113 8.39738468 55.16133914 8.5 60.34802246 C8.68271901 69.56284174 8.87138169 78.77753898 9.0625 87.9921875 C9.08295883 88.98512377 9.10341766 89.97806004 9.12449646 91.00108528 C9.39837981 104.20432013 9.75019601 117.40030666 10.22155762 130.59803772 C10.66913034 143.22346725 10.89803233 155.85149409 11.11474609 168.48266602 C11.16730252 171.49501695 11.22362299 174.50727339 11.28125 177.51953125 C11.3060997 178.94932564 11.3060997 178.94932564 11.33145142 180.40800476 C11.42249673 184.84975006 11.58096365 189.2635012 11.93505859 193.69262695 C11.99576538 194.47333054 12.05647217 195.25403412 12.11901855 196.05839539 C12.23850545 197.49393699 12.37388938 198.92828994 12.52893066 200.36042786 C12.80751917 203.65465301 12.70473015 205.38203845 11.01367188 208.27075195 C9.29359808 210.07613956 7.73337743 211.40706642 5.5625 212.625 C5.2325 212.625 4.9025 212.625 4.5625 212.625 C4.13732073 198.04688054 3.71372964 183.46871531 3.29122162 168.89051819 C3.22227201 166.51200764 3.15328723 164.13349811 3.08426666 161.75498962 C2.34885108 136.41154584 1.61505018 111.06814265 0.953125 85.72265625 C0.93042416 84.85586935 0.90772331 83.98908245 0.88433456 83.09602928 C0.69378256 75.81624162 0.50369635 68.53644383 0.32159424 61.25643921 C0.11949247 53.17928551 -0.09218436 45.10265726 -0.33557129 37.02661133 C-0.40172601 34.81886584 -0.46466085 32.61102063 -0.52380371 30.40307617 C-0.60275254 27.57527257 -0.70008672 24.74882883 -0.8046875 21.921875 C-0.82387238 21.13274719 -0.84305725 20.34361938 -0.86282349 19.53057861 C-1.05492765 15.0700838 -1.83295956 12.25272278 -4.4375 8.625 C-5.3125 6.5625 -5.3125 6.5625 -5.4375 4.625 C-3.99258171 1.73516342 -3.15245039 0.80832061 0 0 Z " fill="#030001" transform="translate(320.4375,723.375)" />
<path d="M0 0 C3.00300776 1.12612791 3.89127243 2.20266313 5.5 4.9375 C6.39479843 7.6218953 6.6412321 9.25108845 6.68945312 12.01220703 C6.71452942 13.24222946 6.71452942 13.24222946 6.7401123 14.49710083 C6.75368774 15.38751068 6.76726318 16.27792053 6.78125 17.1953125 C6.80886414 18.59824051 6.80886414 18.59824051 6.83703613 20.0295105 C6.89577751 23.04044262 6.94835146 26.0514385 7 29.0625 C7.21164097 40.92230639 7.46114274 52.7735389 7.96484375 64.625 C9.19326286 93.66161809 9.80868756 122.7277312 10.4521637 151.78224945 C10.49741995 153.82125661 10.54354457 155.86024444 10.58972168 157.89923096 C10.73191996 164.32392022 10.84934404 170.74762277 10.90841675 177.17364502 C10.92762456 178.957734 10.95523347 180.74175466 10.99172974 182.52557373 C11.03842846 184.92254452 11.05353921 187.31747661 11.05859375 189.71484375 C11.07204834 191.00640381 11.08550293 192.29796387 11.09936523 193.62866211 C10.33917239 197.82536012 8.80005566 199.32737963 5.5 201.9375 C4.84 201.9375 4.18 201.9375 3.5 201.9375 C3.47699672 200.98020461 3.45399343 200.02290922 3.43029308 199.03660488 C2.86989682 175.7422705 2.29328686 152.44838049 1.69967937 129.15486813 C1.41299037 117.89028483 1.13156885 106.62561596 0.86254883 95.3605957 C0.62805453 85.54187549 0.38367569 75.7234596 0.12743026 65.90528208 C-0.00790143 60.70674735 -0.13828417 55.50819481 -0.25683022 50.30924797 C-0.3685946 45.41457155 -0.49358555 40.52041033 -0.62866974 35.6263237 C-0.67588969 33.83138577 -0.71830179 32.03631381 -0.75550652 30.24114037 C-0.80710636 27.78638927 -0.87613314 25.3327107 -0.94941711 22.87852478 C-0.96013333 22.17130734 -0.97084955 21.4640899 -0.9818905 20.73544163 C-1.15663399 15.76486124 -2.24167851 12.29087821 -4.5 7.9375 C-5.16 7.6075 -5.82 7.2775 -6.5 6.9375 C-6.10000283 4.61751641 -5.59432121 3.07426576 -4.25 1.125 C-2.5 -0.0625 -2.5 -0.0625 0 0 Z " fill="#050001" transform="translate(291.5,693.0625)" />
<path d="M0 0 C0.53394179 1.4117783 1.05165104 2.82970244 1.5625 4.25 C1.85253906 5.03890625 2.14257812 5.8278125 2.44140625 6.640625 C3 9 3 9 2 13 C1.34 10.03 0.68 7.06 0 4 C-0.99 4 -1.98 4 -3 4 C-3.09796875 4.5681543 -3.1959375 5.13630859 -3.296875 5.72167969 C-4.65806723 13.082092 -6.77720963 20.11004077 -9 27.25 C-18.56085848 58.48160913 -27.46831214 90.48301855 -32.3984375 122.80859375 C-32.50937241 123.53076584 -32.62030731 124.25293793 -32.73460388 124.99699402 C-33.26336689 128.47162763 -33.76627839 131.94718694 -34.2277832 135.43139648 C-34.40398193 136.65802002 -34.58018066 137.88464355 -34.76171875 139.1484375 C-34.90569092 140.23302246 -35.04966309 141.31760742 -35.19799805 142.43505859 C-36 145 -36 145 -37.87524414 146.33984375 C-40.83267215 147.25870912 -43.66273596 147.43976416 -46.75 147.625 C-48.50570313 147.73714844 -48.50570313 147.73714844 -50.296875 147.8515625 C-51.18890625 147.90054688 -52.0809375 147.94953125 -53 148 C-53 147.67 -53 147.34 -53 147 C-48.05 146.01 -48.05 146.01 -43 145 C-42.84031738 144.07405029 -42.68063477 143.14810059 -42.51611328 142.1940918 C-35.87006054 103.91369336 -27.34853264 66.17009201 -16 29 C-15.62568848 27.76459473 -15.25137695 26.52918945 -14.86572266 25.25634766 C-13.82941631 21.87138799 -12.7665794 18.49653866 -11.6875 15.125 C-11.38634277 14.15602783 -11.08518555 13.18705566 -10.77490234 12.1887207 C-6.73678506 0 -6.73678506 0 0 0 Z " fill="#060002" transform="translate(307,0)" />
<path d="M0 0 C0.99 0.495 0.99 0.495 2 1 C-12.88876307 15.79081068 -33.65590012 24.6625828 -53 32 C-49.04 32.33 -45.08 32.66 -41 33 C-41 33.33 -41 33.66 -41 34 C-54.2 34.33 -67.4 34.66 -81 35 C-81 34.67 -81 34.34 -81 34 C-80.4330542 33.88519287 -79.8661084 33.77038574 -79.28198242 33.65209961 C-65.68765612 30.85226201 -52.83249339 27.29854278 -40 22 C-39.22640137 21.6812793 -38.45280273 21.36255859 -37.65576172 21.03417969 C-24.31748082 15.46800713 -11.24626164 9.2205375 0 0 Z " fill="#110105" transform="translate(517,313)" />
<path d="M0 0 C0.33 0 0.66 0 1 0 C1.13452702 26.95162622 0.81505316 53.86866141 0.13116455 80.8114624 C0.03821487 84.53548104 -0.04866126 88.25963226 -0.13556576 91.98379612 C-0.22148249 95.63962393 -0.31062087 99.29536772 -0.40075874 102.95109367 C-0.44265239 104.66077577 -0.48372669 106.3704782 -0.5238781 108.0802021 C-0.76909186 118.41172922 -1.21747558 128.69400472 -2 139 C-2.33 139 -2.66 139 -3 139 C-3.83360594 128.63946908 -4.12288464 118.3905794 -4 108 C-3.67 108 -3.34 108 -3 108 C-2.01 72.36 -1.02 36.72 0 0 Z " fill="#4E0618" transform="translate(528,911)" />
<path d="M0 0 C0.66 0 1.32 0 2 0 C2.1144481 15.03847991 2.01258452 29.99205094 1 45 C0.67 45 0.34 45 0 45 C-0.97885142 34.87937549 -1.11010001 24.78865501 -1.125 14.625 C-1.12951172 13.31055908 -1.13402344 11.99611816 -1.13867188 10.6418457 C-1.13673828 9.41167725 -1.13480469 8.18150879 -1.1328125 6.9140625 C-1.13168457 5.7998291 -1.13055664 4.6855957 -1.12939453 3.53759766 C-1 1 -1 1 0 0 Z " fill="#930C2E" transform="translate(332,882)" />
<path d="M0 0 C-1.65 0.66 -3.3 1.32 -5 2 C-3.68 2.66 -2.36 3.32 -1 4 C-4.63 4 -8.26 4 -12 4 C-11.34 3.67 -10.68 3.34 -10 3 C-10 2.34 -10 1.68 -10 1 C-3.375 -1.125 -3.375 -1.125 0 0 Z " fill="#6B0821" transform="translate(146,174)" />
<path d="M0 0 C0.33 0.99 0.66 1.98 1 3 C-1.31 4.98 -3.62 6.96 -6 9 C-4.25618453 5.51236907 -2.47193291 2.96631949 0 0 Z " fill="#100105" transform="translate(460,301)" />
</svg>