<svg xmlns="http://www.w3.org/2000/svg" version="1.1" width="800px" height="800px" viewBox="124.61538461538464 93.34615384615387 830.7692307692307 622.3076923076923">
<path d="M0 0 C2.71990737 0.61284463 5.44535757 1.18824335 8.17480469 1.75683594 C28.54252801 6.13763 48.06774934 13.67633913 66.83886719 22.63964844 C67.5170752 22.96288086 68.1952832 23.28611328 68.89404297 23.61914062 C97.23121145 37.23561412 122.94392914 54.58938743 145.98339844 76.00683594 C148.50190618 78.32896209 151.06194459 80.5850338 153.65136719 82.82714844 C157.04401987 85.83067967 160.04066307 88.99047065 162.96386719 92.44824219 C165.17286799 95.03001187 167.47231164 97.5174175 169.77636719 100.01464844 C174.36476079 105.0646372 178.70941643 110.20805381 182.83886719 115.63964844 C183.30131836 116.24599121 183.76376953 116.85233398 184.24023438 117.47705078 C193.4465963 129.63356639 201.36575229 142.35682085 208.83886719 155.63964844 C209.29390625 156.43983398 209.74894531 157.24001953 210.21777344 158.06445312 C232.77827751 198.01674877 246.85137559 246.27147695 247.04199219 292.29589844 C247.04769226 293.39647583 247.05339233 294.49705322 247.05926514 295.63098145 C247.06866816 297.95726578 247.07523031 300.28356316 247.07910156 302.60986328 C247.08868688 306.07447453 247.11970561 309.53846025 247.15136719 313.00292969 C247.2499654 333.56061048 245.62302098 353.93927614 241.02636719 374.01464844 C240.76629883 375.1797998 240.50623047 376.34495117 240.23828125 377.54541016 C229.85242233 423.05401394 209.38751508 464.79518041 180.83886719 501.63964844 C180.3409668 502.29143066 179.84306641 502.94321289 179.33007812 503.61474609 C171.62696933 513.63882415 163.06576154 522.70091354 154.15136719 531.63964844 C153.62411041 532.17049042 153.09685364 532.7013324 152.55361938 533.2482605 C108.1429788 577.82129581 48.7280292 606.73726764 -12.84863281 617.88964844 C-13.6775 618.04103271 -14.50636719 618.19241699 -15.36035156 618.34838867 C-32.37372641 621.21582961 -49.4995485 622.02299982 -66.72363281 621.95214844 C-67.67713623 621.94999329 -68.63063965 621.94783813 -69.61303711 621.94561768 C-95.4709567 621.85239812 -120.01057843 618.81084928 -145.16113281 612.63964844 C-146.08410156 612.41438477 -147.00707031 612.18912109 -147.95800781 611.95703125 C-168.10550271 606.91261729 -188.92102696 599.7865256 -206.98535156 589.45214844 C-210.23173132 587.59935606 -213.53607026 585.99424961 -216.91113281 584.38964844 C-232.69494348 576.53329223 -247.05751803 566.14435945 -261.16113281 555.63964844 C-262.19238281 554.87910156 -263.22363281 554.11855469 -264.28613281 553.33496094 C-268.78817193 549.94436273 -268.78817193 549.94436273 -270.16113281 548.63964844 C-270.16113281 547.97964844 -270.16113281 547.31964844 -270.16113281 546.63964844 C-270.73863281 546.37152344 -271.31613281 546.10339844 -271.91113281 545.82714844 C-274.21663324 544.61035655 -276.18169474 543.33630965 -278.16113281 541.63964844 C-278.16113281 540.97964844 -278.16113281 540.31964844 -278.16113281 539.63964844 C-278.73637695 539.38892578 -279.31162109 539.13820313 -279.90429688 538.87988281 C-282.46554477 537.47236017 -284.20170673 535.85794818 -286.27050781 533.79589844 C-287.02460938 533.044375 -287.77871094 532.29285156 -288.55566406 531.51855469 C-289.33296875 530.73351562 -290.11027344 529.94847656 -290.91113281 529.13964844 C-292.10029297 527.96208984 -292.10029297 527.96208984 -293.31347656 526.76074219 C-294.06242187 526.00921875 -294.81136719 525.25769531 -295.58300781 524.48339844 C-296.26975586 523.79439453 -296.95650391 523.10539063 -297.6640625 522.39550781 C-299.16113281 520.63964844 -299.16113281 520.63964844 -299.16113281 518.63964844 C-300.15113281 518.30964844 -301.14113281 517.97964844 -302.16113281 517.63964844 C-304.20410156 515.42480469 -304.20410156 515.42480469 -306.34863281 512.70214844 C-307.42177734 511.35830078 -307.42177734 511.35830078 -308.51660156 509.98730469 C-310.16113281 507.63964844 -310.16113281 507.63964844 -310.16113281 505.63964844 C-310.82113281 505.63964844 -311.48113281 505.63964844 -312.16113281 505.63964844 C-315.40291431 501.83586677 -318.24870876 497.70002675 -321.16113281 493.63964844 C-321.86625 492.66511719 -322.57136719 491.69058594 -323.29785156 490.68652344 C-341.16189087 465.45893373 -354.79487372 438.74584895 -365.16113281 409.63964844 C-365.60513428 408.4144751 -365.60513428 408.4144751 -366.05810547 407.16455078 C-374.85757552 382.58013626 -379.10021563 356.5741981 -381.16113281 330.63964844 C-381.30035156 328.97603271 -381.30035156 328.97603271 -381.44238281 327.27880859 C-386.13546983 269.57897981 -372.16433029 210.58593709 -345.16113281 159.63964844 C-344.64945557 158.67212646 -344.64945557 158.67212646 -344.12744141 157.68505859 C-335.11529439 140.80669662 -324.24333721 125.29452657 -312.42626953 110.2734375 C-311.38638822 108.93054176 -310.39373109 107.55120841 -309.41503906 106.16308594 C-309.00125 105.66035156 -308.58746094 105.15761719 -308.16113281 104.63964844 C-307.50113281 104.63964844 -306.84113281 104.63964844 -306.16113281 104.63964844 C-305.95351318 103.94452148 -305.74589355 103.24939453 -305.53198242 102.53320312 C-303.75501244 98.78241982 -301.14691754 96.21478573 -298.22753906 93.34277344 C-297.33868263 92.45316925 -297.33868263 92.45316925 -296.43186951 91.54559326 C-295.17537496 90.29143541 -293.91519521 89.04096024 -292.65161133 87.79394531 C-290.75275297 85.91841091 -288.86728392 84.03020823 -286.98339844 82.13964844 C-280.01928769 75.19109257 -272.94456782 68.67179177 -265.16113281 62.63964844 C-263.96339233 61.69919678 -263.96339233 61.69919678 -262.74145508 60.73974609 C-225.55249725 31.78979753 -183.30259431 10.67866574 -137.09863281 0.57714844 C-135.92469971 0.3196582 -134.7507666 0.06216797 -133.54125977 -0.203125 C-123.46134728 -2.3706118 -113.39759316 -4.13671561 -103.16113281 -5.36035156 C-102.32404785 -5.46331543 -101.48696289 -5.5662793 -100.62451172 -5.67236328 C-66.99879497 -9.66956116 -32.99050089 -7.47638306 0 0 Z " fill="#0B2140" transform="translate(607.1611328125,97.3603515625)" />
<path d="M0 0 C1.01046387 0.23605957 2.02092773 0.47211914 3.06201172 0.71533203 C31.96205356 7.65725009 59.39082902 19.85310508 83 38 C84.34964844 39.03253906 84.34964844 39.03253906 85.7265625 40.0859375 C132.60347291 76.80376516 162.34293381 128.86283701 170 188 C171.99363285 208.50270152 171.61289072 228.71845765 168 249 C167.7831958 250.22493164 167.7831958 250.22493164 167.56201172 251.47460938 C160.61361614 289.54843147 144.3680754 324.69392011 119 354 C118.30648438 354.804375 117.61296875 355.60875 116.8984375 356.4375 C114.64004446 358.99974955 112.3348964 361.50724111 110 364 C109.54173828 364.49226074 109.08347656 364.98452148 108.61132812 365.49169922 C99.8832247 374.79066465 90.34328961 382.56240317 80 390 C79.38962891 390.4444043 78.77925781 390.88880859 78.15039062 391.34667969 C45.67471194 414.79332673 3.89979362 429.85317688 -36.3203125 430.23828125 C-37.1738179 430.24802979 -38.0273233 430.25777832 -38.9066925 430.26782227 C-57.32767047 430.43508518 -74.99166745 430.32059016 -93 426 C-93.82854492 425.81276367 -94.65708984 425.62552734 -95.51074219 425.43261719 C-121.18009337 419.58352064 -146.4194656 409.14330898 -168 394 C-169.1896818 393.18948386 -170.37979828 392.37960545 -171.5703125 391.5703125 C-178.35706291 386.89842643 -184.55434706 381.93526519 -190.5625 376.28515625 C-192.6164843 374.35954597 -194.7113365 372.54854528 -196.875 370.75 C-212.69232731 356.86161505 -225.69071068 339.27174855 -236 321 C-236.57911133 319.98099609 -236.57911133 319.98099609 -237.16992188 318.94140625 C-248.58852855 298.66937132 -255.85664755 277.45311072 -260.6875 254.75 C-260.90237061 253.74348389 -261.11724121 252.73696777 -261.33862305 251.69995117 C-261.64086792 250.23199097 -261.64086792 250.23199097 -261.94921875 248.734375 C-262.12799561 247.87038086 -262.30677246 247.00638672 -262.4909668 246.11621094 C-263.72065702 238.58826561 -264.16317859 231.0881018 -264.203125 223.46875 C-264.20882507 222.59335571 -264.21452515 221.71796143 -264.22039795 220.81604004 C-264.22977454 218.97405171 -264.23635238 217.13204717 -264.24023438 215.29003906 C-264.24988033 212.534191 -264.28095027 209.77910953 -264.3125 207.0234375 C-264.38177 195.3564467 -263.27899126 184.43291513 -261 173 C-260.70191068 171.29861605 -260.40576615 169.59688761 -260.11328125 167.89453125 C-253.78593245 134.50985713 -238.18431074 103.36880169 -217 77 C-216.31808594 76.113125 -215.63617188 75.22625 -214.93359375 74.3125 C-204.34069049 60.80504081 -191.80434179 49.14421917 -178 39 C-176.85922052 38.14083008 -175.71859587 37.28145453 -174.578125 36.421875 C-166.13927386 30.14658638 -157.27776099 24.93022206 -148 20 C-147.36900391 19.65727051 -146.73800781 19.31454102 -146.08789062 18.96142578 C-129.81490599 10.1546214 -112.14621661 3.64101384 -94 0 C-92.75259033 -0.27070313 -92.75259033 -0.27070313 -91.47998047 -0.546875 C-62.31860239 -6.7135247 -29.00639751 -6.94856608 0 0 Z " fill="#FCFCFD" transform="translate(587,192)" />
<path d="M0 0 C0.85255371 0.17450684 1.70510742 0.34901367 2.58349609 0.52880859 C23.80020199 5.0836154 44.11901374 12.35419199 64.1875 20.5 C65.16477051 20.89316406 66.14204102 21.28632813 67.14892578 21.69140625 C69.85397601 22.78323429 72.55341377 23.88745139 75.25 25 C76.04792969 25.32613281 76.84585937 25.65226562 77.66796875 25.98828125 C83.06894243 28.26288486 83.06894243 28.26288486 84.1875 30.5 C73.6275 33.47 63.0675 36.44 52.1875 39.5 C89.8075 39.83 127.4275 40.16 166.1875 40.5 C166.1875 42.81 166.1875 45.12 166.1875 47.5 C153.80355901 49.58577319 141.4150998 51.63829101 129.01171875 53.60546875 C127.92964142 53.7772464 126.84756409 53.94902405 125.73269653 54.12600708 C121.30798495 54.8278034 116.8831115 55.52854436 112.45776367 56.22631836 C109.16288821 56.74628831 105.86852141 57.26938386 102.57421875 57.79296875 C101.57130295 57.95024948 100.56838715 58.10753021 99.53507996 58.26957703 C98.61173355 58.41675674 97.68838715 58.56393646 96.73706055 58.71557617 C95.92786667 58.84340988 95.11867279 58.97124359 94.28495789 59.10295105 C92.00717744 59.48551997 92.00717744 59.48551997 89.1875 60.5 C87.76131222 62.60143168 86.49527419 64.66944672 85.25 66.875 C84.45793547 68.23696258 83.66354322 69.59757333 82.8671875 70.95703125 C82.44018555 71.68744629 82.01318359 72.41786133 81.57324219 73.17041016 C79.08656762 77.35079225 76.4792633 81.45471562 73.875 85.5625 C73.12005249 86.75721924 73.12005249 86.75721924 72.34985352 87.97607422 C71.39571023 89.48187885 70.43553052 90.98388052 69.46850586 92.48144531 C68.36236646 94.22445286 67.32291474 96.00945154 66.296875 97.80078125 C63.55962336 101.30344955 60.72691364 102.77704096 56.75 104.625 C56.04641357 104.964104 55.34282715 105.30320801 54.61791992 105.65258789 C45.53867611 109.91113926 35.51439789 113.7138343 25.375 113.5625 C24.58480469 113.55347656 23.79460937 113.54445313 22.98046875 113.53515625 C22.38878906 113.52355469 21.79710937 113.51195312 21.1875 113.5 C22.59277095 108.29176416 24.913322 104.71609166 28.125 100.5 C28.85807373 99.52051392 28.85807373 99.52051392 29.60595703 98.52124023 C36.28832553 89.63533983 43.18771014 80.92942939 50.23413086 72.33032227 C59.9615746 62.27540951 59.9615746 62.27540951 65.1875 50.5 C62.2175 50.005 62.2175 50.005 59.1875 49.5 C58.74921875 50.13164062 58.3109375 50.76328125 57.859375 51.4140625 C50.64909604 61.58465925 42.71300734 71.26630539 33.75 79.94921875 C30.70887573 82.96753459 27.96636509 86.24221227 25.1875 89.5 C24.38957031 90.40878906 23.59164062 91.31757813 22.76953125 92.25390625 C10.70309673 106.13554146 10.70309673 106.13554146 7.1875 123.5 C9.11303516 129.39695144 12.93223805 132.52963455 18.1875 135.5 C27.27596141 139.42110877 37.45330913 139.18944826 47.1875 139.5 C46.8575 141.48 46.5275 143.46 46.1875 145.5 C40.36752849 147.63827368 34.54679828 149.77446387 28.7253418 151.90869141 C26.74335858 152.63565169 24.76158724 153.36318989 22.7800293 154.09130859 C19.93853832 155.13529553 17.09630211 156.17722969 14.25390625 157.21875 C13.36224258 157.54685669 12.47057892 157.87496338 11.55189514 158.2130127 C10.73111984 158.51332397 9.91034454 158.81363525 9.06469727 159.12304688 C8.33855728 159.38952026 7.6124173 159.65599365 6.86427307 159.93054199 C5.1875 160.5 5.1875 160.5 4.1875 160.5 C2.72023384 150.01979808 1.52624843 139.53227337 0.5 129 C0.33705781 127.3473899 0.17388016 125.694803 0.01049805 124.04223633 C-0.36942948 120.1944751 -0.74765577 116.34655056 -1.125 112.49853516 C-1.86517664 104.95571052 -2.6112699 97.41347412 -3.35730553 89.87122726 C-4.07213522 82.64337731 -4.78606085 75.41543797 -5.5 68.1875 C-5.61756968 66.99741837 -5.61756968 66.99741837 -5.7375145 65.78329468 C-6.19548939 61.14705496 -6.65298105 56.51076799 -7.10980225 51.87441444 C-7.25045324 50.44754932 -7.3912463 49.02069818 -7.53219604 47.59386253 C-9.95031186 23.11151337 -9.95031186 23.11151337 -9.875 17.3125 C-9.86597656 16.39082031 -9.85695313 15.46914063 -9.84765625 14.51953125 C-9.83025391 13.51986328 -9.83025391 13.51986328 -9.8125 12.5 C-10.4725 12.5 -11.1325 12.5 -11.8125 12.5 C-11.8125 80.48 -11.8125 148.46 -11.8125 218.5 C-28.24464633 218.5 -28.24464633 218.5 -36 217.3125 C-36.88945313 217.1786792 -37.77890625 217.0448584 -38.6953125 216.90698242 C-85.98618559 209.38152877 -128.51954523 183.24893968 -156.69848633 144.4675293 C-178.33195133 113.9218883 -189.8125 77.92237747 -189.8125 40.5 C-133.3825 40.005 -133.3825 40.005 -75.8125 39.5 C-85.3825 36.86 -94.9525 34.22 -104.8125 31.5 C-105.4725 31.17 -106.1325 30.84 -106.8125 30.5 C-106.8125 29.84 -106.8125 29.18 -106.8125 28.5 C-81.37625213 16.4924668 -55.03021241 6.77484679 -27.5625 0.625 C-26.60956055 0.40932373 -25.65662109 0.19364746 -24.67480469 -0.02856445 C-16.07112902 -1.8681762 -8.61364901 -1.76385692 0 0 Z " fill="#0B2240" transform="translate(551.8125,364.5)" />
<path d="M0 0 C2.71990737 0.61284463 5.44535757 1.18824335 8.17480469 1.75683594 C28.54252801 6.13763 48.06774934 13.67633913 66.83886719 22.63964844 C67.5170752 22.96288086 68.1952832 23.28611328 68.89404297 23.61914062 C97.23121145 37.23561412 122.94392914 54.58938743 145.98339844 76.00683594 C148.50190618 78.32896209 151.06194459 80.5850338 153.65136719 82.82714844 C157.04401987 85.83067967 160.04066307 88.99047065 162.96386719 92.44824219 C165.17286799 95.03001187 167.47231164 97.5174175 169.77636719 100.01464844 C174.36476079 105.0646372 178.70941643 110.20805381 182.83886719 115.63964844 C183.30131836 116.24599121 183.76376953 116.85233398 184.24023438 117.47705078 C193.4465963 129.63356639 201.36575229 142.35682085 208.83886719 155.63964844 C209.29390625 156.43983398 209.74894531 157.24001953 210.21777344 158.06445312 C232.77827751 198.01674877 246.85137559 246.27147695 247.04199219 292.29589844 C247.04769226 293.39647583 247.05339233 294.49705322 247.05926514 295.63098145 C247.06866816 297.95726578 247.07523031 300.28356316 247.07910156 302.60986328 C247.08868688 306.07447453 247.11970561 309.53846025 247.15136719 313.00292969 C247.2499654 333.56061048 245.62302098 353.93927614 241.02636719 374.01464844 C240.76629883 375.1797998 240.50623047 376.34495117 240.23828125 377.54541016 C229.85242233 423.05401394 209.38751508 464.79518041 180.83886719 501.63964844 C180.3409668 502.29143066 179.84306641 502.94321289 179.33007812 503.61474609 C171.62696933 513.63882415 163.06576154 522.70091354 154.15136719 531.63964844 C153.62411041 532.17049042 153.09685364 532.7013324 152.55361938 533.2482605 C108.1429788 577.82129581 48.7280292 606.73726764 -12.84863281 617.88964844 C-13.6775 618.04103271 -14.50636719 618.19241699 -15.36035156 618.34838867 C-32.37372641 621.21582961 -49.4995485 622.02299982 -66.72363281 621.95214844 C-67.67713623 621.94999329 -68.63063965 621.94783813 -69.61303711 621.94561768 C-95.4709567 621.85239812 -120.01057843 618.81084928 -145.16113281 612.63964844 C-146.08410156 612.41438477 -147.00707031 612.18912109 -147.95800781 611.95703125 C-168.10550271 606.91261729 -188.92102696 599.7865256 -206.98535156 589.45214844 C-210.23173132 587.59935606 -213.53607026 585.99424961 -216.91113281 584.38964844 C-232.69494348 576.53329223 -247.05751803 566.14435945 -261.16113281 555.63964844 C-262.19238281 554.87910156 -263.22363281 554.11855469 -264.28613281 553.33496094 C-268.78817193 549.94436273 -268.78817193 549.94436273 -270.16113281 548.63964844 C-270.16113281 547.97964844 -270.16113281 547.31964844 -270.16113281 546.63964844 C-270.73863281 546.37152344 -271.31613281 546.10339844 -271.91113281 545.82714844 C-274.21663324 544.61035655 -276.18169474 543.33630965 -278.16113281 541.63964844 C-278.16113281 540.97964844 -278.16113281 540.31964844 -278.16113281 539.63964844 C-278.73637695 539.38892578 -279.31162109 539.13820313 -279.90429688 538.87988281 C-282.46554477 537.47236017 -284.20170673 535.85794818 -286.27050781 533.79589844 C-287.02460938 533.044375 -287.77871094 532.29285156 -288.55566406 531.51855469 C-289.33296875 530.73351562 -290.11027344 529.94847656 -290.91113281 529.13964844 C-292.10029297 527.96208984 -292.10029297 527.96208984 -293.31347656 526.76074219 C-294.06242187 526.00921875 -294.81136719 525.25769531 -295.58300781 524.48339844 C-296.26975586 523.79439453 -296.95650391 523.10539063 -297.6640625 522.39550781 C-299.16113281 520.63964844 -299.16113281 520.63964844 -299.16113281 518.63964844 C-300.15113281 518.30964844 -301.14113281 517.97964844 -302.16113281 517.63964844 C-304.20410156 515.42480469 -304.20410156 515.42480469 -306.34863281 512.70214844 C-307.42177734 511.35830078 -307.42177734 511.35830078 -308.51660156 509.98730469 C-310.16113281 507.63964844 -310.16113281 507.63964844 -310.16113281 505.63964844 C-310.82113281 505.63964844 -311.48113281 505.63964844 -312.16113281 505.63964844 C-315.40291431 501.83586677 -318.24870876 497.70002675 -321.16113281 493.63964844 C-321.86625 492.66511719 -322.57136719 491.69058594 -323.29785156 490.68652344 C-341.16189087 465.45893373 -354.79487372 438.74584895 -365.16113281 409.63964844 C-365.60513428 408.4144751 -365.60513428 408.4144751 -366.05810547 407.16455078 C-374.85757552 382.58013626 -379.10021563 356.5741981 -381.16113281 330.63964844 C-381.30035156 328.97603271 -381.30035156 328.97603271 -381.44238281 327.27880859 C-386.13546983 269.57897981 -372.16433029 210.58593709 -345.16113281 159.63964844 C-344.64945557 158.67212646 -344.64945557 158.67212646 -344.12744141 157.68505859 C-335.11529439 140.80669662 -324.24333721 125.29452657 -312.42626953 110.2734375 C-311.38638822 108.93054176 -310.39373109 107.55120841 -309.41503906 106.16308594 C-309.00125 105.66035156 -308.58746094 105.15761719 -308.16113281 104.63964844 C-307.50113281 104.63964844 -306.84113281 104.63964844 -306.16113281 104.63964844 C-305.95351318 103.94452148 -305.74589355 103.24939453 -305.53198242 102.53320312 C-303.75501244 98.78241982 -301.14691754 96.21478573 -298.22753906 93.34277344 C-297.33868263 92.45316925 -297.33868263 92.45316925 -296.43186951 91.54559326 C-295.17537496 90.29143541 -293.91519521 89.04096024 -292.65161133 87.79394531 C-290.75275297 85.91841091 -288.86728392 84.03020823 -286.98339844 82.13964844 C-280.01928769 75.19109257 -272.94456782 68.67179177 -265.16113281 62.63964844 C-263.96339233 61.69919678 -263.96339233 61.69919678 -262.74145508 60.73974609 C-225.55249725 31.78979753 -183.30259431 10.67866574 -137.09863281 0.57714844 C-135.92469971 0.3196582 -134.7507666 0.06216797 -133.54125977 -0.203125 C-123.46134728 -2.3706118 -113.39759316 -4.13671561 -103.16113281 -5.36035156 C-102.32404785 -5.46331543 -101.48696289 -5.5662793 -100.62451172 -5.67236328 C-66.99879497 -9.66956116 -32.99050089 -7.47638306 0 0 Z M-100.28613281 10.95214844 C-101.58236572 11.06977539 -102.87859863 11.18740234 -104.21411133 11.30859375 C-112.38443868 12.13669251 -120.20738814 13.61299936 -128.16113281 15.63964844 C-129.9527497 16.07735226 -131.74440901 16.51488251 -133.53613281 16.95214844 C-135.74485005 17.51313912 -137.95310594 18.07594666 -140.16113281 18.63964844 C-141.41990234 18.95506592 -141.41990234 18.95506592 -142.70410156 19.27685547 C-158.57126332 23.2573245 -173.50777308 27.70691484 -188.29003906 34.81933594 C-190.93774604 36.08465974 -193.60536153 37.26723806 -196.31347656 38.39746094 C-203.45220609 41.37930342 -209.77032829 44.39928551 -215.99707031 49.08496094 C-218.04237616 50.55433229 -220.00981323 51.63869411 -222.28613281 52.70214844 C-225.86834733 54.3933533 -228.80081808 56.5217416 -231.91503906 58.95605469 C-234.48273267 60.8807085 -237.14910347 62.59249686 -239.84863281 64.32714844 C-245.12478877 67.80006122 -249.88141882 71.64297264 -254.640625 75.77416992 C-257.3717622 78.14212398 -260.09154288 80.38271397 -263.09863281 82.38964844 C-266.16265867 84.64076948 -268.19731865 86.9053387 -270.57128906 89.82714844 C-272.26637786 91.75963297 -274.07074358 93.35958382 -276.03613281 95.01464844 C-279.79172543 98.20295269 -283.00051264 101.69231459 -286.20410156 105.42871094 C-287.62892732 107.03839432 -289.11793935 108.59193463 -290.64160156 110.10839844 C-307.4948971 127.04008139 -321.67455883 149.31240836 -332.16113281 170.63964844 C-332.71671875 171.73921875 -333.27230469 172.83878906 -333.84472656 173.97167969 C-339.55520127 185.06600095 -339.55520127 185.06600095 -344.16113281 196.63964844 C-344.97818762 199.09081287 -345.8984066 201.23866755 -347.00097656 203.56152344 C-349.51397103 209.17520138 -351.11948409 214.96339684 -352.72363281 220.88964844 C-353.02809326 221.9948584 -353.33255371 223.10006836 -353.64624023 224.23876953 C-355.43632358 230.79195143 -357.13727803 237.34669114 -358.55566406 243.99121094 C-359.16113281 246.63964844 -359.16113281 246.63964844 -360.13769531 249.75292969 C-361.602668 254.80115565 -362.10363147 259.99610541 -362.72363281 265.20214844 C-362.84931641 266.19794922 -362.975 267.19375 -363.10449219 268.21972656 C-367.98497228 308.10679165 -366.55988466 350.47228701 -354.046875 388.86279297 C-353.0348107 392.03567591 -352.08390657 395.22386361 -351.13769531 398.41699219 C-350.78932617 399.58311035 -350.44095703 400.74922852 -350.08203125 401.95068359 C-349.40075372 404.23146847 -348.72408529 406.51363679 -348.05273438 408.79736328 C-346.28675971 414.62507968 -344.31030036 419.44712791 -341.16113281 424.63964844 C-339.5430993 428.00160927 -338.04111905 431.41333798 -336.53613281 434.82714844 C-335.75298697 436.59178588 -334.96915795 438.35612032 -334.18457031 440.12011719 C-333.84345215 440.89250732 -333.50233398 441.66489746 -333.15087891 442.46069336 C-332.20290977 444.54767523 -331.20016857 446.59671479 -330.16113281 448.63964844 C-329.50113281 448.63964844 -328.84113281 448.63964844 -328.16113281 448.63964844 C-328.03158203 449.66058594 -328.03158203 449.66058594 -327.89941406 450.70214844 C-326.97404152 454.384054 -325.25692886 457.39796949 -323.34863281 460.63964844 C-322.83333008 461.54457031 -322.83333008 461.54457031 -322.30761719 462.46777344 C-320.18849161 466.12555117 -317.82210985 469.36584033 -315.16113281 472.63964844 C-314.09799016 474.31370142 -313.05681165 476.00187187 -312.03613281 477.70214844 C-308.64902641 483.09830939 -304.75815249 487.91720821 -300.61816406 492.74511719 C-298.46402103 495.28282782 -296.43173839 497.87098675 -294.41113281 500.51464844 C-289.37703687 506.86646274 -283.52657245 512.43565985 -277.7409668 518.0925293 C-274.80866906 520.96410568 -271.90969422 523.86608869 -269.05566406 526.81542969 C-263.7569289 532.25334364 -258.17503251 537.01555152 -252.16113281 541.63964844 C-251.0916159 542.47624091 -250.02262937 543.31351176 -248.95410156 544.15136719 C-239.7322479 551.35328566 -230.2104457 557.65806328 -220.16113281 563.63964844 C-219.2891626 564.15914062 -218.41719238 564.67863281 -217.51879883 565.21386719 C-205.82993227 572.12535839 -194.25269599 578.23358334 -181.50878906 582.95605469 C-177.85718912 584.31469557 -174.44816912 585.96570437 -170.98608398 587.74487305 C-162.83792025 591.7399259 -153.44960293 593.3632792 -144.60498047 595.15722656 C-140.99820946 595.90941063 -137.61226758 596.7843097 -134.18066406 598.13574219 C-126.26104014 601.22708491 -117.92991402 602.18802243 -109.53613281 603.20214844 C-108.46782227 603.33145752 -107.39951172 603.4607666 -106.29882812 603.59399414 C-80.24084927 606.67856101 -54.25307538 606.23033777 -28.16113281 603.63964844 C-27.37867188 603.56488281 -26.59621094 603.49011719 -25.79003906 603.41308594 C-18.01128331 602.64234684 -10.84718268 601.19380332 -3.45410156 598.63964844 C-0.77644395 597.82650449 1.75040281 597.24590284 4.49121094 596.73339844 C10.32360306 595.6127737 15.9250182 593.90913851 21.58886719 592.13964844 C23.09126953 591.67751953 23.09126953 591.67751953 24.62402344 591.20605469 C33.28419183 588.69350814 33.28419183 588.69350814 41.58886719 585.26464844 C44.16344189 583.97736109 46.66761851 582.87906172 49.33886719 581.82714844 C53.66701066 580.11433671 57.98146686 578.37169207 62.27636719 576.57714844 C64.03787109 575.84818359 64.03787109 575.84818359 65.83496094 575.10449219 C68.75718076 573.88259346 68.75718076 573.88259346 70.30493164 572.16699219 C71.92457543 570.55430851 73.33532979 569.72541283 75.38574219 568.73730469 C76.06636719 568.40408203 76.74699219 568.07085938 77.44824219 567.72753906 C78.15464844 567.38916016 78.86105469 567.05078125 79.58886719 566.70214844 C89.43720261 562.23347769 89.43720261 562.23347769 97.83886719 555.63964844 C99.38283481 554.65173497 100.94845198 553.69738239 102.52636719 552.76464844 C110.51644336 547.77085083 117.63582734 541.69028437 124.83886719 535.63964844 C125.58910156 535.011875 126.33933594 534.38410156 127.11230469 533.73730469 C129.05416573 532.07103528 130.95030817 530.36633096 132.83886719 528.63964844 C133.66451172 527.88748047 133.66451172 527.88748047 134.50683594 527.12011719 C144.26721452 518.29588061 144.26721452 518.29588061 153.16699219 508.62792969 C155.33070829 506.05472525 157.61884471 503.6078791 159.90136719 501.13964844 C163.84506137 496.80931757 167.43804028 492.4008061 170.83886719 487.63964844 C171.51046875 486.72828125 172.18207031 485.81691406 172.87402344 484.87792969 C176.05724228 480.55083184 179.09865166 476.26188012 181.83886719 471.63964844 C182.68674321 470.40613409 183.5411061 469.17705751 184.40136719 467.95214844 C193.67724325 454.1075573 202.16777216 438.47088349 207.91699219 422.82324219 C208.83886719 420.63964844 208.83886719 420.63964844 210.27758789 418.37426758 C211.91767593 415.50161298 212.82813833 412.87700873 213.74121094 409.70214844 C214.07443359 408.55875 214.40765625 407.41535156 214.75097656 406.23730469 C215.08935547 405.05007813 215.42773438 403.86285156 215.77636719 402.63964844 C216.45145327 400.30611388 217.12723315 397.97277993 217.80371094 395.63964844 C218.30233643 393.91488281 218.30233643 393.91488281 218.81103516 392.15527344 C223.35893408 376.59951466 223.35893408 376.59951466 224.83886719 373.63964844 C225.17598244 371.85838204 225.46951814 370.06877888 225.74121094 368.27636719 C225.99209473 366.62266113 225.99209473 366.62266113 226.24804688 364.93554688 C227.14041372 358.84073083 228.00315872 352.74248528 228.83886719 346.63964844 C228.96471191 345.74777832 229.09055664 344.8559082 229.22021484 343.93701172 C232.67733992 318.59685508 232.55768514 290.93540882 228.83886719 265.63964844 C228.69400879 264.63321289 228.54915039 263.62677734 228.39990234 262.58984375 C227.92048234 259.3321335 227.41783636 256.07918269 226.90136719 252.82714844 C226.66498535 251.33066772 226.66498535 251.33066772 226.42382812 249.80395508 C225.58282768 244.8485411 224.49983593 240.33993256 222.61303711 235.68432617 C221.06179969 231.58731785 220.07164757 227.3108877 218.96386719 223.07714844 C217.16039847 216.34502592 215.31963667 209.63954308 213.15136719 203.01464844 C212.58869141 201.29375 212.58869141 201.29375 212.01464844 199.53808594 C210.99877094 196.6726381 210.99877094 196.6726381 209.34277344 194.66699219 C207.30016518 191.91345015 206.53417063 189.0823707 205.46386719 185.82714844 C200.65358685 172.14604544 192.64338145 159.7257545 185.05371094 147.44042969 C184.48644287 146.52044189 183.9191748 145.6004541 183.3347168 144.65258789 C182.84108643 143.98831787 182.34745605 143.32404785 181.83886719 142.63964844 C181.17886719 142.63964844 180.51886719 142.63964844 179.83886719 142.63964844 C179.5978125 141.77082031 179.35675781 140.90199219 179.10839844 140.00683594 C177.71171608 136.30240458 175.98392997 133.86174065 173.52636719 130.76464844 C172.87692139 129.94250854 172.87692139 129.94250854 172.21435547 129.10375977 C171.27002948 127.91296503 170.32127856 126.725669 169.36865234 125.54150391 C167.75960408 123.54110716 166.16451121 121.53002607 164.56933594 119.51855469 C158.98461523 112.51872323 153.37169334 105.78566252 146.83886719 99.63964844 C146.08476563 98.88296875 145.33066406 98.12628906 144.55371094 97.34667969 C134.54558217 87.36735129 124.11442247 78.15705141 112.83886719 69.63964844 C112.07960938 69.05699219 111.32035156 68.47433594 110.53808594 67.87402344 C108.65419304 66.43939558 106.75251258 65.03427199 104.83886719 63.63964844 C104.1440625 63.12402344 103.44925781 62.60839844 102.73339844 62.07714844 C97.34095018 58.17507532 91.73727828 54.67549206 86.02636719 51.26464844 C85.29683838 50.8234668 84.56730957 50.38228516 83.81567383 49.92773438 C80.18223019 47.78839755 77.11468178 46.0932712 72.83886719 45.63964844 C72.83886719 44.97964844 72.83886719 44.31964844 72.83886719 43.63964844 C59.08324912 36.85608518 59.08324912 36.85608518 44.77246094 31.39355469 C42.83886719 30.63964844 42.83886719 30.63964844 40.83886719 28.63964844 C38.53041097 27.79073228 36.25333435 27.03406388 33.90136719 26.32714844 C32.85565552 26.00774292 32.85565552 26.00774292 31.78881836 25.68188477 C26.10256194 23.9694287 20.38563859 22.37049839 14.65136719 20.82714844 C13.44975952 20.49880005 13.44975952 20.49880005 12.22387695 20.16381836 C8.30396063 19.13199898 4.91907264 18.49792284 0.83886719 18.63964844 C-0.15113281 18.30964844 -1.14113281 17.97964844 -2.16113281 17.63964844 C-2.16113281 16.97964844 -2.16113281 16.31964844 -2.16113281 15.63964844 C-6.34853599 14.99318634 -10.53607238 14.34759109 -14.72363281 13.70214844 C-15.90505859 13.51974609 -17.08648438 13.33734375 -18.30371094 13.14941406 C-45.53369116 8.95431907 -72.85588213 8.40585648 -100.28613281 10.95214844 Z " fill="#CA0E2D" transform="translate(607.1611328125,97.3603515625)" />
<path d="M0 0 C0.33 31.02 0.66 62.04 1 94 C1.99 91.03 2.98 88.06 4 85 C10.53279339 84.97535653 17.06555998 84.95716709 23.59838867 84.94506836 C25.82267732 84.94002683 28.04696263 84.93319377 30.27124023 84.92456055 C33.46078309 84.91248702 36.65028229 84.90677004 39.83984375 84.90234375 C41.34139259 84.89460182 41.34139259 84.89460182 42.87327576 84.88670349 C43.79415482 84.88662796 44.71503387 84.88655243 45.66381836 84.88647461 C46.47878281 84.884254 47.29374725 84.88203339 48.13340759 84.87974548 C50 85 50 85 51 86 C51.21900152 87.35248234 51.42505652 88.70706917 51.625 90.0625 C52.84809031 95.71029938 55.65309421 99.27528188 60 103 C62.62612863 104.62700814 65.13867261 105.79523057 68 107 C68 107.66 68 108.32 68 109 C58.52972589 109.06078807 49.09595314 108.91230003 39.63049316 108.57220459 C4.0827036 107.33104306 -31.45306933 108.09052491 -67 109 C-67 108.34 -67 107.68 -67 107 C-64.98828125 105.703125 -64.98828125 105.703125 -62.3125 104.25 C-57.71261103 101.54341752 -54.80808677 99.563141 -52 95 C-51.34 91.7 -50.68 88.4 -50 85 C-34.82 85 -19.64 85 -4 85 C-4.33 82.03 -4.66 79.06 -5 76 C-5.69480469 76.0721875 -6.38960937 76.144375 -7.10546875 76.21875 C-17.73677321 77.18890706 -28.33369044 77.09832791 -39 77 C-37.83210938 75.86884766 -37.83210938 75.86884766 -36.640625 74.71484375 C-31.88635123 69.82694394 -30.14831677 65.88990059 -29 59 C-22.73 59 -16.46 59 -10 59 C-11.64121669 53.21008121 -11.64121669 53.21008121 -13.29101562 47.42260742 C-13.59555664 46.33749878 -13.59555664 46.33749878 -13.90625 45.23046875 C-14.11572266 44.49207764 -14.32519531 43.75368652 -14.54101562 42.99291992 C-15 41 -15 41 -15 38 C-54.14581731 44.32778774 -89.47637788 62.16626875 -113.26123047 94.7265625 C-128.37566148 116.21174151 -135.80281426 139.31821005 -140 165 C-152.19545908 167.59477853 -164.47674921 170.20765594 -177 170 C-179.67631533 132.8884274 -160.77260241 92.43659319 -137.33984375 64.6796875 C-106.70707979 29.59775748 -66.4969982 5.84100311 -19.75 0.25 C-13.17523928 -0.09604004 -6.58386074 0 0 0 Z " fill="#0C2341" transform="translate(540,227)" />
<path d="M0 0 C1.01046387 0.23605957 2.02092773 0.47211914 3.06201172 0.71533203 C31.96205356 7.65725009 59.39082902 19.85310508 83 38 C84.34964844 39.03253906 84.34964844 39.03253906 85.7265625 40.0859375 C132.60347291 76.80376516 162.34293381 128.86283701 170 188 C171.99363285 208.50270152 171.61289072 228.71845765 168 249 C167.7831958 250.22493164 167.7831958 250.22493164 167.56201172 251.47460938 C160.61361614 289.54843147 144.3680754 324.69392011 119 354 C118.30648438 354.804375 117.61296875 355.60875 116.8984375 356.4375 C114.64004446 358.99974955 112.3348964 361.50724111 110 364 C109.54173828 364.49226074 109.08347656 364.98452148 108.61132812 365.49169922 C99.8832247 374.79066465 90.34328961 382.56240317 80 390 C79.38962891 390.4444043 78.77925781 390.88880859 78.15039062 391.34667969 C45.67471194 414.79332673 3.89979362 429.85317688 -36.3203125 430.23828125 C-37.1738179 430.24802979 -38.0273233 430.25777832 -38.9066925 430.26782227 C-57.32767047 430.43508518 -74.99166745 430.32059016 -93 426 C-93.82854492 425.81276367 -94.65708984 425.62552734 -95.51074219 425.43261719 C-121.18009337 419.58352064 -146.4194656 409.14330898 -168 394 C-169.1896818 393.18948386 -170.37979828 392.37960545 -171.5703125 391.5703125 C-178.35706291 386.89842643 -184.55434706 381.93526519 -190.5625 376.28515625 C-192.6164843 374.35954597 -194.7113365 372.54854528 -196.875 370.75 C-212.69232731 356.86161505 -225.69071068 339.27174855 -236 321 C-236.57911133 319.98099609 -236.57911133 319.98099609 -237.16992188 318.94140625 C-248.58852855 298.66937132 -255.85664755 277.45311072 -260.6875 254.75 C-260.90237061 253.74348389 -261.11724121 252.73696777 -261.33862305 251.69995117 C-261.64086792 250.23199097 -261.64086792 250.23199097 -261.94921875 248.734375 C-262.12799561 247.87038086 -262.30677246 247.00638672 -262.4909668 246.11621094 C-263.72065702 238.58826561 -264.16317859 231.0881018 -264.203125 223.46875 C-264.20882507 222.59335571 -264.21452515 221.71796143 -264.22039795 220.81604004 C-264.22977454 218.97405171 -264.23635238 217.13204717 -264.24023438 215.29003906 C-264.24988033 212.534191 -264.28095027 209.77910953 -264.3125 207.0234375 C-264.38177 195.3564467 -263.27899126 184.43291513 -261 173 C-260.70191068 171.29861605 -260.40576615 169.59688761 -260.11328125 167.89453125 C-253.78593245 134.50985713 -238.18431074 103.36880169 -217 77 C-216.31808594 76.113125 -215.63617188 75.22625 -214.93359375 74.3125 C-204.34069049 60.80504081 -191.80434179 49.14421917 -178 39 C-176.85922052 38.14083008 -175.71859587 37.28145453 -174.578125 36.421875 C-166.13927386 30.14658638 -157.27776099 24.93022206 -148 20 C-147.36900391 19.65727051 -146.73800781 19.31454102 -146.08789062 18.96142578 C-129.81490599 10.1546214 -112.14621661 3.64101384 -94 0 C-92.75259033 -0.27070313 -92.75259033 -0.27070313 -91.47998047 -0.546875 C-62.31860239 -6.7135247 -29.00639751 -6.94856608 0 0 Z M-106 12 C-106.66789551 12.19319824 -107.33579102 12.38639648 -108.02392578 12.58544922 C-136.6638775 21.05272295 -162.74608103 36.26428765 -185 56 C-185.9178125 56.80695313 -186.835625 57.61390625 -187.78125 58.4453125 C-196.36078319 66.0686929 -203.91837662 73.95000207 -211 83 C-211.42829102 83.5465625 -211.85658203 84.093125 -212.29785156 84.65625 C-228.78489178 105.88316353 -240.21489374 129.36194726 -248 155 C-248.21140625 155.69367676 -248.4228125 156.38735352 -248.640625 157.10205078 C-252.8860838 171.29780365 -255.4714939 186.18581384 -256 201 C-256.02723145 201.74072754 -256.05446289 202.48145508 -256.08251953 203.24462891 C-257.09013462 235.20313766 -251.95311083 266.45972772 -238.98095703 295.77246094 C-238.04793887 297.89114131 -237.16010364 300.02406936 -236.27734375 302.1640625 C-228.56001743 320.25755329 -216.7024671 337.08649442 -203.37939453 351.49707031 C-201.99554036 353.00485904 -200.64964355 354.54003904 -199.30859375 356.0859375 C-165.88764674 394.22907848 -114.30578871 417.94824034 -64.0703125 421.71875 C-7.59590084 425.15613128 47.14071686 408.22486693 90 371 C90.54205078 370.53239258 91.08410156 370.06478516 91.64257812 369.58300781 C104.79584194 358.15003945 116.19900392 345.40040811 126 331 C126.62769287 330.08492676 126.62769287 330.08492676 127.26806641 329.15136719 C145.51953555 302.21923441 156.39048576 271.19036234 160.7175293 239.07519531 C160.9750614 237.18321356 161.26881763 235.29625242 161.56640625 233.41015625 C162.36533445 226.85652398 162.19772833 220.21763353 162.1875 213.625 C162.18689575 212.9100235 162.1862915 212.195047 162.18566895 211.45840454 C162.16057396 200.52846518 161.84969963 189.79163194 160 179 C159.82259277 177.915979 159.82259277 177.915979 159.64160156 176.81005859 C154.22417464 144.80864233 140.7656406 113.71516453 121 88 C120.31164062 87.10023438 119.62328125 86.20046875 118.9140625 85.2734375 C114.21231038 79.27080534 109.21393843 73.56153432 104 68 C103.31043213 67.25943359 103.31043213 67.25943359 102.60693359 66.50390625 C93.88796833 57.21448726 84.36837034 49.38736993 74 42 C73.4220166 41.5879834 72.8440332 41.1759668 72.24853516 40.75146484 C20.81655933 4.70761675 -45.90262687 -5.53338535 -106 12 Z " fill="#3C8CDB" transform="translate(587,192)" />
<path d="M0 0 C1.75390625 1.94921875 1.75390625 1.94921875 3.5625 4.6875 C10.39545416 14.53499276 18.27679303 23.30692513 26.5 32 C52.49251897 59.50699713 52.49251897 59.50699713 52.26953125 73.43359375 C51.76683245 78.22016057 49.96001024 81.27085635 46.375 84.43359375 C36.11675483 91.63573671 23.97899233 91.41044771 12 91 C12.12561034 93.43996327 12.12561034 93.43996327 13 96 C15.08564599 97.42100551 15.08564599 97.42100551 17.78515625 98.24609375 C18.78393799 98.60517822 19.78271973 98.9642627 20.81176758 99.33422852 C21.88450928 99.69830811 22.95725098 100.0623877 24.0625 100.4375 C25.6880481 101.02325806 25.6880481 101.02325806 27.34643555 101.62084961 C32.22145863 103.37279409 37.11494894 105.04855707 42.046875 106.6328125 C42.77769287 106.87845947 43.50851074 107.12410645 44.26147461 107.37719727 C46.18252115 108.01907057 48.11635286 108.6223164 50.05078125 109.22265625 C53.64413584 111.38818782 54.33672545 112.97220216 55.52270508 116.88061523 C56.20825032 119.92471662 56.52529647 122.88569214 56.6875 126 C56.75324219 127.134375 56.81898438 128.26875 56.88671875 129.4375 C56.92410156 130.283125 56.96148438 131.12875 57 132 C24.15243524 130.05596045 -4.36623262 115.34188942 -28 93 C-28.82242188 92.24203125 -29.64484375 91.4840625 -30.4921875 90.703125 C-54.17330221 68.12860443 -65.98580181 36.85249945 -70 5 C-64.42060289 4.82287628 -59.73343689 5.17899303 -54.33496094 6.52685547 C-51.829084 7.03463354 -49.46809871 7.17339963 -46.9140625 7.25390625 C-33.66226208 7.86548971 -33.66226208 7.86548971 -29.17480469 11.46337891 C-25.83628284 15.34550524 -23.59690839 19.8416785 -21.33496094 24.40722656 C-18.87494687 29.18508857 -15.96630608 33.69260238 -13.125 38.25 C-12.58875 39.14251465 -12.0525 40.0350293 -11.5 40.95458984 C-6.99665001 48.37295375 -2.84341847 53.14491479 5.3125 56.5625 C6.00601563 56.85914551 6.69953125 57.15579102 7.4140625 57.46142578 C17.25247142 61.51866153 27.43868126 63.80834678 38 65 C29.89314421 51.93895456 20.70521357 40.06531792 10.98217773 28.17919922 C6.99137133 23.27733877 3.11478275 18.29941758 -0.6875 13.25 C-1.19265137 12.58250732 -1.69780273 11.91501465 -2.21826172 11.22729492 C-2.92039795 10.28720581 -2.92039795 10.28720581 -3.63671875 9.328125 C-4.04623779 8.7805957 -4.45575684 8.23306641 -4.87768555 7.66894531 C-6.10133957 5.8493023 -7.05900525 3.97848796 -8 2 C-4.91190305 0.23537317 -3.76687864 0 0 0 Z " fill="#FBFCFC" transform="translate(470,413)" />
<path d="M0 0 C16.5 0 33 0 50 0 C50.87922158 7.91299423 50.95628266 10.85919498 47.75 17.4375 C47.39083496 18.20537842 47.03166992 18.97325684 46.66162109 19.7644043 C38.06358265 37.6463594 26.63804935 53.62358492 13 68 C12.53787109 68.49467773 12.07574219 68.98935547 11.59960938 69.49902344 C-16.12238009 99.01949059 -58.2791059 120.67029351 -99.2890625 122.24609375 C-102.20839833 122.24927385 -105.08671939 122.15603602 -108 122 C-107.54647287 118.08276166 -107.08626696 114.16633388 -106.625 110.25 C-106.49867188 109.15816406 -106.37234375 108.06632813 -106.2421875 106.94140625 C-105.37174612 99.58617655 -104.28497517 92.29417225 -103 85 C-102.31188232 84.88519287 -101.62376465 84.77038574 -100.91479492 84.65209961 C-60.8249156 77.82424513 -28.36576664 61.23479969 -3 29 C-2.32324219 28.15050781 -1.64648438 27.30101562 -0.94921875 26.42578125 C1.65634467 22.89778849 2.98295788 20.9543589 3.0625 16.5 C1.996959 12.98998259 0.84802358 9.53411595 -0.4765625 6.11328125 C-1 4 -1 4 0 0 Z " fill="#0B2240" transform="translate(656,460)" />
<path d="M0 0 C32.0773148 1.23137485 64.42473732 10.80131942 91 29 C91.91394531 29.62261719 92.82789063 30.24523437 93.76953125 30.88671875 C118.98563768 48.67146906 137.95225882 70.6924618 152.375 97.875 C152.79201172 98.65955566 153.20902344 99.44411133 153.63867188 100.25244141 C160.90437406 114.22380592 160.90437406 114.22380592 159 122 C158 123 158 123 156.01951599 123.12025452 C155.15125687 123.11803391 154.28299774 123.11581329 153.38842773 123.11352539 C152.40748642 123.11344986 151.4265451 123.11337433 150.4158783 123.11329651 C149.3492244 123.10813522 148.2825705 123.10297394 147.18359375 123.09765625 C145.55430687 123.09553383 145.55430687 123.09553383 143.8921051 123.09336853 C140.40720925 123.08775048 136.92237658 123.07519492 133.4375 123.0625 C131.08138113 123.05748733 128.72526126 123.05292402 126.36914062 123.04882812 C120.57940536 123.03777519 114.78970719 123.02101951 109 123 C107.67862454 117.44272592 109.15577886 114.17720189 111.1875 108.9375 C112.10156157 105.63281585 112.15760356 104.20835815 111 101 C109.56064683 98.82097923 108.12891097 96.836995 106.5 94.8125 C106.04931152 94.24225098 105.59862305 93.67200195 105.13427734 93.08447266 C79.57010091 61.04630977 46.51465439 43.57810459 6 38 C3.45452 25.39897134 1.64445339 12.74671697 0 0 Z " fill="#0B2240" transform="translate(547,227)" />
<path d="M0 0 C46.86 0 93.72 0 142 0 C142.99 3.63 143.98 7.26 145 11 C148.67449794 20.44234621 154.42648298 28.69716151 161.76953125 35.68359375 C163 37 163 37 163 39 C156.33649514 36.88045379 149.85390713 34.40090514 143.35571289 31.82446289 C124.948906 24.52861376 106.57937435 18.24576445 87.1875 14.0625 C86.21498291 13.85052979 85.24246582 13.63855957 84.24047852 13.42016602 C72.52005472 11.04282895 62.57251822 12.31997237 51 15 C49.68757324 15.29801514 49.68757324 15.29801514 48.34863281 15.60205078 C27.78513925 20.32055609 8.25637149 27.01120078 -11.17236328 35.20629883 C-12.03974121 35.57134521 -12.90711914 35.9363916 -13.80078125 36.3125 C-14.94800659 36.80169922 -14.94800659 36.80169922 -16.1184082 37.30078125 C-18 38 -18 38 -20 38 C-18.58163016 34.76926869 -16.84698778 32.68410917 -14.375 30.1875 C-10.81607755 26.25190328 -8.14628051 22.1988742 -5.625 17.5625 C-5.29161621 16.96655029 -4.95823242 16.37060059 -4.61474609 15.7565918 C-1.78015203 10.34436611 -1.28924371 6.44621855 0 0 Z " fill="#0C2240" transform="translate(469,344)" />
<path d="M0 0 C4.22822938 3.14118459 7.24743467 6.50339154 9.1875 11.4375 C10.28894897 19.1476428 7.45931607 24.78636704 3.4375 31.25 C-0.99671286 35.56104028 -5.6126738 37.65662501 -11.8125 38 C-17.93410411 37.72730181 -22.02885556 35.14323073 -26.34765625 30.9453125 C-29.89653054 26.9515356 -31.53115236 23.48731855 -32.25 18.25 C-31.46318497 11.39346906 -28.4743722 5.55720619 -23.3125 0.9375 C-15.82004032 -4.72596524 -8.12057678 -4.97537843 0 0 Z " fill="#F5F7F7" transform="translate(341.8125,237.5625)" />
<path d="M0 0 C3.6578218 2.03993908 5.66946174 3.50419262 8 7 C8.43762929 12.4266032 8.36889008 15.50814656 5 20 C5.56847656 20.10957031 6.13695312 20.21914063 6.72265625 20.33203125 C11.82316758 21.37938166 16.284442 22.79271753 21 25 C19.3563186 26.68933922 17.6857124 28.35259924 16 30 C15.13375 30.99 15.13375 30.99 14.25 32 C10.90213274 33.487941 8.77883383 32.24580252 5.4609375 30.97265625 C4.24277344 30.49119141 4.24277344 30.49119141 3 30 C1.31583644 29.42758791 -0.37156484 28.86458766 -2.0625 28.3125 C-3.375 27.875 -4.6875 27.4375 -6 27 C-3.84921278 30.85658398 -1.76544722 34.54319097 1 38 C-0.450954 41.82524236 -2.38181932 43.19090966 -6 45 C-6.66 45 -7.32 45 -8 45 C-9.81047664 42.55300422 -11.5121995 40.09976102 -13.1875 37.5625 C-14.18029297 36.08849559 -15.17507776 34.61583073 -16.171875 33.14453125 C-16.65591797 32.42990723 -17.13996094 31.7152832 -17.63867188 30.97900391 C-21.35725779 25.57318299 -25.30563917 20.58283174 -30 16 C-6.89817377 -1.37963475 -6.89817377 -1.37963475 0 0 Z " fill="#F6F8F8" transform="translate(691,596)" />
<path d="M0 0 C2.38184839 4.30564902 2.51765847 8.12791773 1.625 12.9375 C-0.04486969 16.28408311 -2.26362514 18.3932308 -5.65625 20.0546875 C-8.71855508 21.04905668 -11.47798237 21.35088345 -14.6875 21.5625 C-15.75613281 21.63726563 -16.82476563 21.71203125 -17.92578125 21.7890625 C-19.13814453 21.86253906 -19.13814453 21.86253906 -20.375 21.9375 C-20.045 25.5675 -19.715 29.1975 -19.375 32.9375 C-21.78045638 34.14022819 -23.32496953 34.03821472 -26 34 C-27.22589844 33.98646484 -27.22589844 33.98646484 -28.4765625 33.97265625 C-29.10304688 33.96105469 -29.72953125 33.94945312 -30.375 33.9375 C-30.4251123 33.19177734 -30.47522461 32.44605469 -30.52685547 31.67773438 C-30.76049273 28.26376952 -31.00515741 24.85067879 -31.25 21.4375 C-31.32863281 20.26445313 -31.40726563 19.09140625 -31.48828125 17.8828125 C-32.02681183 10.50908607 -33.03409573 3.96021282 -35.375 -3.0625 C-24.61361396 -6.64962868 -8.82897991 -7.66727202 0 0 Z " fill="#F5F7F8" transform="translate(578.375,648.0625)" />
<path d="M0 0 C3.67030738 0.56174488 7.33522576 1.15330529 11 1.75 C12.54494141 1.98589844 12.54494141 1.98589844 14.12109375 2.2265625 C21.21629519 3.40156401 27.93754299 4.75193954 33.0625 10.1875 C34.76029684 15.28089051 33.86114043 20.01937701 31.75 24.875 C29.57327205 27.51816965 28.20412526 28.70471532 25 30 C19.26521797 30.53550596 13.6533344 29.98318859 8 29 C7.67 32.3 7.34 35.6 7 39 C3.37 38.67 -0.26 38.34 -4 38 C-3.5234122 34.58295541 -3.04383737 31.16637592 -2.5625 27.75 C-2.36043945 26.29787109 -2.36043945 26.29787109 -2.15429688 24.81640625 C-2.02216797 23.88183594 -1.89003906 22.94726562 -1.75390625 21.984375 C-1.63345947 21.12553711 -1.5130127 20.26669922 -1.38891602 19.38183594 C-1 17 -1 17 -0.45898438 14.890625 C0.24013648 12.01084209 0.09204454 9.20445371 0.0625 6.25 C0.05347656 5.07953125 0.04445313 3.9090625 0.03515625 2.703125 C0.02355469 1.81109375 0.01195312 0.9190625 0 0 Z " fill="#F6F7F8" transform="translate(480,637)" />
<path d="M0 0 C4.74104987 -1.10240217 9.38025761 -1.79774294 14 0 C19.72901988 4.62063106 23.82649906 11.00943995 28 17 C28.99 18.32 29.98 19.64 31 21 C31.33 14.07 31.66 7.14 32 0 C34.31 0 36.62 0 39 0 C39 12.21 39 24.42 39 37 C30 37 30 37 27.7578125 35.5234375 C27.21898437 34.81445312 26.68015625 34.10546875 26.125 33.375 C25.48691406 32.56804687 24.84882812 31.76109375 24.19140625 30.9296875 C23.46824219 29.96289062 22.74507812 28.99609375 22 28 C21.03343742 26.77068581 20.06315901 25.54428718 19.08984375 24.3203125 C17.11949133 21.83915144 15.16361561 19.34796816 13.22265625 16.84375 C11.68765003 14.85433809 11.68765003 14.85433809 10 13 C9.67 20.92 9.34 28.84 9 37 C6.69 37 4.38 37 2 37 C1.97494385 35.98574951 1.9498877 34.97149902 1.92407227 33.92651367 C1.82990355 30.16368973 1.72970595 26.40104631 1.62768555 22.63842773 C1.58437251 21.00988996 1.54269482 19.38130784 1.50268555 17.75268555 C1.44489497 15.41181065 1.38122602 13.07115824 1.31640625 10.73046875 C1.29969376 10.00224411 1.28298126 9.27401947 1.26576233 8.52372742 C1.17532762 5.43833061 0.98276007 2.94828022 0 0 Z " fill="#F2F4F6" transform="translate(520,129)" />
<path d="M0 0 C1.76245117 1.73901367 1.76245117 1.73901367 3.35546875 3.98046875 C3.95020996 4.79435059 4.54495117 5.60823242 5.15771484 6.44677734 C5.76566895 7.28934082 6.37362305 8.1319043 7 9 C8.2177459 10.56447195 9.44293804 12.12317854 10.67578125 13.67578125 C11.88802083 15.22135417 13.10026042 16.76692708 14.3125 18.3125 C14.93189453 19.09689453 15.55128906 19.88128906 16.18945312 20.68945312 C16.78306641 21.44806641 17.37667969 22.20667969 17.98828125 22.98828125 C18.51977783 23.66415283 19.05127441 24.34002441 19.59887695 25.03637695 C20.96861139 26.95601 22.00884843 28.86418016 23 31 C15.32 33.56 15.32 33.56 11 32 C9.1875 30.5625 9.1875 30.5625 8 29 C8 28.34 8 27.68 8 27 C5.1928122 27.62515531 2.41256959 28.29638517 -0.375 29 C-1.1690625 29.17144531 -1.963125 29.34289062 -2.78125 29.51953125 C-5.11920764 30.13374046 -6.96243782 30.69215887 -9 32 C-10.37779513 34.75832127 -10.62275932 36.87977201 -11 40 C-13.31 40.66 -15.62 41.32 -18 42 C-17.79703004 40.15383708 -17.59382893 38.30769936 -17.38964844 36.46166992 C-17.21172608 34.8487151 -17.03531839 33.23559255 -16.86035156 31.62231445 C-16.4057458 27.4722168 -15.92046786 23.33140824 -15.3515625 19.1953125 C-15.25085449 18.43726318 -15.15014648 17.67921387 -15.04638672 16.89819336 C-14.85287684 15.45483921 -14.64921932 14.01279905 -14.43408203 12.57250977 C-13.89289592 8.44810721 -14.07572554 5.71212647 -16 2 C-14.27507022 1.46530198 -12.544802 0.94780825 -10.8125 0.4375 C-9.84957031 0.14746094 -8.88664062 -0.14257812 -7.89453125 -0.44140625 C-4.73636115 -1.05087767 -3.05551142 -0.94691945 0 0 Z " fill="#F4F6F7" transform="translate(474,138)" />
<path d="M0 0 C6.40987097 2.38615635 6.40987097 2.38615635 8.3125 5.21484375 C9.26953101 8.09146876 8.30487364 9.61290898 6.98828125 12.24609375 C6.26640625 11.62734375 5.54453125 11.00859375 4.80078125 10.37109375 C-0.42518966 6.4225824 -4.57364015 5.53075168 -11.01171875 6.24609375 C-15.73073009 10.21999803 -16.51108361 15.56809427 -17.3046875 21.3984375 C-17.56198291 25.13269797 -17.33430805 26.86657693 -14.88671875 29.74609375 C-11.63775706 31.4412042 -9.62477433 31.58219194 -6.01171875 31.24609375 C-5.35171875 28.27609375 -4.69171875 25.30609375 -4.01171875 22.24609375 C-5.66171875 21.58609375 -7.31171875 20.92609375 -9.01171875 20.24609375 C-8.35171875 18.59609375 -7.69171875 16.94609375 -7.01171875 15.24609375 C-5.28141584 15.53094221 -3.55251161 15.82429313 -1.82421875 16.12109375 C-0.86128906 16.28351563 0.10164062 16.4459375 1.09375 16.61328125 C3.89860729 17.22648892 6.36052872 18.10275718 8.98828125 19.24609375 C8.39711151 21.85384251 7.79105925 24.45652715 7.17578125 27.05859375 C7.01013672 27.79658203 6.84449219 28.53457031 6.67382812 29.29492188 C5.9945306 32.12746438 5.30583453 34.7182265 3.796875 37.2265625 C-0.97606324 39.91713891 -7.72462424 38.82030688 -13.01171875 38.24609375 C-19.25761254 36.21617827 -23.26307478 32.51762433 -27.01171875 27.24609375 C-29.23787823 22.79377479 -28.51456524 17.07681001 -28.01171875 12.24609375 C-23.30034016 -0.24590176 -12.1605902 -3.04409067 0 0 Z " fill="#F6F8F8" transform="translate(616.01171875,137.75390625)" />
<path d="M0 0 C3 3.33333333 3 3.33333333 3 6 C1.80375 6.226875 0.6075 6.45375 -0.625 6.6875 C-5.23364661 7.84989399 -7.71811648 9.5580246 -11 13 C-11.95547581 15.67108098 -11.95547581 15.67108098 -12 18 C-7.69487651 17.63360651 -4.55571268 16.88537222 -0.6875 14.9375 C4.18757374 12.67913251 8.69350259 11.8074248 14 13 C17.36872037 15.62760189 18.53698089 17.05101257 19.50390625 21.12109375 C19.94755524 26.56759305 18.39686983 30.02432803 14.90625 34.140625 C10.69368608 38.24960128 6.00373199 41.89421077 0.125 43.0625 C-3 43 -3 43 -4.9375 41.6875 C-6 40 -6 40 -6 38 C-4.89591797 37.65388672 -4.89591797 37.65388672 -3.76953125 37.30078125 C4.2243601 34.73085282 4.2243601 34.73085282 10 29 C9.95020416 26.239835 9.95020416 26.239835 9 24 C4.53679285 24.38810497 1.10676719 25.30395644 -3 27.125 C-7.40872509 28.96085209 -10.31099347 29.50048209 -15 28 C-18.49265664 25.70219958 -18.94458815 24.22903565 -19.9375 20.125 C-20.22625236 15.89516813 -19.50054992 13.53018812 -17 10 C-7.22556391 0 -7.22556391 0 0 0 Z " fill="#F5F7F7" transform="translate(374,187)" />
<path d="M0 0 C5.43165217 3.91584226 9.24734988 10.7584297 10.41796875 17.35546875 C10.5 19.5 10.5 19.5 10 23 C7 25 7 25 4 25 C3.87882813 24.09636719 3.75765625 23.19273437 3.6328125 22.26171875 C3.38144531 20.49248047 3.38144531 20.49248047 3.125 18.6875 C2.96257813 17.51574219 2.80015625 16.34398437 2.6328125 15.13671875 C2.17699379 11.85469105 2.17699379 11.85469105 0 9 C-2.56282742 8.27034634 -2.56282742 8.27034634 -5 8 C-4.97381592 8.64026123 -4.94763184 9.28052246 -4.9206543 9.94018555 C-4.81638719 12.85570502 -4.75158247 15.77083198 -4.6875 18.6875 C-4.64560547 19.69490234 -4.60371094 20.70230469 -4.56054688 21.74023438 C-4.43645915 29.25995044 -4.43645915 29.25995044 -7.39453125 33.14453125 C-11.53317181 36.091839 -13.85746858 36.66355244 -19 36 C-24.85681358 32.61897168 -28.20132855 27.95653315 -30.37890625 21.63671875 C-31.35888867 17.47641603 -31.89973755 13.21498672 -31 9 C-28 7 -28 7 -25 7 C-24.96261719 7.79664063 -24.92523437 8.59328125 -24.88671875 9.4140625 C-24.53887682 17.69653202 -24.53887682 17.69653202 -21 25 C-18.46650198 26.05845809 -18.46650198 26.05845809 -16 26 C-14.78387492 25.01523067 -14.78387492 25.01523067 -14.96582031 23.12988281 C-15.00288086 22.32905273 -15.03994141 21.52822266 -15.078125 20.703125 C-15.10390625 19.8265625 -15.1296875 18.95 -15.15625 18.046875 C-15.21824674 16.19730563 -15.29611512 14.34819326 -15.390625 12.5 C-15.54951289 5.70754274 -15.54951289 5.70754274 -12.609375 1.921875 C-8.2703894 -1.27390481 -5.17207725 -1.40784342 0 0 Z " fill="#F4F6F7" transform="translate(789,289)" />
<path d="M0 0 C3.16115776 1.36983503 3.9927092 1.9890638 6 5 C5.22076172 5.32871094 5.22076172 5.32871094 4.42578125 5.6640625 C-0.72195296 8.00480671 -3.90705995 10.21093154 -7 15 C-6.96624167 17.32171592 -6.96624167 17.32171592 -6 19 C-2.06063556 18.44319937 0.40019641 17.30501425 3.625 15 C8.06611538 11.8472628 11.42349234 10.6059309 16.99609375 10.63671875 C20.35989577 11.24653081 21.93503566 13.43443824 24 16 C24.33 16.33 24.66 16.66 25 17 C25.61600154 24.70001926 23.43285785 29.52037419 18.625 35.25 C15.98770324 38.09739587 13.68376443 40.58316753 10 42 C6.8125 41.875 6.8125 41.875 4 41 C3.34 40.01 2.68 39.02 2 38 C2.67546875 37.69707031 3.3509375 37.39414062 4.046875 37.08203125 C11.15118132 33.87893666 11.15118132 33.87893666 16 28 C16.33513594 24.79019864 16.33513594 24.79019864 16 22 C9.67039507 22.3331371 5.19169276 25.71317293 0 29 C-2.85324437 30.42662219 -4.83454549 30.31033868 -8 30 C-10.69990662 28.20006226 -12.5418865 26.916227 -14 24 C-14.78839913 18.63090214 -14.71447088 14.26245506 -11.5 9.75 C-8.17547973 5.83692829 -4.24971213 2.84752285 0 0 Z " fill="#F5F7F7" transform="translate(731,552)" />
<path d="M0 0 C0.99 1.65 1.98 3.3 3 5 C-2.28 6.98 -7.56 8.96 -13 11 C-12.34 13.31 -11.68 15.62 -11 18 C-6.61667943 17.17812739 -2.32059823 16.09845718 2 15 C2 16.98 2 18.96 2 21 C-1.3 22.32 -4.6 23.64 -8 25 C-7.34 28.3 -6.68 31.6 -6 35 C-4.86820313 34.566875 -3.73640625 34.13375 -2.5703125 33.6875 C-1.0886073 33.12482714 0.39316714 32.56233657 1.875 32 C2.62136719 31.71382812 3.36773438 31.42765625 4.13671875 31.1328125 C9.7734375 29 9.7734375 29 12 29 C12 30.98 12 32.96 12 35 C11.44538086 35.20157715 10.89076172 35.4031543 10.31933594 35.61083984 C7.79532071 36.52976718 5.27265497 37.45234535 2.75 38.375 C1.87730469 38.69210937 1.00460937 39.00921875 0.10546875 39.3359375 C-0.73886719 39.6453125 -1.58320312 39.9546875 -2.453125 40.2734375 C-3.22817383 40.55622559 -4.00322266 40.83901367 -4.80175781 41.13037109 C-7.01916219 41.96131535 -7.01916219 41.96131535 -9.09667969 43.10791016 C-11 44 -11 44 -14 44 C-14.28198242 43.17798096 -14.56396484 42.35596191 -14.85449219 41.5090332 C-15.91253095 38.44041749 -16.9795935 35.37513133 -18.05273438 32.31176758 C-18.51401974 30.98912546 -18.9717615 29.66524163 -19.42578125 28.34008789 C-20.08169758 26.4277178 -20.7505281 24.52028091 -21.421875 22.61328125 C-22.01887207 20.89298706 -22.01887207 20.89298706 -22.62792969 19.13793945 C-24.03356032 15.92324719 -25.77004808 13.68204121 -28 11 C-28 10.34 -28 9.68 -28 9 C-23.89864435 7.49223384 -19.79347933 5.99512424 -15.6875 4.5 C-14.52025391 4.07074219 -13.35300781 3.64148438 -12.15039062 3.19921875 C-11.03212891 2.79316406 -9.91386719 2.38710938 -8.76171875 1.96875 C-7.73006592 1.59169922 -6.69841309 1.21464844 -5.63549805 0.82617188 C-3 0 -3 0 0 0 Z " fill="#F4F6F7" transform="translate(634,626)" />
<path d="M0 0 C3.44264118 0.67798954 6.1400923 2.03086493 9.203125 3.72265625 C10.1828125 4.26083984 11.1625 4.79902344 12.171875 5.35351562 C13.69554687 6.19946289 13.69554687 6.19946289 15.25 7.0625 C16.796875 7.91424805 16.796875 7.91424805 18.375 8.78320312 C20.91895018 10.18473123 23.46048283 11.5904602 26 13 C26 14.98 26 16.96 26 19 C21.20353851 17.64715189 17.21771015 15.53287026 12.953125 13.0234375 C11.07224959 11.84528687 11.07224959 11.84528687 9 12 C8.01 14.31 7.02 16.62 6 19 C9.63 20.98 13.26 22.96 17 25 C16.01 26.32 15.02 27.64 14 29 C9.61110675 28.33501617 6.0188515 26.81242323 2 25 C-0.35910353 29.2637281 -0.35910353 29.2637281 -1 34 C5.93 37.96 5.93 37.96 13 42 C12.34 43.32 11.68 44.64 11 46 C4.80171737 45.60371636 0.30852962 42.56401147 -4.875 39.4375 C-5.75414062 38.91736328 -6.63328125 38.39722656 -7.5390625 37.86132812 C-9.6978235 36.58249688 -11.85107726 35.29527161 -14 34 C-13.41226489 30.13391302 -12.26248429 27.3238778 -10.3125 23.9453125 C-9.77882813 23.00042969 -9.24515625 22.05554688 -8.6953125 21.08203125 C-7.56847352 19.11655404 -6.43828203 17.15299494 -5.3046875 15.19140625 C-2.40586288 10.04494225 -0.26499147 5.94574601 0 0 Z " fill="#F5F7F8" transform="translate(658,155)" />
<path d="M0 0 C4.64154658 4.29190089 8.16810269 9.16483959 11.8125 14.3125 C12.7087207 15.56643555 12.7087207 15.56643555 13.62304688 16.84570312 C15.0862487 18.89418568 16.54507639 20.94563384 18 23 C16.625 25.5 16.625 25.5 15 28 C14.34 28 13.68 28 13 28 C11.37322909 25.86229382 9.86020356 23.7324466 8.375 21.5 C7.95476563 20.87996094 7.53453125 20.25992188 7.1015625 19.62109375 C6.06162833 18.08482736 5.03002944 16.54292476 4 15 C2.02 16.32 0.04 17.64 -2 19 C-0.62373901 23.01409454 1.34304697 25.72309126 4 29 C4 29.66 4 30.32 4 31 C2.02 31.33 0.04 31.66 -2 32 C-3.98 29.36 -5.96 26.72 -8 24 C-10.31 25.32 -12.62 26.64 -15 28 C-15 32.01677233 -13.43588892 33.35364347 -11 36.5 C-7 41.66666667 -7 41.66666667 -7 45 C-9.475 45.495 -9.475 45.495 -12 46 C-14.9382211 42.20598635 -17.86425603 38.40318599 -20.77734375 34.58984375 C-21.77693205 33.29005961 -22.79248277 32.0025648 -23.8125 30.71875 C-27.0364029 26.54233033 -27.0364029 26.54233033 -26.8659668 24.00317383 C-25.72129359 21.35529008 -24.38017336 20.55442575 -21.95703125 19.01171875 C-21.13009766 18.46966797 -20.30316406 17.92761719 -19.45117188 17.36914062 C-18.58041016 16.81419922 -17.70964844 16.25925781 -16.8125 15.6875 C-10.15824859 11.44107007 -3.63453251 7.26906501 0 0 Z " fill="#F5F7F7" transform="translate(755,231)" />
<path d="M0 0 C6.62117078 2.91125408 12.17192799 8.64508014 14.8828125 15.3828125 C14.8828125 16.7028125 14.8828125 18.0228125 14.8828125 19.3828125 C12.3828125 21.1328125 12.3828125 21.1328125 9.8828125 22.3828125 C9.71265625 21.77953125 9.5425 21.17625 9.3671875 20.5546875 C7.50108233 14.06640377 7.50108233 14.06640377 2.8828125 9.3828125 C-0.38524932 8.03415877 -0.38524932 8.03415877 -4.1171875 8.3828125 C-7.17384221 9.98087342 -9.60115906 12.04012214 -12.1171875 14.3828125 C-12.66246094 14.87523437 -13.20773437 15.36765625 -13.76953125 15.875 C-16.41763068 18.58911853 -17.10866345 20.13987719 -17.2421875 23.9453125 C-15.49248358 29.29163002 -12.66028517 31.53847604 -7.8046875 34.1953125 C-6.9178125 34.5871875 -6.0309375 34.9790625 -5.1171875 35.3828125 C-6.7671875 37.0328125 -8.4171875 38.6828125 -10.1171875 40.3828125 C-17.02234248 36.93023501 -21.89359794 32.68820598 -25.0546875 25.5078125 C-26.52117852 21.00359007 -26.35178485 16.93221916 -25.1171875 12.3828125 C-20.06206446 2.64701998 -10.92561104 -3.18495672 0 0 Z " fill="#F6F8F8" transform="translate(352.1171875,555.6171875)" />
<path d="M0 0 C1.2989839 0.90626784 2.58893167 1.82549537 3.875 2.75 C4.59429688 3.26046875 5.31359375 3.7709375 6.0546875 4.296875 C8.08570565 6.07503547 8.97855012 7.52701607 10 10 C9.03900391 11.051875 9.03900391 11.051875 8.05859375 12.125 C5.36639686 15.07799093 2.68158792 18.0373723 0 21 C-0.71027344 21.78246094 -1.42054688 22.56492188 -2.15234375 23.37109375 C-2.76207031 24.05300781 -3.37179687 24.73492187 -4 25.4375 C-4.53625 26.03433594 -5.0725 26.63117188 -5.625 27.24609375 C-7.05804282 29.07403758 -8.03641012 30.89214713 -9 33 C-8.2059375 33.69867188 -7.411875 34.39734375 -6.59375 35.1171875 C-5.56224127 36.036168 -4.5310053 36.95545473 -3.5 37.875 C-2.97535156 38.33519531 -2.45070313 38.79539063 -1.91015625 39.26953125 C-0.56858245 40.47172076 0.71999185 41.73245946 2 43 C2 43.66 2 44.32 2 45 C-1 47 -1 47 -2.99414062 46.78857422 C-5.18109014 45.92880706 -6.40476993 45.00460481 -8.09375 43.3828125 C-8.64933594 42.85816406 -9.20492187 42.33351562 -9.77734375 41.79296875 C-10.34582031 41.24253906 -10.91429687 40.69210938 -11.5 40.125 C-16.52112894 35.2940034 -16.52112894 35.2940034 -22 31 C-20.47920927 27.49172085 -18.4004327 25.04728354 -15.8125 22.25 C-15.01199219 21.37472656 -14.21148438 20.49945313 -13.38671875 19.59765625 C-12.20529297 18.31181641 -12.20529297 18.31181641 -11 17 C-3.93298795 9.41474807 -3.93298795 9.41474807 0 0 Z " fill="#F5F7F7" transform="translate(712,188)" />
<path d="M0 0 C4.67105792 1.55701931 8.08705685 4.08447373 12 7 C6.69445786 15.60832995 0.93553243 23.81923598 -5 32 C-2.20513866 34.87209412 0.50513106 37.542737 3.8125 39.8125 C4.864375 40.534375 5.91625 41.25625 7 42 C6.34 43.32 5.68 44.64 5 46 C1.1095394 45.44678308 -1.27862527 44.39065897 -4.42578125 42.05859375 C-5.22177734 41.47529297 -6.01777344 40.89199219 -6.83789062 40.29101562 C-7.65451172 39.67935547 -8.47113281 39.06769531 -9.3125 38.4375 C-10.14845703 37.82197266 -10.98441406 37.20644531 -11.84570312 36.57226562 C-13.90295237 35.05577904 -15.95397685 33.53157996 -18 32 C-16.69745171 29.27539668 -15.26223769 26.79888796 -13.5390625 24.3203125 C-13.06726563 23.63839844 -12.59546875 22.95648437 -12.109375 22.25390625 C-11.61953125 21.55136719 -11.1296875 20.84882812 -10.625 20.125 C-9.19015228 18.05713123 -7.75641346 15.9885381 -6.32617188 13.91748047 C-5.48369529 12.69936354 -4.63655967 11.48444561 -3.78320312 10.27392578 C-1.39471268 6.82519429 -0.40013965 4.20146629 0 0 Z " fill="#F4F6F7" transform="translate(389,592)" />
<path d="M0 0 C2.475 1.485 2.475 1.485 5 3 C3.38522718 8.01219088 1.56119034 12.91777743 -0.375 17.8125 C-0.66632813 18.58787109 -0.95765625 19.36324219 -1.2578125 20.16210938 C-1.55171875 20.89880859 -1.845625 21.63550781 -2.1484375 22.39453125 C-2.40802246 23.06331299 -2.66760742 23.73209473 -2.93505859 24.42114258 C-4 26 -4 26 -5.76489258 26.85375977 C-8.82852822 27.05420955 -10.79328831 26.14531934 -13.61328125 24.9453125 C-15.2384668 24.27048828 -15.2384668 24.27048828 -16.89648438 23.58203125 C-18.02376953 23.10121094 -19.15105469 22.62039063 -20.3125 22.125 C-29.85125539 17.91873103 -29.85125539 17.91873103 -40 16 C-39.45660208 11.43545749 -38.20536179 8.0271824 -36 4 C-29.1332847 6.12243927 -22.55566265 8.77830095 -15.94165039 11.57446289 C-15.23258545 11.87215576 -14.52352051 12.16984863 -13.79296875 12.4765625 C-13.1589917 12.74549316 -12.52501465 13.01442383 -11.87182617 13.29150391 C-9.93644839 14.02405462 -8.01536392 14.53725614 -6 15 C-5.81824219 14.33613281 -5.63648438 13.67226563 -5.44921875 12.98828125 C-4.10476709 8.26546387 -2.85015263 4.07164661 0 0 Z " fill="#F6F8F8" transform="translate(319,299)" />
<path d="M0 0 C2.88671875 1.390625 2.88671875 1.390625 5.6875 3.25 C7.08548828 4.15492188 7.08548828 4.15492188 8.51171875 5.078125 C10.89495901 6.91886944 12.45031091 8.43237789 14 11 C14.51673305 15.06004538 14.40109741 17.26198077 12.4375 20.875 C9.2046666 23.69336758 7.26813588 23.88512264 3 24 C0.40200513 22.67311449 -1.54461376 21.49127088 -3.8125 19.75 C-4.38419922 19.34136719 -4.95589844 18.93273437 -5.54492188 18.51171875 C-8.28403046 16.50969109 -10.1013464 14.8479804 -12 12 C-11.92049214 7.70657534 -11.39337688 5.52824896 -8.8125 2.0625 C-5.4095849 -0.43297107 -4.1358406 -0.43187525 0 0 Z " fill="#0F2542" transform="translate(329,243)" />
<path d="M0 0 C6.27 0 12.54 0 19 0 C19.71614583 2.47395833 20.43229167 4.94791667 21.1484375 7.421875 C22.56420388 12.08557991 22.56420388 12.08557991 26.0625 15.125 C26.701875 15.41375 27.34125 15.7025 28 16 C28.495 16.99 28.495 16.99 29 18 C17.93486814 18.11407352 7.03402064 17.86541338 -4 17 C-2.68 11.39 -1.36 5.78 0 0 Z " fill="#0D2341" transform="translate(550,286)" />
<path d="M0 0 C3.96 1.65 7.92 3.3 12 5 C7.70556224 16.49801078 2.88399667 27.7423797 -2 39 C-5.55079859 38.33758211 -8.67457466 37.42518229 -12 36 C-9.65087734 28.58915745 -6.79914244 21.4474245 -3.78515625 14.28515625 C-1.80944162 9.4679644 -0.46446759 5.19359215 0 0 Z " fill="#F6F8F8" transform="translate(439,622)" />
<path d="M0 0 C-1.35525536 4.21775732 -2.90200114 8.29421322 -4.625 12.375 C-5.07101562 13.43460937 -5.51703125 14.49421875 -5.9765625 15.5859375 C-6.31429687 16.38257813 -6.65203125 17.17921875 -7 18 C-12.72451141 18.30129007 -18.05816071 17.8071041 -23.6875 16.75 C-24.92886719 16.51796875 -26.17023437 16.2859375 -27.44921875 16.046875 C-31.40837159 14.87960002 -33.75263049 13.49413941 -37 11 C-37 10.67 -37 10.34 -37 10 C-36.33057373 9.83918945 -35.66114746 9.67837891 -34.97143555 9.51269531 C-31.87517975 8.76496461 -28.78137126 8.0075341 -25.6875 7.25 C-24.63498047 6.99734375 -23.58246094 6.7446875 -22.49804688 6.484375 C-16.2143122 4.93760954 -10.19214089 3.0976417 -4.15551758 0.76074219 C-2 0 -2 0 0 0 Z " fill="#122844" transform="translate(609,478)" />
<path d="M0 0 C0.52464844 0.15855469 1.04929687 0.31710937 1.58984375 0.48046875 C3.28833797 0.9919953 4.98766495 1.50075943 6.6875 2.0078125 C9.1484125 2.74492544 11.60595551 3.49081426 14.0625 4.2421875 C21.9864139 6.64418529 29.78356664 8.81101288 38 10 C31.7234412 16.68630448 22.00966046 17.73760637 13.2265625 18.12109375 C11.15065178 18.12436806 9.07476098 18.0691587 7 18 C6.0197729 15.56292162 5.04077829 13.12536055 4.0625 10.6875 C3.64581055 9.65206055 3.64581055 9.65206055 3.22070312 8.59570312 C2.07859872 5.74732227 0.97069769 2.91209306 0 0 Z " fill="#0F2541" transform="translate(471,478)" />
<path d="M0 0 C0.66 0 1.32 0 2 0 C2.33 6.27 2.66 12.54 3 19 C2.67 19 2.34 19 2 19 C1.67 80.71 1.34 142.42 1 206 C0.67 206 0.34 206 0 206 C0 138.02 0 70.04 0 0 Z " fill="#D8DADC" transform="translate(540,377)" />
<path d="M0 0 C7.23298341 0.46664409 7.23298341 0.46664409 9.76953125 2.23046875 C11.47122488 4.67766625 11.17820787 6.1411395 10.8125 9.0625 C10.71582031 9.94035156 10.61914062 10.81820312 10.51953125 11.72265625 C10 14 10 14 8 16 C4.10176743 16.21656848 0.74891097 16.03218914 -3 15 C-2.69257097 12.68682039 -2.37892298 10.37446648 -2.0625 8.0625 C-1.88847656 6.77472656 -1.71445312 5.48695313 -1.53515625 4.16015625 C-1 1 -1 1 0 0 Z " fill="#142945" transform="translate(492,645)" />
<path d="M0 0 C1.62418745 -0.08090971 3.24951745 -0.13914995 4.875 -0.1875 C5.77992188 -0.22230469 6.68484375 -0.25710938 7.6171875 -0.29296875 C8.79667969 -0.14794922 8.79667969 -0.14794922 10 0 C12.06520632 3.09780948 12.29477024 3.9540481 12.3125 7.5 C12.32925781 8.2734375 12.34601562 9.046875 12.36328125 9.84375 C12 12 12 12 10.7421875 13.76953125 C7.66846069 15.94043696 4.66085408 15.180042 1 15 C-0.09506492 11.71480525 -0.09960608 9.26336585 -0.0625 5.8125 C-0.05347656 4.72582031 -0.04445313 3.63914062 -0.03515625 2.51953125 C-0.02355469 1.68808594 -0.01195312 0.85664062 0 0 Z " fill="#122743" transform="translate(557,649)" />
<path d="M0 0 C2.86038891 1.23692493 3.8601195 2.24812116 5.3125 5 C5.9375 7.4375 5.9375 7.4375 5.3125 10 C3.15501793 11.96427472 0.81073221 13.50233528 -1.6875 15 C-5.89140632 13.49860488 -7.57860738 10.82724957 -9.6875 7 C-8.17456292 2.46118876 -4.85623295 0 0 0 Z " fill="#142945" transform="translate(684.6875,604)" />
<path d="M0 0 C3.61497739 1.47158371 5.40591511 3.41462331 7.75 6.5 C8.36359375 7.2940625 8.9771875 8.088125 9.609375 8.90625 C11 11 11 11 11 13 C7.04 13.99 3.08 14.98 -1 16 C-1.08441199 10.51322045 -0.92037377 5.40719589 0 0 Z " fill="#182C47" transform="translate(466,148)" />
<path d="M0 0 C2.85514063 3.1941415 3.38846809 5.24578714 3.3125 9.5 C3.30863281 10.4384375 3.30476563 11.376875 3.30078125 12.34375 C2.9976364 15.02087334 2.36176004 16.69965635 1 19 C0.67 18.34 0.34 17.68 0 17 C-0.66 17 -1.32 17 -2 17 C-2 17.66 -2 18.32 -2 19 C-2.66 19 -3.32 19 -4 19 C-4.33 19.66 -4.66 20.32 -5 21 C-3.68882339 13.88879511 -1.98279484 6.95300057 0 0 Z " fill="#121F3D" transform="translate(255,316)" />
<path d="M0 0 C0.33 0.99 0.66 1.98 1 3 C3.50447516 4.21869929 3.50447516 4.21869929 6 5 C5.67 5.99 5.34 6.98 5 8 C1.5625 9.25 1.5625 9.25 -2 10 C-2.66 9.67 -3.32 9.34 -4 9 C-4.25 6.75 -4.25 6.75 -4 4 C-2 1.6875 -2 1.6875 0 0 Z " fill="#162A45" transform="translate(366,196)" />
<path d="M0 0 C2.475 0.99 2.475 0.99 5 2 C4.01 4.64 3.02 7.28 2 10 C2.99 10.33 3.98 10.66 5 11 C4.01 11.495 4.01 11.495 3 12 C0.5249829 10.88568235 -1.67883419 9.41849022 -4 8 C-2.68 5.36 -1.36 2.72 0 0 Z " fill="#182C47" transform="translate(667,166)" />
<path d="M0 0 C1.32 1.65 2.64 3.3 4 5 C3.67 5.66 3.34 6.32 3 7 C2.34 7 1.68 7 1 7 C0.67 7.66 0.34 8.32 0 9 C-0.66 8.34 -1.32 7.68 -2 7 C-4.31 8.98 -6.62 10.96 -9 13 C-7.31626595 9.6325319 -5.68918436 7.16415809 -3.375 4.25 C-2.74335938 3.45078125 -2.11171875 2.6515625 -1.4609375 1.828125 C-0.97882813 1.22484375 -0.49671875 0.6215625 0 0 Z " fill="#3A87D2" transform="translate(377,260)" />
<path d="M0 0 C-0.99 1.485 -0.99 1.485 -2 3 C-4.42578125 3.328125 -4.42578125 3.328125 -7.3125 3.25 C-8.25738281 3.23453125 -9.20226562 3.2190625 -10.17578125 3.203125 C-12.86302743 3.00985142 -15.37485142 2.59292973 -18 2 C-18 1.67 -18 1.34 -18 1 C-12.03325384 -0.32594359 -6.07416385 -0.0884587 0 0 Z " fill="#283C56" transform="translate(527,228)" />
<path d="M0 0 C0.33 1.65 0.66 3.3 1 5 C-3.455 6.485 -3.455 6.485 -8 8 C-4 0 -4 0 0 0 Z " fill="#1A2D48" transform="translate(457,374)" />
<path d="M0 0 C0.99 0 1.98 0 3 0 C3 0.99 3 1.98 3 3 C2.01 3.33 1.02 3.66 0 4 C0 2.68 0 1.36 0 0 Z M0.625 4.75 C3 6 3 6 5 8 C-2.42857143 8.28571429 -2.42857143 8.28571429 -6 6 C-3.37744032 4.25162688 -2.47772901 3.863506 0.625 4.75 Z " fill="#4493DF" transform="translate(593,195)" />
<path d="M0 0 C2.31 0.33 4.62 0.66 7 1 C6.67 2.98 6.34 4.96 6 7 C5.01 7 4.02 7 3 7 C0.64276511 4.46815512 0 3.52809907 0 0 Z " fill="#192C48" transform="translate(685,623)" />
<path d="M0 0 C0.33 0 0.66 0 1 0 C1 1.65 1 3.3 1 5 C1.66 5 2.32 5 3 5 C3.33 3.68 3.66 2.36 4 1 C4.66 1 5.32 1 6 1 C5.625 3.9375 5.625 3.9375 5 7 C4.01 7.495 4.01 7.495 3 8 C3 7.34 3 6.68 3 6 C2.34 6 1.68 6 1 6 C1 6.66 1 7.32 1 8 C0.34 8 -0.32 8 -1 8 C-1.33 8.66 -1.66 9.32 -2 10 C-1.34 6.7 -0.68 3.4 0 0 Z " fill="#1E1B3B" transform="translate(252,327)" />
<path d="M0 0 C3.34373475 0.55728913 6.03312999 1.35173889 9 3 C8.67 3.66 8.34 4.32 8 5 C5.03 4.505 5.03 4.505 2 4 C1.67 4.66 1.34 5.32 1 6 C0.67 4.02 0.34 2.04 0 0 Z M-1 6 C1 7 1 7 1 7 Z " fill="#3A86D3" transform="translate(631,208)" />
<path d="M0 0 C1 3 1 3 0.375 4.875 C-1.78834352 8.21834907 -4.40892792 11.20446396 -8 13 C-6.40956621 7.91061189 -3.2553049 4.12543357 0 0 Z " fill="#3C85D0" transform="translate(364,277)" />
<path d="M0 0 C2.31 0.33 4.62 0.66 7 1 C7 1.66 7 2.32 7 3 C4.03 3.66 1.06 4.32 -2 5 C-1.34 3.35 -0.68 1.7 0 0 Z " fill="#428FD8" transform="translate(477,201)" />
<path d="M0 0 C3.32637022 2.69277589 4.58473125 6.03724749 6 10 C5.67 10.99 5.34 11.98 5 13 C4.67 11.35 4.34 9.7 4 8 C3.01 8 2.02 8 1 8 C0.40267181 5.23735711 0 2.83967231 0 0 Z " fill="#B40E27" transform="translate(821,265)" />
<path d="M0 0 C0.33 0 0.66 0 1 0 C1 1.65 1 3.3 1 5 C1.66 5 2.32 5 3 5 C2.67 6.65 2.34 8.3 2 10 C1.34 10 0.68 10 0 10 C0 11.98 0 13.96 0 16 C-0.33 16 -0.66 16 -1 16 C-0.67 10.72 -0.34 5.44 0 0 Z " fill="#3179C3" transform="translate(324,375)" />
<path d="M0 0 C3.24271506 0.5590888 4.93057424 1.4132178 7 4 C7 4.66 7 5.32 7 6 C4.03 5.01 1.06 4.02 -2 3 C-1.34 2.67 -0.68 2.34 0 2 C0 1.34 0 0.68 0 0 Z " fill="#1C2E47" transform="translate(625,377)" />
<path d="M0 0 C5.29158974 1.40071493 7.77478044 4.85487245 11 9 C7.25983417 9 6.54723807 8.0658409 3.8125 5.625 C3.09707031 4.99851563 2.38164063 4.37203125 1.64453125 3.7265625 C0 2 0 2 0 0 Z " fill="#C30B21" transform="translate(756,178)" />
<path d="M0 0 C0.66 0.33 1.32 0.66 2 1 C0.68 1.33 -0.64 1.66 -2 2 C-1.67 3.65 -1.34 5.3 -1 7 C-3.31 7 -5.62 7 -8 7 C-8 6.34 -8 5.68 -8 5 C-5.35153397 2.63785462 -3.38483604 1.12827868 0 0 Z " fill="#AD1131" transform="translate(682,666)" />
<path d="M0 0 C0.75 1.75 0.75 1.75 1 4 C-0.9375 6.25 -0.9375 6.25 -3 8 C-3.33 7.34 -3.66 6.68 -4 6 C-4.66 5.67 -5.32 5.34 -6 5 C-4.02 3.35 -2.04 1.7 0 0 Z " fill="#09274A" transform="translate(422,217)" />
<path d="M0 0 C0.99 0.33 1.98 0.66 3 1 C-0.3 4.3 -3.6 7.6 -7 11 C-7.66 10.67 -8.32 10.34 -9 10 C-8.27683594 9.29423828 -8.27683594 9.29423828 -7.5390625 8.57421875 C-6.90742187 7.95160156 -6.27578125 7.32898438 -5.625 6.6875 C-4.68527344 5.76517578 -4.68527344 5.76517578 -3.7265625 4.82421875 C-1.81913393 2.91187472 -1.81913393 2.91187472 0 0 Z " fill="#1B2C45" transform="translate(646,497)" />
<path d="M0 0 C2.02350324 3.03525486 2.32124018 4.19426202 2.625 7.6875 C2.69976563 8.49574219 2.77453125 9.30398438 2.8515625 10.13671875 C2.90054688 10.75160156 2.94953125 11.36648438 3 12 C0.9375 10.5 0.9375 10.5 -1 8 C-1.05928384 5.17593353 -0.55954815 2.79774073 0 0 Z " fill="#191F3D" transform="translate(823,312)" />
<path d="M0 0 C2.61500768 2.36595933 4.38999603 4.86049226 6 8 C5.67 8.66 5.34 9.32 5 10 C4.34 10 3.68 10 3 10 C0.52653696 7.52653696 0.01686856 6.29238832 -0.1875 2.75 C-0.125625 1.8425 -0.06375 0.935 0 0 Z " fill="#211B39" transform="translate(798,257)" />
<path d="M0 0 C0.33 2.31 0.66 4.62 1 7 C-0.98 6.34 -2.96 5.68 -5 5 C-5 3 -5 3 -3.625 1.375 C-2 0 -2 0 0 0 Z " fill="#4992DB" transform="translate(635,212)" />
<path d="M0 0 C2.31 0.33 4.62 0.66 7 1 C4.94766315 3.2477975 3.99332739 4.0022242 1 5 C0.34 4.34 -0.32 3.68 -1 3 C-0.67 2.01 -0.34 1.02 0 0 Z " fill="#1A2F4A" transform="translate(502,487)" />
<path d="M0 0 C1.65 1.65 3.3 3.3 5 5 C4.01 5.99 3.02 6.98 2 8 C1.01 7.67 0.02 7.34 -1 7 C-0.67 4.69 -0.34 2.38 0 0 Z " fill="#1E1E3C" transform="translate(763,207)" />
<path d="M0 0 C0.33 1.32 0.66 2.64 1 4 C-1.31 5.65 -3.62 7.3 -6 9 C-6.66 8.67 -7.32 8.34 -8 8 C-5.36 5.36 -2.72 2.72 0 0 Z " fill="#241D39" transform="translate(333,190)" />
<path d="M0 0 C2.31 0.33 4.62 0.66 7 1 C6.67 2.65 6.34 4.3 6 6 C3.96166576 4.7260411 1.96147874 3.38938077 0 2 C0 1.34 0 0.68 0 0 Z " fill="#BE1030" transform="translate(730,174)" />
<path d="M0 0 C0 3.15084005 -0.45473667 4.33871316 -2 7 C-2.66 7.66 -3.32 8.32 -4 9 C-4.99 8.67 -5.98 8.34 -7 8 C-4.69 5.36 -2.38 2.72 0 0 Z " fill="#B10F2F" transform="translate(760,605)" />
<path d="M0 0 C1.65 0 3.3 0 5 0 C3.25 5.75 3.25 5.75 1 8 C0.67 5.36 0.34 2.72 0 0 Z " fill="#3A82CA" transform="translate(732,497)" />
<path d="M0 0 C0 3.97054597 -1.3139381 5.16471244 -4 8 C-6.25 8.8125 -6.25 8.8125 -8 9 C-5.68462045 5.27885429 -3.71420527 2.38770339 0 0 Z " fill="#1D1E3C" transform="translate(345,179)" />
<path d="M0 0 C-1.29299694 2.88437779 -2.65941363 4.87219421 -5 7 C-5.99 6.34 -6.98 5.68 -8 5 C-2.25 0 -2.25 0 0 0 Z " fill="#B51334" transform="translate(725,639)" />
<path d="M0 0 C0.66 0.66 1.32 1.32 2 2 C1.55123384 3.64846769 1.09069512 5.29373455 0.625 6.9375 C0.36976563 7.85402344 0.11453125 8.77054688 -0.1484375 9.71484375 C-1 12 -1 12 -3 13 C-2.88557539 11.39504433 -2.75805306 9.79101881 -2.625 8.1875 C-2.55539062 7.29417969 -2.48578125 6.40085937 -2.4140625 5.48046875 C-2 3 -2 3 0 0 Z " fill="#391C3C" transform="translate(819,504)" />
<path d="M0 0 C4.7037037 1.48538012 4.7037037 1.48538012 6.1875 4.0625 C6.455625 4.701875 6.72375 5.34125 7 6 C7.66 6.33 8.32 6.66 9 7 C6 7 6 7 4.39453125 5.46875 C3.87246094 4.8190625 3.35039063 4.169375 2.8125 3.5 C2.28269531 2.8503125 1.75289062 2.200625 1.20703125 1.53125 C0.80871094 1.0259375 0.41039062 0.520625 0 0 Z " fill="#4991D7" transform="translate(683,252)" />
<path d="M0 0 C0 0.66 0 1.32 0 2 C0.66 2.33 1.32 2.66 2 3 C1.67 4.32 1.34 5.64 1 7 C-0.98 5.35 -2.96 3.7 -5 2 C-2 0 -2 0 0 0 Z " fill="#2B1A38" transform="translate(360,637)" />
<path d="M0 0 C3.91402949 1.26941497 5.79072873 2.51167694 8 6 C7.67 6.66 7.34 7.32 7 8 C5.83035398 6.8572081 4.66435444 5.71068285 3.5 4.5625 C2.8503125 3.92441406 2.200625 3.28632812 1.53125 2.62890625 C0 1 0 1 0 0 Z " fill="#BE0B31" transform="translate(314,623)" />
<path d="M0 0 C2.96404505 2.80804268 5.44499019 5.18315774 7 9 C3.64564078 7.61198929 1.88709697 6.11371 0 3 C0 2.01 0 1.02 0 0 Z " fill="#BD112A" transform="translate(289,592)" />
<path d="M0 0 C0.33 0.66 0.66 1.32 1 2 C-1.31 4.64 -3.62 7.28 -6 10 C-6 6.41087588 -5.33563446 5.89142971 -3 3.3125 C-2.443125 2.68988281 -1.88625 2.06726563 -1.3125 1.42578125 C-0.879375 0.95527344 -0.44625 0.48476563 0 0 Z " fill="#DDE4E8" transform="translate(576,454)" />
<path d="M0 0 C0.99 0.33 1.98 0.66 3 1 C2.67 3.64 2.34 6.28 2 9 C0 7 0 7 -0.125 3.375 C-0.08375 2.26125 -0.0425 1.1475 0 0 Z " fill="#C01531" transform="translate(227,433)" />
<path d="M0 0 C2.375 0.3125 2.375 0.3125 5 1 C5.66 1.99 6.32 2.98 7 4 C5.02 4.33 3.04 4.66 1 5 C0.67 3.35 0.34 1.7 0 0 Z " fill="#4591DB" transform="translate(394,557)" />
<path d="M0 0 C0.33 0 0.66 0 1 0 C1 1.98 1 3.96 1 6 C-0.32 6 -1.64 6 -3 6 C-3 4.68 -3 3.36 -3 2 C-2.01 2 -1.02 2 0 2 C0 1.34 0 0.68 0 0 Z " fill="#C81F3E" transform="translate(231,443)" />
<path d="M0 0 C1.65 0 3.3 0 5 0 C5 0.99 5 1.98 5 3 C3.02 3.99 3.02 3.99 1 5 C0.67 3.35 0.34 1.7 0 0 Z " fill="#142A46" transform="translate(784,297)" />
<path d="M0 0 C0.66 0 1.32 0 2 0 C0.47291037 3.43595166 -1.59927045 6.11912454 -4 9 C-4.66 8.67 -5.32 8.34 -6 8 C-5.04956626 6.66102417 -4.08940853 5.32894573 -3.125 4 C-2.59132813 3.2575 -2.05765625 2.515 -1.5078125 1.75 C-1.01023437 1.1725 -0.51265625 0.595 0 0 Z " fill="#253750" transform="translate(399,296)" />
<path d="M0 0 C0.66 0.66 1.32 1.32 2 2 C1.625 4.125 1.625 4.125 1 6 C-0.65 4.68 -2.3 3.36 -4 2 C-2.68 1.34 -1.36 0.68 0 0 Z " fill="#4991DA" transform="translate(646,220)" />
<path d="M0 0 C0.99 0 1.98 0 3 0 C1.75023244 3.65316671 1.32901247 4.78065836 -2 7 C-2 5.68 -2 4.36 -2 3 C-1.34 3 -0.68 3 0 3 C0 2.01 0 1.02 0 0 Z " fill="#BA0E2E" transform="translate(323,196)" />
<path d="M0 0 C-0.33 1.32 -0.66 2.64 -1 4 C-2.65 4.33 -4.3 4.66 -6 5 C-6 4.01 -6 3.02 -6 2 C-3 0 -3 0 0 0 Z " fill="#253853" transform="translate(471,168)" />
<path d="M0 0 C2.64 0.33 5.28 0.66 8 1 C7.34 2.32 6.68 3.64 6 5 C3.98079663 3.69593116 1.98075027 2.36176581 0 1 C0 0.67 0 0.34 0 0 Z " fill="#BE1130" transform="translate(709,159)" />
<path d="M0 0 C1.98 0.495 1.98 0.495 4 1 C4 1.99 4 2.98 4 4 C3.01 4.33 2.02 4.66 1 5 C0.34 4.01 -0.32 3.02 -1 2 C-0.67 1.34 -0.34 0.68 0 0 Z " fill="#122845" transform="translate(384,622)" />
<path d="M0 0 C2 1 2 1 2.6328125 2.84765625 C2.79523437 3.57855469 2.95765625 4.30945313 3.125 5.0625 C3.29257812 5.79597656 3.46015625 6.52945312 3.6328125 7.28515625 C3.75398437 7.85105469 3.87515625 8.41695313 4 9 C2 8 2 8 1 5 C-0.49985609 3.33289654 -0.49985609 3.33289654 -2 2 C-1.34 2 -0.68 2 0 2 C0 1.34 0 0.68 0 0 Z " fill="#3D1D3B" transform="translate(816,293)" />
<path d="M0 0 C0.99 0.33 1.98 0.66 3 1 C2.360625 1.268125 1.72125 1.53625 1.0625 1.8125 C-1.33131686 2.88667752 -1.33131686 2.88667752 -2 6 C-2.99 5.67 -3.98 5.34 -5 5 C-3.35 3.35 -1.7 1.7 0 0 Z " fill="#BC0B39" transform="translate(330,170)" />
<path d="M0 0 C3.465 1.485 3.465 1.485 7 3 C6.01 3.66 5.02 4.32 4 5 C2.68 4.34 1.36 3.68 0 3 C0 2.01 0 1.02 0 0 Z " fill="#171E3D" transform="translate(660,132)" />
<path d="M0 0 C2.31 0.33 4.62 0.66 7 1 C7 1.66 7 2.32 7 3 C4.36 3 1.72 3 -1 3 C-0.67 2.01 -0.34 1.02 0 0 Z " fill="#D00924" transform="translate(589,94)" />
</svg>