<svg xmlns="http://www.w3.org/2000/svg" version="1.1" width="800px" height="800px" style="shape-rendering:geometricPrecision; text-rendering:geometricPrecision; image-rendering:optimizeQuality; fill-rule:evenodd; clip-rule:evenodd" viewBox="640.0 360.0 2560.0 1440.0">
<g><path style="opacity:0.999" fill="#000000" d="M 1815.5,18.5 C 2194.5,18.3333 2573.5,18.5 2952.5,19C 2822.32,148.347 2692.32,277.847 2562.5,407.5C 2701.79,524.772 2795.29,671.772 2843,848.5C 2896.81,1057.26 2878.14,1259.26 2787,1454.5C 2748.27,1534.53 2698.6,1606.86 2638,1671.5C 2484.5,1825 2331,1978.5 2177.5,2132C 1798.83,2132.67 1420.17,2132.67 1041.5,2132C 1171.17,2002.33 1300.83,1872.67 1430.5,1743C 1307.92,1639.74 1220.08,1512.24 1167,1360.5C 1101.86,1164.47 1103.86,969.141 1173,774.5C 1216.78,656.525 1282.45,552.858 1370,463.5C 1519.01,315.659 1667.51,167.326 1815.5,18.5 Z" /></g>
<g><path style="opacity:1" fill="#ce092b" d="M 1846.5,89.5 C 1880.83,89.3333 1915.17,89.5 1949.5,90C 1790.64,249.194 1631.47,408.027 1472,566.5C 1346.49,697.925 1277.82,854.925 1266,1037.5C 1258.3,1236.71 1318.96,1411.04 1448,1560.5C 1458.04,1571.54 1468.37,1582.2 1479,1592.5C 1496.1,1575.4 1513.27,1558.23 1530.5,1541C 1412.45,1420.34 1348.62,1275.18 1339,1105.5C 1334.28,922.145 1392.95,763.145 1515,628.5C 1694.5,449 1874,269.5 2053.5,90C 2087.83,89.3333 2122.17,89.3333 2156.5,90C 1961.64,285.194 1766.47,480.027 1571,674.5C 1449.62,808.31 1397.95,965.643 1416,1146.5C 1433.17,1280.16 1488.67,1394.49 1582.5,1489.5C 1600.17,1472.5 1617.5,1455.17 1634.5,1437.5C 1530.44,1329.95 1480.94,1200.95 1486,1050.5C 1493.37,921.475 1541.87,810.808 1631.5,718.5C 1841.35,508.82 2051.35,299.32 2261.5,90C 2295.83,89.3333 2330.17,89.3333 2364.5,90C 2133.67,320.167 1902.83,550.333 1672,780.5C 1580.72,885.716 1544.72,1007.72 1564,1146.5C 1579.96,1239.27 1620.62,1318.94 1686,1385.5C 1703.65,1369.01 1720.82,1352.01 1737.5,1334.5C 1660.47,1253.03 1625.64,1156.03 1633,1043.5C 1641.38,959.448 1674.04,886.782 1731,825.5C 1976.83,580.667 2222.33,335.5 2467.5,90C 2502.17,89.3333 2536.83,89.3333 2571.5,90C 2310.64,351.194 2049.47,612.027 1788,872.5C 1723.71,940.369 1696.71,1021.04 1707,1114.5C 1715.46,1179.08 1742.29,1234.41 1787.5,1280.5C 1788.36,1281.58 1789.36,1281.75 1790.5,1281C 1807.65,1264.68 1824.65,1248.18 1841.5,1231.5C 1780.05,1164.46 1763.22,1087.46 1791,1000.5C 1800.17,977.271 1812.51,955.938 1828,936.5C 2109.83,654 2392,371.833 2674.5,90C 2709.17,89.3333 2743.83,89.3333 2778.5,90C 2479.67,387.5 2181.5,685.667 1884,984.5C 1849.41,1031.06 1842.74,1081.39 1864,1135.5C 1883.72,1176.88 1915.56,1204.38 1959.5,1218C 1801.27,1376.9 1642.43,1535.07 1483,1692.5C 1326.21,1559.65 1232.21,1390.98 1201,1186.5C 1174.49,977.233 1220.32,786.233 1338.5,613.5C 1362.1,580.988 1387.6,549.988 1415,520.5C 1558.81,376.704 1702.65,233.037 1846.5,89.5 Z" /></g>
<g><path style="opacity:1" fill="#fefefe" d="M 2510.5,458.5 C 2511.87,458.343 2513.21,458.51 2514.5,459C 2635.72,563.568 2720.22,692.401 2768,845.5C 2820.27,1029.47 2810.94,1210.14 2740,1387.5C 2699.33,1483.53 2642.66,1568.86 2570,1643.5C 2429.86,1782.64 2290.03,1922.14 2150.5,2062C 2115.83,2062.67 2081.17,2062.67 2046.5,2062C 2208.67,1899.83 2370.83,1737.67 2533,1575.5C 2667.08,1428.21 2732.75,1254.21 2730,1053.5C 2723.09,880.105 2663.76,728.105 2552,597.5C 2540.62,584.741 2528.79,572.408 2516.5,560.5C 2499.01,577.486 2481.68,594.653 2464.5,612C 2597.99,748.709 2661.83,913.209 2656,1105.5C 2647.23,1268.59 2587.56,1409.59 2477,1528.5C 2299.17,1706.33 2121.33,1884.17 1943.5,2062C 1908.83,2062.83 1874.16,2062.67 1839.5,2061.5C 2036.85,1864.65 2234.01,1667.65 2431,1470.5C 2525.69,1364.35 2576.36,1239.69 2583,1096.5C 2586.68,927.923 2530.18,783.59 2413.5,663.5C 2395.81,680.527 2378.47,697.86 2361.5,715.5C 2463.25,820.833 2512.75,947.167 2510,1094.5C 2504.34,1220.23 2459.67,1329.56 2376,1422.5C 2162.81,1636.03 1949.31,1849.19 1735.5,2062C 1701.17,2062.67 1666.83,2062.67 1632.5,2062C 1860.36,1833.81 2088.53,1605.97 2317,1378.5C 2410.5,1275.97 2449.17,1155.3 2433,1016.5C 2419.09,919.839 2377.92,837.006 2309.5,768C 2308.83,767.333 2308.17,767.333 2307.5,768C 2290.79,784.374 2274.46,801.041 2258.5,818C 2267.78,828.722 2276.95,839.556 2286,850.5C 2354.49,941.492 2377.49,1043.16 2355,1155.5C 2338.95,1225.28 2305.95,1285.61 2256,1336.5C 2013.5,1578.33 1771,1820.17 1528.5,2062C 1494.17,2062.67 1459.83,2062.67 1425.5,2062C 1688.67,1798.83 1951.83,1535.67 2215,1272.5C 2271.67,1207.22 2296.34,1131.22 2289,1044.5C 2280.84,976.841 2252.84,918.841 2205,870.5C 2187.99,887.347 2171.15,904.347 2154.5,921.5C 2218.2,992.832 2233.03,1073.5 2199,1163.5C 2190.02,1182.8 2179.02,1200.8 2166,1217.5C 1885.17,1499.67 1603.67,1781.17 1321.5,2062C 1286.83,2062.67 1252.17,2062.67 1217.5,2062C 1514.64,1765.86 1811.47,1469.36 2108,1172.5C 2145.12,1124.24 2152.45,1071.57 2130,1014.5C 2110.2,974.533 2079.04,948.033 2036.5,935C 2194.7,776.299 2352.7,617.465 2510.5,458.5 Z" /></g>
</svg>