<svg xmlns="http://www.w3.org/2000/svg" version="1.1" width="800px" height="800px" style="shape-rendering:geometricPrecision; text-rendering:geometricPrecision; image-rendering:optimizeQuality; fill-rule:evenodd; clip-rule:evenodd" viewBox="-62.758620689655174 -79.5689655172414 965.5172413793103 1224.1379310344828">
<g><path style="opacity:0.671" fill="#131011" d="M 814.5,251.5 C 813.067,252.953 811.4,253.787 809.5,254C 811.734,250.364 813.568,246.531 815,242.5C 815.5,175.834 815.667,109.167 815.5,42.5C 793.807,42.8117 772.14,42.4784 750.5,41.5C 737.526,42.2968 724.526,42.7968 711.5,43C 709.342,46.1607 707.175,49.3273 705,52.5C 705.331,50.9813 705.164,49.648 704.5,48.5C 705.777,45.4475 707.444,42.6141 709.5,40C 745.165,39.5 780.832,39.3333 816.5,39.5C 816.667,109.501 816.5,179.501 816,249.5C 815.722,250.416 815.222,251.082 814.5,251.5 Z" /></g>
<g><path style="opacity:0.395" fill="#363636" d="M 634.5,571.5 C 633.358,574.956 631.358,577.789 628.5,580C 571.789,580.373 515.123,580.54 458.5,580.5C 455.085,580.239 455.085,579.072 458.5,577C 514.833,576.667 571.167,576.333 627.5,576C 629.417,573.502 631.084,570.835 632.5,568C 633.332,567.312 633.998,567.479 634.5,568.5C 633.347,569.687 633.347,570.687 634.5,571.5 Z" /></g>
<g><path style="opacity:0.998" fill="#1c1c1d" d="M 704.5,48.5 C 705.164,49.648 705.331,50.9813 705,52.5C 707.175,49.3273 709.342,46.1607 711.5,43C 724.526,42.7968 737.526,42.2968 750.5,41.5C 772.14,42.4784 793.807,42.8117 815.5,42.5C 815.667,109.167 815.5,175.834 815,242.5C 813.568,246.531 811.734,250.364 809.5,254C 811.4,253.787 813.067,252.953 814.5,251.5C 754.766,358.505 694.766,465.171 634.5,571.5C 633.347,570.687 633.347,569.687 634.5,568.5C 633.998,567.479 633.332,567.312 632.5,568C 631.084,570.835 629.417,573.502 627.5,576C 571.167,576.333 514.833,576.667 458.5,577C 455.085,579.072 455.085,580.239 458.5,580.5C 417.375,627.462 376.042,674.295 334.5,721C 361.169,720.083 387.836,718.75 414.5,717C 425.809,716.644 436.976,715.478 448,713.5C 451.148,715.421 451.314,717.587 448.5,720C 410.7,750.549 373.367,781.549 336.5,813C 366.877,848.242 397.377,883.408 428,918.5C 428.667,920.167 428.667,921.833 428,923.5C 379.667,910.833 331.333,898.167 283,885.5C 269.572,931.384 256.072,977.218 242.5,1023C 239.682,1023.84 237.516,1023.01 236,1020.5C 220.532,981.764 204.865,943.098 189,904.5C 187.985,901.79 186.485,899.457 184.5,897.5C 142.026,911.603 99.5258,925.603 57,939.5C 54.8125,938.941 54.1458,937.607 55,935.5C 81.5,896.333 108,857.167 134.5,818C 96.9123,791.623 59.4123,765.123 22,738.5C 21.5172,737.552 21.3505,736.552 21.5,735.5C 69.2007,733.761 116.867,731.427 164.5,728.5C 160.816,685.216 157.483,641.882 154.5,598.5C 156.582,598.472 158.416,599.139 160,600.5C 185.632,629.133 211.632,657.467 238,685.5C 252.116,650.936 265.95,616.269 279.5,581.5C 248.172,580.667 216.839,580.167 185.5,580C 175.968,557.928 166.968,535.595 158.5,513C 209.627,420.575 261.127,328.408 313,236.5C 316.562,210.234 319.562,183.901 322,157.5C 322.528,153.057 323.528,148.723 325,144.5C 344.073,110.025 362.906,75.3582 381.5,40.5C 419.734,39.1708 457.9,39.1708 496,40.5C 496.667,107.833 496.667,175.167 496,242.5C 461.687,304.459 426.854,366.126 391.5,427.5C 437.163,428.667 482.83,428.833 528.5,428C 565.328,364.174 601.495,300.008 637,235.5C 640.466,210.9 643.466,186.234 646,161.5C 646.786,156.78 647.786,152.114 649,147.5C 667.295,114.375 685.795,81.3751 704.5,48.5 Z" /></g>
<g><path style="opacity:1" fill="#0b1b21" d="M 383.5,47.5 C 418.5,47.5 453.5,47.5 488.5,47.5C 488.667,111.834 488.5,176.168 488,240.5C 486.283,243.791 484.117,246.791 481.5,249.5C 480.319,253.223 478.986,256.889 477.5,260.5C 472.504,267.923 468.004,275.59 464,283.5C 463.51,284.793 463.343,286.127 463.5,287.5C 462.167,287.5 460.833,287.5 459.5,287.5C 456.909,294.104 454.409,300.77 452,307.5C 450.432,310.334 448.265,312.668 445.5,314.5C 444.028,317.717 442.862,321.051 442,324.5C 438.229,327.659 436.062,331.659 435.5,336.5C 434.5,336.5 433.5,336.5 432.5,336.5C 431.283,341.692 429.616,346.692 427.5,351.5C 425.5,351.5 423.5,351.5 421.5,351.5C 421.445,355.846 419.612,359.179 416,361.5C 416.891,368.31 414.891,373.977 410,378.5C 409.506,380.134 409.34,381.801 409.5,383.5C 408.178,383.33 407.011,383.663 406,384.5C 404.149,389.527 402.316,394.527 400.5,399.5C 399.5,399.5 398.5,399.5 397.5,399.5C 397.613,402.049 396.946,404.382 395.5,406.5C 392.358,409.459 389.858,412.792 388,416.5C 387.506,418.134 387.34,419.801 387.5,421.5C 385.876,421.36 384.71,422.027 384,423.5C 383.503,426.146 383.336,428.813 383.5,431.5C 382.167,431.5 380.833,431.5 379.5,431.5C 379.5,432.833 379.5,434.167 379.5,435.5C 430.501,435.667 481.501,435.5 532.5,435C 536.093,431.657 539.093,427.823 541.5,423.5C 542.785,420.979 543.452,418.313 543.5,415.5C 544.675,415.719 545.675,415.386 546.5,414.5C 547.123,409.92 549.29,406.253 553,403.5C 554.536,399.333 556.37,395.333 558.5,391.5C 559.48,388.914 559.813,386.247 559.5,383.5C 564.452,383.325 566.952,380.658 567,375.5C 569.158,371.19 571.825,367.19 575,363.5C 575.333,361.833 575.667,360.167 576,358.5C 580.258,353.939 583.591,349.273 586,344.5C 587.149,341.607 587.649,338.607 587.5,335.5C 588.833,335.5 590.167,335.5 591.5,335.5C 591.337,333.143 591.503,330.81 592,328.5C 594.333,327.5 596,325.833 597,323.5C 598.667,319.833 600.333,316.167 602,312.5C 603.667,311.833 605.333,311.167 607,310.5C 607.297,307.086 607.964,303.753 609,300.5C 613.934,292.96 618.601,285.293 623,277.5C 623.495,275.527 623.662,273.527 623.5,271.5C 624.5,271.5 625.5,271.5 626.5,271.5C 631.405,261.411 636.571,251.411 642,241.5C 642.689,240.643 643.522,239.977 644.5,239.5C 648.826,207.558 652.493,175.558 655.5,143.5C 657.262,143.643 658.929,143.309 660.5,142.5C 662.654,137.349 664.987,132.349 667.5,127.5C 668.833,127.5 670.167,127.5 671.5,127.5C 671.187,124.753 671.52,122.086 672.5,119.5C 675.723,113.319 679.223,107.319 683,101.5C 683.495,99.5273 683.662,97.5273 683.5,95.5C 684.833,95.5 686.167,95.5 687.5,95.5C 687.809,91.3508 689.642,88.0175 693,85.5C 693.495,83.5273 693.662,81.5273 693.5,79.5C 694.833,79.5 696.167,79.5 697.5,79.5C 697.07,76.1379 698.07,73.3046 700.5,71C 700.167,70.6667 699.833,70.3333 699.5,70C 702.79,68.7023 704.29,66.2023 704,62.5C 707.594,58.3141 710.428,53.6474 712.5,48.5C 745.16,47.5001 777.827,47.1668 810.5,47.5C 810.491,112.345 810.491,177.011 810.5,241.5C 808.377,245.698 806.544,250.032 805,254.5C 803.301,255.406 801.467,255.739 799.5,255.5C 801.248,262.911 798.914,268.411 792.5,272C 792.957,272.414 793.291,272.914 793.5,273.5C 789.734,277.482 787.734,282.148 787.5,287.5C 786.167,287.5 784.833,287.5 783.5,287.5C 783.708,289.92 783.374,292.253 782.5,294.5C 780.254,297.977 777.754,301.311 775,304.5C 772.818,309.536 770.485,314.536 768,319.5C 762.275,327.353 757.275,335.686 753,344.5C 752.558,348.651 750.558,351.651 747,353.5C 745.519,357.127 743.519,360.46 741,363.5C 738.009,371.649 733.842,379.149 728.5,386C 728.957,386.414 729.291,386.914 729.5,387.5C 726.737,390.688 724.737,394.355 723.5,398.5C 722.311,399.429 720.978,399.762 719.5,399.5C 719.664,402.187 719.497,404.854 719,407.5C 716.12,411.971 713.453,416.305 711,420.5C 710.51,421.793 710.343,423.127 710.5,424.5C 709.178,424.33 708.011,424.663 707,425.5C 704.397,430.278 701.564,434.945 698.5,439.5C 697.52,442.086 697.187,444.753 697.5,447.5C 696.167,447.5 694.833,447.5 693.5,447.5C 693.662,449.527 693.495,451.527 693,453.5C 688.665,460.501 684.332,467.501 680,474.5C 679.108,477.284 677.942,479.95 676.5,482.5C 676.709,483.086 677.043,483.586 677.5,484C 673.274,486.617 671.274,490.45 671.5,495.5C 667.609,495.714 665.609,497.88 665.5,502C 662.941,505.636 660.274,509.136 657.5,512.5C 655.252,520.326 651.419,527.326 646,533.5C 644.471,537.017 643.471,540.683 643,544.5C 641.989,543.663 640.822,543.33 639.5,543.5C 640.106,548.22 638.44,551.886 634.5,554.5C 634.247,557.733 632.747,560.066 630,561.5C 628.285,565.579 626.618,569.246 625,572.5C 624.667,571.833 624.333,571.167 624,570.5C 568.715,572.327 513.215,573.161 457.5,573C 455.957,574.878 454.124,576.378 452,577.5C 451.667,577.167 451.333,576.833 451,576.5C 448.816,582.171 445.649,587.171 441.5,591.5C 440.264,592.246 438.93,592.579 437.5,592.5C 433.966,597.382 429.966,602.049 425.5,606.5C 424.311,607.429 422.978,607.762 421.5,607.5C 421.703,610.891 420.703,613.891 418.5,616.5C 416.697,617.137 415.364,618.303 414.5,620C 413.552,620.483 412.552,620.649 411.5,620.5C 411.241,624.068 409.241,625.401 405.5,624.5C 405.66,626.199 405.494,627.866 405,629.5C 401.191,631.795 399.358,635.128 399.5,639.5C 398.07,639.421 396.736,639.754 395.5,640.5C 391.829,644.338 387.995,648.005 384,651.5C 383.51,652.793 383.343,654.127 383.5,655.5C 379.962,655.215 378.129,656.882 378,660.5C 374.316,665.701 370.149,669.701 365.5,672.5C 363.525,677.452 360.359,681.452 356,684.5C 355.517,685.448 355.351,686.448 355.5,687.5C 354.167,687.5 352.833,687.5 351.5,687.5C 351.5,689.5 351.5,691.5 351.5,693.5C 350.448,693.351 349.448,693.517 348.5,694C 341.595,700.615 334.929,707.449 328.5,714.5C 324.967,719.292 321.967,724.292 319.5,729.5C 322.812,729.943 326.145,730.276 329.5,730.5C 344.386,729.132 359.219,727.798 374,726.5C 377.608,727.949 381.108,727.783 384.5,726C 398.83,724.852 413.164,724.185 427.5,724C 427.833,724.333 428.167,724.667 428.5,725C 427.167,726.667 425.833,728.333 424.5,730C 416.86,736.273 408.86,742.107 400.5,747.5C 399.571,748.689 399.238,750.022 399.5,751.5C 395.486,750.824 392.486,752.157 390.5,755.5C 386.34,755.498 383.84,757.498 383,761.5C 377.943,763.723 374.443,767.389 372.5,772.5C 368.972,775.741 364.972,778.408 360.5,780.5C 359.053,783.567 356.72,785.734 353.5,787C 349.554,790.989 345.554,794.989 341.5,799C 336.466,802.607 331.3,806.107 326,809.5C 325.505,811.473 325.338,813.473 325.5,815.5C 327.5,815.5 329.5,815.5 331.5,815.5C 331.635,819.438 333.135,822.772 336,825.5C 338.358,827.024 340.191,829.024 341.5,831.5C 342.736,832.246 344.07,832.579 345.5,832.5C 345.343,833.873 345.51,835.207 346,836.5C 347.709,838.175 349.376,839.842 351,841.5C 351.333,843.5 351.667,845.5 352,847.5C 353.825,848.103 355.659,848.77 357.5,849.5C 358.684,851.046 359.684,852.713 360.5,854.5C 365.335,857.87 369.501,861.87 373,866.5C 373.483,867.448 373.649,868.448 373.5,869.5C 374.5,869.5 375.5,869.5 376.5,869.5C 380.406,875.257 384.573,880.923 389,886.5C 390.011,887.337 391.178,887.67 392.5,887.5C 392.281,888.675 392.614,889.675 393.5,890.5C 395.677,889.496 396.011,890.162 394.5,892.5C 396.973,894.061 398.973,896.061 400.5,898.5C 403.5,899.833 406.5,901.167 409.5,902.5C 408.522,903.801 408.855,904.968 410.5,906C 409.676,909.058 408.342,909.224 406.5,906.5C 401.983,907.564 397.65,906.897 393.5,904.5C 391.568,905.52 389.568,905.687 387.5,905C 356.818,896.996 326.151,888.996 295.5,881C 289.654,880.448 283.987,879.448 278.5,878C 277.034,882.277 275.201,886.443 273,890.5C 268.018,908.032 263.351,925.698 259,943.5C 257.529,944.381 256.696,945.714 256.5,947.5C 255.868,951.817 255.368,956.15 255,960.5C 254.667,960.167 254.333,959.833 254,959.5C 251.724,964.938 250.557,970.605 250.5,976.5C 249.5,976.5 248.5,976.5 247.5,976.5C 246.32,983.547 244.82,990.547 243,997.5C 241.855,999.926 240.522,1002.26 239,1004.5C 235.481,998.796 232.481,992.796 230,986.5C 229.803,983.308 228.97,980.308 227.5,977.5C 226.311,976.571 224.978,976.238 223.5,976.5C 224.313,971.539 223.147,967.206 220,963.5C 220.185,957.872 218.185,953.205 214,949.5C 213.136,944.893 211.136,940.893 208,937.5C 207.502,934.518 207.335,931.518 207.5,928.5C 206.022,928.762 204.689,928.429 203.5,927.5C 203.709,926.914 204.043,926.414 204.5,926C 203.751,924.266 203.251,922.433 203,920.5C 198.429,909.345 193.762,898.345 189,887.5C 175.234,892.296 161.401,896.963 147.5,901.5C 138.731,904.986 129.397,907.819 119.5,910C 114.167,912.333 108.833,914.667 103.5,917C 94.4994,918.413 85.666,920.579 77,923.5C 75.1285,923.291 73.9619,922.291 73.5,920.5C 76.627,915.242 80.4603,910.575 85,906.5C 86.7905,900.629 89.9571,895.629 94.5,891.5C 95.4742,889.257 95.8076,886.924 95.5,884.5C 98.4701,884.254 99.8034,882.588 99.5,879.5C 101.604,879.799 103.604,879.466 105.5,878.5C 105.291,877.914 104.957,877.414 104.5,877C 105.103,875.175 105.77,873.341 106.5,871.5C 108.981,868.88 110.815,865.88 112,862.5C 116.222,859 119.722,855 122.5,850.5C 125.536,844.286 128.869,838.286 132.5,832.5C 134.115,831.846 135.782,831.346 137.5,831C 137.524,827.15 139.357,823.984 143,821.5C 143.818,818.773 143.652,816.106 142.5,813.5C 138.091,810.433 133.424,807.767 128.5,805.5C 127.548,803.955 127.215,802.288 127.5,800.5C 125.193,800.014 123.027,800.014 121,800.5C 119.299,796.125 116.133,794.458 111.5,795.5C 111.5,793.833 111.5,792.167 111.5,790.5C 107.19,790.511 103.857,788.677 101.5,785C 99.8333,784.667 98.1667,784.333 96.5,784C 94.4584,779.748 91.1251,777.082 86.5,776C 83.1609,772.236 79.1609,769.569 74.5,768C 73.8957,765.532 72.5624,763.532 70.5,762C 64.8575,759.859 59.8575,756.693 55.5,752.5C 50.0877,751.179 47.421,747.846 47.5,742.5C 86.7961,739.946 128.129,737.946 171.5,736.5C 169.352,698.783 166.852,661.116 164,623.5C 167.435,623.038 170.935,623.538 174.5,625C 179.751,635.04 186.751,643.54 195.5,650.5C 198.17,655.193 201.836,659.026 206.5,662C 209.108,666.113 212.441,669.279 216.5,671.5C 216.491,673.308 216.991,674.975 218,676.5C 221.887,680.894 226.221,684.894 231,688.5C 232.626,690.917 234.126,693.417 235.5,696C 238.564,698.387 241.064,697.887 243,694.5C 244.642,689.934 245.975,685.268 247,680.5C 248.761,677.268 250.594,674.102 252.5,671C 251.174,668.132 252.008,665.966 255,664.5C 255.498,661.518 255.665,658.518 255.5,655.5C 256.833,655.5 258.167,655.5 259.5,655.5C 259.337,653.143 259.503,650.81 260,648.5C 264.512,641.124 267.346,633.124 268.5,624.5C 269.5,624.5 270.5,624.5 271.5,624.5C 271.337,622.143 271.503,619.81 272,617.5C 276.562,606.043 281.396,594.71 286.5,583.5C 287.491,579.555 287.824,575.555 287.5,571.5C 254.493,571.833 221.493,571.5 188.5,570.5C 186.347,564.876 184.514,559.209 183,553.5C 180.345,550.703 179.178,547.369 179.5,543.5C 178.167,543.5 176.833,543.5 175.5,543.5C 175.665,540.15 175.498,536.817 175,533.5C 171.881,527.027 168.715,520.527 165.5,514C 174.38,499.437 182.88,484.603 191,469.5C 191.495,467.527 191.662,465.527 191.5,463.5C 192.833,463.5 194.167,463.5 195.5,463.5C 197.873,455.646 201.706,448.646 207,442.5C 210.604,436.955 213.437,430.955 215.5,424.5C 219.007,422.539 220.34,419.539 219.5,415.5C 220.833,415.5 222.167,415.5 223.5,415.5C 222.962,411.643 223.962,408.309 226.5,405.5C 227.308,403.577 227.808,401.577 228,399.5C 231.544,397.961 233.544,395.294 234,391.5C 242.299,378.72 249.466,365.387 255.5,351.5C 256.5,351.5 257.5,351.5 258.5,351.5C 258.46,348.575 259.293,345.909 261,343.5C 263.105,340.936 264.938,338.269 266.5,335.5C 267.298,333.922 267.798,332.256 268,330.5C 274.981,323.546 279.647,315.213 282,305.5C 285,300.833 288,296.167 291,291.5C 292.598,288.702 293.765,285.702 294.5,282.5C 297.196,278.812 299.862,275.145 302.5,271.5C 306.951,261.269 312.451,251.602 319,242.5C 319.309,241.234 319.809,240.067 320.5,239C 319.9,234.089 319.567,228.922 319.5,223.5C 320.833,223.5 322.167,223.5 323.5,223.5C 325.715,202.35 327.381,181.017 328.5,159.5C 329.5,159.5 330.5,159.5 331.5,159.5C 331.334,155.154 331.501,150.821 332,146.5C 337.682,137.632 342.515,128.298 346.5,118.5C 347.833,117.5 349.167,116.5 350.5,115.5C 353.686,109.287 356.686,102.954 359.5,96.5C 360.325,95.6143 361.325,95.281 362.5,95.5C 365.063,85.0141 369.896,75.6807 377,67.5C 378.475,64.0791 380.141,60.7458 382,57.5C 383.199,54.2744 383.699,50.941 383.5,47.5 Z" /></g>
<g><path style="opacity:1" fill="#a3afb5" d="M 325.5,853.5 C 329.681,855.939 332.014,859.272 332.5,863.5C 315.323,859.072 298.323,854.406 281.5,849.5C 283.262,849.357 284.929,849.691 286.5,850.5C 286.669,849.603 287.002,848.603 287.5,847.5C 289.289,848.877 291.289,849.877 293.5,850.5C 294.192,849.975 294.692,849.308 295,848.5C 296.586,849.376 298.086,850.376 299.5,851.5C 300.604,850.369 300.271,849.535 298.5,849C 299,848.833 299.5,848.667 300,848.5C 301.823,849.651 303.656,850.818 305.5,852C 304.167,852.333 302.833,852.667 301.5,853C 303.684,853.867 305.851,854.701 308,855.5C 309.365,855.156 310.532,854.489 311.5,853.5C 314.084,854.393 316.751,854.726 319.5,854.5C 319.5,855.5 319.5,856.5 319.5,857.5C 322.969,858.113 324.969,856.779 325.5,853.5 Z" /></g>
<g><path style="opacity:1" fill="#7b878d" d="M 341.5,760.5 C 339.085,759.186 336.252,758.519 333,758.5C 307.518,760.249 282.018,761.582 256.5,762.5C 256.263,761.209 256.596,760.209 257.5,759.5C 259.571,760.809 262.071,761.475 265,761.5C 290.324,759.626 315.657,757.959 341,756.5C 345.267,757.03 345.434,758.363 341.5,760.5 Z" /></g>
<g><path style="opacity:1" fill="#77828a" d="M 582.5,496.5 C 531.844,498.496 480.844,499.162 429.5,498.5C 480.402,497.829 531.402,497.162 582.5,496.5 Z" /></g>
<g><path style="opacity:1" fill="#77838b" d="M 204.5,495.5 C 253.822,497.495 303.489,498.162 353.5,497.5C 353.737,498.791 353.404,499.791 352.5,500.5C 303.178,498.505 253.511,497.838 203.5,498.5C 203.263,497.209 203.596,496.209 204.5,495.5 Z" /></g>
<g><path style="opacity:1" fill="#c0c9d0" d="M 338.5,257.5 C 356.532,256.847 374.198,257.514 391.5,259.5C 354.075,324.258 317.075,389.258 280.5,454.5C 279.957,454.56 279.624,454.893 279.5,455.5C 369.999,456.832 460.332,456.832 550.5,455.5C 587.656,389.33 624.989,323.33 662.5,257.5C 680.199,256.847 697.532,257.514 714.5,259.5C 669.714,338.072 625.714,417.072 582.5,496.5C 531.402,497.162 480.402,497.829 429.5,498.5C 371.908,585.357 314.574,672.357 257.5,759.5C 256.596,760.209 256.263,761.209 256.5,762.5C 282.018,761.582 307.518,760.249 333,758.5C 336.252,758.519 339.085,759.186 341.5,760.5C 322.391,775.111 304.058,790.611 286.5,807C 299.392,822.636 312.392,838.136 325.5,853.5C 324.969,856.779 322.969,858.113 319.5,857.5C 319.5,856.5 319.5,855.5 319.5,854.5C 316.751,854.726 314.084,854.393 311.5,853.5C 310.532,854.489 309.365,855.156 308,855.5C 305.851,854.701 303.684,853.867 301.5,853C 302.833,852.667 304.167,852.333 305.5,852C 303.656,850.818 301.823,849.651 300,848.5C 299.5,848.667 299,848.833 298.5,849C 300.271,849.535 300.604,850.369 299.5,851.5C 298.086,850.376 296.586,849.376 295,848.5C 294.692,849.308 294.192,849.975 293.5,850.5C 291.289,849.877 289.289,848.877 287.5,847.5C 287.002,848.603 286.669,849.603 286.5,850.5C 284.929,849.691 283.262,849.357 281.5,849.5C 273.418,848.145 265.418,846.479 257.5,844.5C 252.334,863.509 246.834,882.509 241,901.5C 241.116,906.63 239.782,911.297 237,915.5C 227.743,895.389 219.077,875.056 211,854.5C 210.519,852.522 209.353,851.189 207.5,850.5C 186.566,857.318 165.566,863.985 144.5,870.5C 143.386,869.277 143.219,867.944 144,866.5C 156.848,847.656 169.682,828.823 182.5,810C 164.252,795.608 145.252,782.108 125.5,769.5C 124.614,768.675 124.281,767.675 124.5,766.5C 149.161,765.631 173.827,764.964 198.5,764.5C 197.212,743.807 195.546,723.14 193.5,702.5C 193.833,700.833 194.167,699.167 194.5,697.5C 210.507,714.174 226.173,731.174 241.5,748.5C 242.325,749.386 243.325,749.719 244.5,749.5C 248.024,739.436 251.857,729.436 256,719.5C 288.181,646.474 320.348,573.474 352.5,500.5C 353.404,499.791 353.737,498.791 353.5,497.5C 303.489,498.162 253.822,497.495 204.5,495.5C 248.723,415.937 293.389,336.604 338.5,257.5 Z" /></g>
<g><path style="opacity:1" fill="#0d1c22" d="M 220.5,785.5 C 231.506,783.753 239.673,787.753 245,797.5C 247.385,808.431 243.552,816.265 233.5,821C 223.406,823.644 215.906,820.477 211,811.5C 206.64,799.914 209.807,791.247 220.5,785.5 Z" /></g>
<g><path style="opacity:1" fill="#626f74" d="M 280.5,454.5 C 370.332,455.499 460.332,455.833 550.5,455.5C 460.332,456.832 369.999,456.832 279.5,455.5C 279.624,454.893 279.957,454.56 280.5,454.5 Z" /></g>
<g><path style="opacity:0.405" fill="#040404" d="M 389.5,430.5 C 435.998,429.335 482.665,429.168 529.5,430C 506.586,431.157 483.586,431.657 460.5,431.5C 436.811,431.48 413.144,431.147 389.5,430.5 Z" /></g>
<g><path style="opacity:1" fill="#4c555c" d="M 662.5,257.5 C 679.992,256.503 697.659,256.17 715.5,256.5C 715.737,257.791 715.404,258.791 714.5,259.5C 697.532,257.514 680.199,256.847 662.5,257.5 Z" /></g>
<g><path style="opacity:1" fill="#4c555c" d="M 338.5,257.5 C 356.326,256.503 374.326,256.17 392.5,256.5C 392.737,257.791 392.404,258.791 391.5,259.5C 374.198,257.514 356.532,256.847 338.5,257.5 Z" /></g>
<g><path style="opacity:1" fill="#586268" d="M 674.5,217.5 C 674.5,219.167 674.5,220.833 674.5,222.5C 690.833,222.5 707.167,222.5 723.5,222.5C 707.008,223.497 690.342,223.83 673.5,223.5C 673.205,221.265 673.539,219.265 674.5,217.5 Z" /></g>
<g><path style="opacity:1" fill="#677178" d="M 353.5,197.5 C 353.245,205.869 352.579,214.202 351.5,222.5C 367.833,222.5 384.167,222.5 400.5,222.5C 384.008,223.497 367.342,223.83 350.5,223.5C 350.637,214.595 351.637,205.929 353.5,197.5 Z" /></g>
<g><path style="opacity:1" fill="#525e65" d="M 404.5,175.5 C 404.455,191.422 403.122,207.089 400.5,222.5C 401.128,206.627 402.461,190.961 404.5,175.5 Z" /></g>
<g><path style="opacity:1" fill="#c0c9d0" d="M 679.5,165.5 C 695.5,165.5 711.5,165.5 727.5,165.5C 725.938,184.47 724.938,203.47 724.5,222.5C 724.167,222.5 723.833,222.5 723.5,222.5C 707.167,222.5 690.833,222.5 674.5,222.5C 674.5,220.833 674.5,219.167 674.5,217.5C 675.505,200.103 677.172,182.769 679.5,165.5 Z" /></g>
<g><path style="opacity:1" fill="#c1cad1" d="M 356.5,165.5 C 372.5,165.5 388.5,165.5 404.5,165.5C 404.5,167.167 404.5,168.833 404.5,170.5C 404.5,172.167 404.5,173.833 404.5,175.5C 402.461,190.961 401.128,206.627 400.5,222.5C 384.167,222.5 367.833,222.5 351.5,222.5C 352.579,214.202 353.245,205.869 353.5,197.5C 354.124,186.799 355.124,176.132 356.5,165.5 Z" /></g>
<g><path style="opacity:1" fill="#5e6b70" d="M 679.5,165.5 C 695.658,164.504 711.991,164.17 728.5,164.5C 728.175,184.053 726.842,203.387 724.5,222.5C 724.938,203.47 725.938,184.47 727.5,165.5C 711.5,165.5 695.5,165.5 679.5,165.5 Z" /></g>
<g><path style="opacity:1" fill="#717d82" d="M 356.5,165.5 C 372.658,164.504 388.991,164.17 405.5,164.5C 405.795,166.735 405.461,168.735 404.5,170.5C 404.5,168.833 404.5,167.167 404.5,165.5C 388.5,165.5 372.5,165.5 356.5,165.5 Z" /></g>
<g><path style="opacity:1" fill="#465258" d="M 364.5,136.5 C 382.659,137.497 400.992,137.83 419.5,137.5C 400.996,138.828 382.329,138.828 363.5,137.5C 363.624,136.893 363.957,136.56 364.5,136.5 Z" /></g>
<g><path style="opacity:1" fill="#c0c8cf" d="M 725.5,70.5 C 742.201,69.8482 758.534,70.5149 774.5,72.5C 762.339,93.8261 751.005,115.493 740.5,137.5C 723.154,137.833 705.821,137.5 688.5,136.5C 700.354,114.114 712.687,92.1143 725.5,70.5 Z" /></g>
<g><path style="opacity:1" fill="#c0c9d0" d="M 400.5,70.5 C 418.532,69.847 436.198,70.5137 453.5,72.5C 441.914,94.0045 430.581,115.671 419.5,137.5C 400.992,137.83 382.659,137.497 364.5,136.5C 376.07,114.264 388.07,92.2639 400.5,70.5 Z" /></g>
<g><path style="opacity:1" fill="#556066" d="M 725.5,70.5 C 741.992,69.5035 758.658,69.1702 775.5,69.5C 775.737,70.791 775.404,71.791 774.5,72.5C 758.534,70.5149 742.201,69.8482 725.5,70.5 Z" /></g>
<g><path style="opacity:1" fill="#566167" d="M 400.5,70.5 C 418.326,69.5032 436.326,69.1699 454.5,69.5C 454.737,70.791 454.404,71.791 453.5,72.5C 436.198,70.5137 418.532,69.847 400.5,70.5 Z" /></g>
</svg>